AnekTamil-ExpandedThin.ufo
<glyph name="asterisk" format="2">
  <advance width="872"/>
  <unicode hex="002A"/>
  <outline>
    <contour>
      <point x="226" y="676" type="line"/>
      <point x="442" y="942" type="line"/>
      <point x="431" y="942" type="line"/>
      <point x="646" y="676" type="line"/>
      <point x="675" y="703" type="line"/>
      <point x="450" y="959" type="line"/>
      <point x="449" y="947" type="line"/>
      <point x="776" y="1034" type="line"/>
      <point x="767" y="1070" type="line"/>
      <point x="443" y="974" type="line"/>
      <point x="450" y="966" type="line"/>
      <point x="456" y="1278" type="line"/>
      <point x="417" y="1278" type="line"/>
      <point x="424" y="966" type="line"/>
      <point x="429" y="974" type="line"/>
      <point x="105" y="1070" type="line"/>
      <point x="96" y="1034" type="line"/>
      <point x="424" y="947" type="line"/>
      <point x="422" y="959" type="line"/>
      <point x="198" y="703" type="line"/>
    </contour>
  </outline>
</glyph>
<glyph name="one" format="2">
  <advance width="818"/>
  <unicode hex="0031"/>
  <outline>
    <contour>
      <point x="545" y="0" type="line"/>
      <point x="584" y="0" type="line"/>
      <point x="584" y="1278" type="line"/>
      <point x="520" y="1278" type="line"/>
      <point x="93" y="1054" type="line"/>
      <point x="90" y="1013" type="line"/>
      <point x="531" y="1242" type="line"/>
      <point x="545" y="1242" type="line"/>
    </contour>
  </outline>
</glyph>
<glyph name="at" format="2">
  <advance width="2052"/>
  <unicode hex="0040"/>
  <outline>
    <contour>
      <point x="974" y="86" type="curve" smooth="yes"/>
      <point x="1198" y="86"/>
      <point x="1351" y="217"/>
      <point x="1382" y="378" type="curve"/>
      <point x="1390" y="378" type="line"/>
      <point x="1380" y="424" type="line"/>
      <point x="1339" y="254"/>
      <point x="1181" y="120"/>
      <point x="988" y="120" type="curve" smooth="yes"/>
      <point x="789" y="120"/>
      <point x="674" y="214"/>
      <point x="674" y="415" type="curve" smooth="yes"/>
      <point x="674" y="418"/>
      <point x="674" y="420"/>
      <point x="674" y="423" type="curve" smooth="yes"/>
      <point x="677" y="680"/>
      <point x="809" y="853"/>
      <point x="1060" y="853" type="curve" smooth="yes"/>
      <point x="1233" y="853"/>
      <point x="1386" y="761"/>
      <point x="1386" y="550" type="curve" smooth="yes"/>
      <point x="1386" y="543"/>
      <point x="1386" y="536"/>
      <point x="1386" y="529" type="curve"/>
      <point x="1411" y="560" type="line"/>
      <point x="1399" y="560" type="line"/>
      <point x="1415" y="769"/>
      <point x="1271" y="887"/>
      <point x="1059" y="887" type="curve" smooth="yes"/>
      <point x="790" y="887"/>
      <point x="639" y="707"/>
      <point x="636" y="418" type="curve" smooth="yes"/>
      <point x="636" y="415"/>
      <point x="636" y="411"/>
      <point x="636" y="408" type="curve" smooth="yes"/>
      <point x="636" y="199"/>
      <point x="769" y="86"/>
    </contour>
    <contour>
      <point x="1338" y="107" type="line"/>
      <point x="1377" y="107" type="line"/>
      <point x="1455" y="866" type="line"/>
      <point x="1418" y="866" type="line"/>
      <point x="1417" y="859" type="line"/>
      <point x="1395" y="613" type="line"/>
      <point x="1393" y="596" type="line"/>
      <point x="1370" y="378" type="line"/>
      <point x="1370" y="367" type="line"/>
    </contour>
    <contour>
      <point x="1361" y="139" type="curve"/>
      <point x="1338" y="107" type="line"/>
      <point x="1369" y="101"/>
      <point x="1389" y="101"/>
      <point x="1433" y="101" type="curve" smooth="yes"/>
      <point x="1721" y="101"/>
      <point x="1916" y="252"/>
      <point x="1916" y="621" type="curve" smooth="yes"/>
      <point x="1916" y="623"/>
      <point x="1916" y="625"/>
      <point x="1916" y="627" type="curve" smooth="yes"/>
      <point x="1914" y="1059"/>
      <point x="1625" y="1299"/>
      <point x="1098" y="1299" type="curve" smooth="yes"/>
      <point x="494" y="1299"/>
      <point x="159" y="966"/>
      <point x="156" y="379" type="curve" smooth="yes"/>
      <point x="156" y="376"/>
      <point x="156" y="373"/>
      <point x="156" y="370" type="curve" smooth="yes"/>
      <point x="156" y="-99"/>
      <point x="447" y="-361"/>
      <point x="982" y="-361" type="curve" smooth="yes"/>
      <point x="1312" y="-361"/>
      <point x="1565" y="-290"/>
      <point x="1725" y="-158" type="curve"/>
      <point x="1733" y="-105" type="line"/>
      <point x="1580" y="-251"/>
      <point x="1327" y="-329"/>
      <point x="984" y="-329" type="curve" smooth="yes"/>
      <point x="468" y="-329"/>
      <point x="193" y="-79"/>
      <point x="193" y="371" type="curve" smooth="yes"/>
      <point x="193" y="373"/>
      <point x="193" y="376"/>
      <point x="193" y="378" type="curve" smooth="yes"/>
      <point x="196" y="952"/>
      <point x="513" y="1266"/>
      <point x="1096" y="1266" type="curve" smooth="yes"/>
      <point x="1603" y="1266"/>
      <point x="1876" y="1039"/>
      <point x="1879" y="628" type="curve" smooth="yes"/>
      <point x="1879" y="626"/>
      <point x="1879" y="623"/>
      <point x="1879" y="621" type="curve" smooth="yes"/>
      <point x="1879" y="272"/>
      <point x="1705" y="135"/>
      <point x="1430" y="135" type="curve" smooth="yes"/>
      <point x="1394" y="135"/>
      <point x="1378" y="137"/>
    </contour>
  </outline>
</glyph>
<glyph name="a" format="2">
  <advance width="1298"/>
  <unicode hex="0061"/>
  <anchor x="639" y="0" name="bottom"/>
  <anchor x="1168" y="0" name="ogonek"/>
  <anchor x="639" y="952" name="top"/>
  <outline>
    <contour>
      <point x="1082" y="0" type="line"/>
      <point x="1120" y="0" type="line"/>
      <point x="1120" y="584" type="line" smooth="yes"/>
      <point x="1120" y="828"/>
      <point x="971" y="977"/>
      <point x="659" y="977" type="curve" smooth="yes"/>
      <point x="410" y="977"/>
      <point x="251" y="891"/>
      <point x="173" y="834" type="curve"/>
      <point x="168" y="793" type="line"/>
      <point x="270" y="865"/>
      <point x="434" y="943"/>
      <point x="659" y="943" type="curve" smooth="yes"/>
      <point x="946" y="943"/>
      <point x="1083" y="812"/>
      <point x="1083" y="584" type="curve"/>
      <point x="1083" y="573" type="line"/>
      <point x="1083" y="333" type="line"/>
      <point x="1086" y="319" type="line"/>
    </contour>
    <contour>
      <point x="536" y="-25" type="curve" smooth="yes"/>
      <point x="889" y="-25"/>
      <point x="1083" y="171"/>
      <point x="1099" y="368" type="curve"/>
      <point x="1110" y="368" type="line"/>
      <point x="1092" y="397" type="line"/>
      <point x="1058" y="180"/>
      <point x="855" y="9"/>
      <point x="542" y="9" type="curve" smooth="yes"/>
      <point x="306" y="9"/>
      <point x="156" y="88"/>
      <point x="156" y="244" type="curve" smooth="yes"/>
      <point x="156" y="255" type="line" smooth="yes"/>
      <point x="156" y="417"/>
      <point x="285" y="479"/>
      <point x="613" y="502" type="curve" smooth="yes"/>
      <point x="1097" y="536" type="line"/>
      <point x="1097" y="566" type="line"/>
      <point x="608" y="533" type="line" smooth="yes"/>
      <point x="259" y="509"/>
      <point x="118" y="439"/>
      <point x="118" y="257" type="curve" smooth="yes"/>
      <point x="118" y="242" type="line" smooth="yes"/>
      <point x="118" y="66"/>
      <point x="278" y="-25"/>
    </contour>
  </outline>
</glyph>
<glyph name="VowelA.tm" format="2">
  <advance width="2682"/>
  <unicode hex="0B85"/>
  <note>
vowelA.tm
</note>
  <outline>
    <contour>
      <point x="1295" y="1151" type="curve" smooth="yes"/>
      <point x="883" y="1151"/>
      <point x="647" y="972"/>
      <point x="647" y="651" type="curve" smooth="yes"/>
      <point x="647" y="648" type="line" smooth="yes"/>
      <point x="647" y="399"/>
      <point x="783" y="251"/>
      <point x="1056" y="251" type="curve" smooth="yes"/>
      <point x="1301" y="251"/>
      <point x="1418" y="377"/>
      <point x="1418" y="563" type="curve" smooth="yes"/>
      <point x="1418" y="567" type="line" smooth="yes"/>
      <point x="1418" y="754"/>
      <point x="1301" y="861"/>
      <point x="1070" y="861" type="curve" smooth="yes"/>
      <point x="871" y="861"/>
      <point x="730" y="761"/>
      <point x="682" y="649" type="curve"/>
      <point x="670" y="649" type="line"/>
      <point x="670" y="561" type="line"/>
      <point x="704" y="706"/>
      <point x="858" y="827"/>
      <point x="1066" y="827" type="curve" smooth="yes"/>
      <point x="1281" y="827"/>
      <point x="1381" y="736"/>
      <point x="1381" y="567" type="curve" smooth="yes"/>
      <point x="1381" y="563" type="line" smooth="yes"/>
      <point x="1381" y="396"/>
      <point x="1277" y="285"/>
      <point x="1056" y="285" type="curve" smooth="yes"/>
      <point x="806" y="285"/>
      <point x="684" y="417"/>
      <point x="684" y="634" type="curve"/>
      <point x="684" y="649" type="line"/>
      <point x="682" y="649" type="line"/>
      <point x="682" y="944"/>
      <point x="901" y="1117"/>
      <point x="1295" y="1117" type="curve" smooth="yes"/>
      <point x="1752" y="1117"/>
      <point x="1927" y="930"/>
      <point x="1927" y="609" type="curve" smooth="yes"/>
      <point x="1927" y="586" type="line" smooth="yes"/>
      <point x="1927" y="172"/>
      <point x="1680" y="-39"/>
      <point x="1074" y="-39" type="curve" smooth="yes"/>
      <point x="1071" y="-39" type="line" smooth="yes"/>
      <point x="487" y="-39"/>
      <point x="140" y="156"/>
      <point x="140" y="549" type="curve" smooth="yes"/>
      <point x="140" y="553" type="line" smooth="yes"/>
      <point x="140" y="561"/>
      <point x="140" y="567"/>
      <point x="142" y="580" type="curve"/>
      <point x="660" y="580" type="line"/>
      <point x="660" y="612" type="line"/>
      <point x="106" y="612" type="line"/>
      <point x="104" y="598"/>
      <point x="102" y="576"/>
      <point x="102" y="558" type="curve" smooth="yes"/>
      <point x="102" y="553" type="line" smooth="yes"/>
      <point x="102" y="132"/>
      <point x="466" y="-74"/>
      <point x="1071" y="-74" type="curve" smooth="yes"/>
      <point x="1074" y="-74" type="line" smooth="yes"/>
      <point x="1711" y="-74"/>
      <point x="1965" y="153"/>
      <point x="1965" y="586" type="curve" smooth="yes"/>
      <point x="1965" y="609" type="line" smooth="yes"/>
      <point x="1965" y="954"/>
      <point x="1774" y="1151"/>
    </contour>
    <contour>
      <point x="1399" y="612" type="line"/>
      <point x="1399" y="580" type="line"/>
      <point x="1957" y="578" type="line"/>
      <point x="1957" y="610" type="line"/>
    </contour>
    <contour>
      <point x="1944" y="610" type="line"/>
      <point x="1944" y="578" type="line"/>
      <point x="2404" y="578" type="line"/>
      <point x="2404" y="610" type="line"/>
    </contour>
    <contour>
      <point x="2393" y="1105" type="line"/>
      <point x="2393" y="-64" type="line"/>
      <point x="2430" y="-64" type="line"/>
      <point x="2430" y="1105" type="line"/>
    </contour>
  </outline>
</glyph>
<glyph name="VowelIi.tm" format="2">
  <advance width="1636"/>
  <unicode hex="0B88"/>
  <note>
vowelIi.tm
</note>
  <outline>
    <contour>
      <point x="1091" y="0" type="line"/>
      <point x="1128" y="0" type="line"/>
      <point x="1128" y="1084" type="line"/>
      <point x="1091" y="1084" type="line"/>
    </contour>
    <contour>
      <point x="690" y="511" type="curve" smooth="yes"/>
      <point x="735" y="511"/>
      <point x="760" y="534"/>
      <point x="760" y="576" type="curve" smooth="yes"/>
      <point x="760" y="576" type="line" smooth="yes"/>
      <point x="760" y="617"/>
      <point x="732" y="639"/>
      <point x="690" y="639" type="curve" smooth="yes"/>
      <point x="648" y="639"/>
      <point x="620" y="617"/>
      <point x="620" y="576" type="curve" smooth="yes"/>
      <point x="620" y="576" type="line" smooth="yes"/>
      <point x="620" y="534"/>
      <point x="645" y="511"/>
    </contour>
    <contour>
      <point x="1500" y="511" type="curve" smooth="yes"/>
      <point x="1543" y="511"/>
      <point x="1570" y="534"/>
      <point x="1570" y="576" type="curve" smooth="yes"/>
      <point x="1570" y="576" type="line" smooth="yes"/>
      <point x="1570" y="617"/>
      <point x="1542" y="639"/>
      <point x="1500" y="639" type="curve" smooth="yes"/>
      <point x="1457" y="639"/>
      <point x="1429" y="617"/>
      <point x="1429" y="576" type="curve" smooth="yes"/>
      <point x="1429" y="576" type="line" smooth="yes"/>
      <point x="1429" y="534"/>
      <point x="1455" y="511"/>
    </contour>
    <contour>
      <point x="1168" y="1105" type="line"/>
      <point x="252" y="1105" type="line"/>
      <point x="252" y="0" type="line"/>
      <point x="289" y="0" type="line"/>
      <point x="289" y="1072" type="line"/>
      <point x="1168" y="1072" type="line"/>
    </contour>
    <component base="RaBeak_Nonexporting" xOffset="876"/>
  </outline>
</glyph>
<glyph name="VowelU.tm" format="2">
  <advance width="2255"/>
  <unicode hex="0B89"/>
  <note>
vowelU.tm
</note>
  <outline>
    <contour>
      <point x="861" y="1158" type="curve" smooth="yes"/>
      <point x="450" y="1158"/>
      <point x="231" y="1022"/>
      <point x="231" y="757" type="curve" smooth="yes"/>
      <point x="231" y="755" type="line" smooth="yes"/>
      <point x="231" y="576"/>
      <point x="351" y="467"/>
      <point x="603" y="467" type="curve" smooth="yes"/>
      <point x="833" y="467"/>
      <point x="935" y="564"/>
      <point x="935" y="704" type="curve" smooth="yes"/>
      <point x="935" y="708" type="line" smooth="yes"/>
      <point x="935" y="849"/>
      <point x="828" y="931"/>
      <point x="629" y="931" type="curve" smooth="yes"/>
      <point x="448" y="931"/>
      <point x="314" y="850"/>
      <point x="268" y="754" type="curve"/>
      <point x="256" y="754" type="line"/>
      <point x="256" y="671" type="line"/>
      <point x="284" y="795"/>
      <point x="432" y="898"/>
      <point x="625" y="898" type="curve" smooth="yes"/>
      <point x="812" y="898"/>
      <point x="898" y="832"/>
      <point x="898" y="708" type="curve" smooth="yes"/>
      <point x="898" y="704" type="line" smooth="yes"/>
      <point x="898" y="582"/>
      <point x="808" y="500"/>
      <point x="603" y="500" type="curve" smooth="yes"/>
      <point x="381" y="500"/>
      <point x="270" y="595"/>
      <point x="270" y="743" type="curve"/>
      <point x="270" y="754" type="line"/>
      <point x="268" y="754" type="line"/>
      <point x="268" y="998"/>
      <point x="466" y="1124"/>
      <point x="859" y="1124" type="curve" smooth="yes"/>
      <point x="1276" y="1124"/>
      <point x="1440" y="993"/>
      <point x="1440" y="750" type="curve" smooth="yes"/>
      <point x="1440" y="743" type="line" smooth="yes"/>
      <point x="1440" y="489"/>
      <point x="1316" y="366"/>
      <point x="933" y="348" type="curve" smooth="yes"/>
      <point x="391" y="322" type="line" smooth="yes"/>
      <point x="241" y="315"/>
      <point x="190" y="255"/>
      <point x="190" y="155" type="curve" smooth="yes"/>
      <point x="190" y="99"/>
      <point x="213" y="39"/>
      <point x="238" y="0" type="curve"/>
      <point x="2209" y="0" type="line"/>
      <point x="2223" y="33" type="line"/>
      <point x="260" y="33" type="line"/>
      <point x="240" y="71"/>
      <point x="227" y="113"/>
      <point x="227" y="155" type="curve" smooth="yes"/>
      <point x="227" y="241"/>
      <point x="270" y="284"/>
      <point x="396" y="290" type="curve" smooth="yes"/>
      <point x="935" y="315" type="line" smooth="yes"/>
      <point x="1339" y="334"/>
      <point x="1478" y="473"/>
      <point x="1478" y="743" type="curve" smooth="yes"/>
      <point x="1478" y="750" type="line" smooth="yes"/>
      <point x="1478" y="1014"/>
      <point x="1297" y="1158"/>
    </contour>
  </outline>
</glyph>
<glyph name="VowelUu.tm" format="2">
  <advance width="3990"/>
  <unicode hex="0B8A"/>
  <note>
vowelUu.tm
</note>
  <outline>
    <contour>
      <point x="1177" y="0" type="line"/>
      <point x="3926" y="0" type="line"/>
      <point x="3940" y="32" type="line"/>
      <point x="1177" y="32" type="line"/>
    </contour>
    <contour>
      <point x="3556" y="1088" type="line"/>
      <point x="3556" y="226" type="line"/>
      <point x="3593" y="226" type="line"/>
      <point x="3593" y="1088" type="line"/>
    </contour>
    <contour>
      <point x="2342" y="1126" type="curve" smooth="yes"/>
      <point x="1960" y="1126"/>
      <point x="1759" y="947"/>
      <point x="1759" y="605" type="curve" smooth="yes"/>
      <point x="1759" y="599" type="line" smooth="yes"/>
      <point x="1759" y="358"/>
      <point x="1886" y="210"/>
      <point x="2157" y="210" type="curve" smooth="yes"/>
      <point x="2400" y="210"/>
      <point x="2518" y="332"/>
      <point x="2518" y="515" type="curve" smooth="yes"/>
      <point x="2518" y="518" type="line" smooth="yes"/>
      <point x="2518" y="703"/>
      <point x="2402" y="806"/>
      <point x="2173" y="806" type="curve" smooth="yes"/>
      <point x="1977" y="806"/>
      <point x="1838" y="709"/>
      <point x="1791" y="600" type="curve"/>
      <point x="1783" y="600" type="line"/>
      <point x="1782" y="515" type="line"/>
      <point x="1814" y="654"/>
      <point x="1965" y="772"/>
      <point x="2170" y="772" type="curve" smooth="yes"/>
      <point x="2379" y="772"/>
      <point x="2481" y="683"/>
      <point x="2481" y="518" type="curve" smooth="yes"/>
      <point x="2481" y="515" type="line" smooth="yes"/>
      <point x="2481" y="352"/>
      <point x="2375" y="244"/>
      <point x="2157" y="244" type="curve" smooth="yes"/>
      <point x="1909" y="244"/>
      <point x="1793" y="379"/>
      <point x="1793" y="578" type="curve"/>
      <point x="1793" y="600" type="line"/>
      <point x="1791" y="600" type="line"/>
      <point x="1791" y="601"/>
      <point x="1791" y="602"/>
      <point x="1791" y="603" type="curve" smooth="yes"/>
      <point x="1791" y="924"/>
      <point x="1979" y="1092"/>
      <point x="2342" y="1092" type="curve" smooth="yes"/>
      <point x="2719" y="1092"/>
      <point x="2863" y="921"/>
      <point x="2863" y="593" type="curve" smooth="yes"/>
      <point x="2863" y="226" type="line"/>
      <point x="2900" y="226" type="line"/>
      <point x="2900" y="1072" type="line"/>
      <point x="3940" y="1072" type="line"/>
      <point x="3930" y="1105" type="line"/>
      <point x="2863" y="1105" type="line"/>
      <point x="2870" y="760" type="line"/>
      <point x="2868" y="760" type="line"/>
      <point x="2845" y="935"/>
      <point x="2726" y="1126"/>
    </contour>
    <component base="VowelU.tm"/>
  </outline>
</glyph>
<glyph name="VowelE.tm" format="2">
  <advance width="1829"/>
  <unicode hex="0B8E"/>
  <note>
vowelE.tm
</note>
  <outline>
    <contour>
      <point x="982" y="1072" type="line"/>
      <point x="1833" y="1072" type="line"/>
      <point x="1821" y="1105" type="line"/>
      <point x="982" y="1105" type="line"/>
    </contour>
    <contour>
      <point x="1432" y="1084" type="line"/>
      <point x="1432" y="0" type="line"/>
      <point x="1469" y="0" type="line"/>
      <point x="1469" y="1084" type="line"/>
    </contour>
    <component base="VowelE_NonExporting" xOffset="10"/>
  </outline>
</glyph>
<glyph name="VowelAi.tm" format="2">
  <advance width="2359"/>
  <unicode hex="0B90"/>
  <note>
vowelAi.tm
</note>
  <guideline x="3027" y="-2040" angle="180"/>
  <outline>
    <contour>
      <point x="787" y="1151" type="curve" smooth="yes"/>
      <point x="387" y="1151"/>
      <point x="174" y="974"/>
      <point x="174" y="690" type="curve" smooth="yes"/>
      <point x="174" y="687" type="line" smooth="yes"/>
      <point x="174" y="472"/>
      <point x="309" y="341"/>
      <point x="579" y="341" type="curve" smooth="yes"/>
      <point x="824" y="341"/>
      <point x="948" y="453"/>
      <point x="948" y="627" type="curve" smooth="yes"/>
      <point x="948" y="632" type="line" smooth="yes"/>
      <point x="948" y="796"/>
      <point x="830" y="899"/>
      <point x="600" y="899" type="curve" smooth="yes"/>
      <point x="404" y="899"/>
      <point x="261" y="806"/>
      <point x="211" y="700" type="curve"/>
      <point x="200" y="700" type="line"/>
      <point x="200" y="611" type="line"/>
      <point x="234" y="749"/>
      <point x="389" y="865"/>
      <point x="596" y="865" type="curve" smooth="yes"/>
      <point x="811" y="865"/>
      <point x="910" y="775"/>
      <point x="910" y="632" type="curve" smooth="yes"/>
      <point x="910" y="627" type="line" smooth="yes"/>
      <point x="910" y="477"/>
      <point x="802" y="375"/>
      <point x="579" y="375" type="curve" smooth="yes"/>
      <point x="334" y="375"/>
      <point x="213" y="494"/>
      <point x="213" y="676" type="curve"/>
      <point x="213" y="700" type="line"/>
      <point x="211" y="700" type="line"/>
      <point x="213" y="961"/>
      <point x="423" y="1117"/>
      <point x="787" y="1117" type="curve" smooth="yes"/>
      <point x="1199" y="1117"/>
      <point x="1350" y="949"/>
      <point x="1350" y="632" type="curve" smooth="yes"/>
      <point x="1350" y="440" type="line"/>
      <point x="1387" y="440" type="line"/>
      <point x="1387" y="676" type="line" smooth="yes"/>
      <point x="1387" y="995"/>
      <point x="1545" y="1101"/>
      <point x="1767" y="1101" type="curve" smooth="yes"/>
      <point x="2042" y="1101"/>
      <point x="2141" y="949"/>
      <point x="2141" y="708" type="curve" smooth="yes"/>
      <point x="2141" y="702" type="line" smooth="yes"/>
      <point x="2141" y="412"/>
      <point x="2005" y="265"/>
      <point x="1564" y="250" type="curve" smooth="yes"/>
      <point x="786" y="224" type="line" smooth="yes"/>
      <point x="357" y="210"/>
      <point x="207" y="62"/>
      <point x="207" y="-171" type="curve" smooth="yes"/>
      <point x="207" y="-176" type="line" smooth="yes"/>
      <point x="207" y="-426"/>
      <point x="371" y="-583"/>
      <point x="735" y="-583" type="curve" smooth="yes"/>
      <point x="1059" y="-583"/>
      <point x="1226" y="-433"/>
      <point x="1230" y="-169" type="curve"/>
      <point x="1232" y="-169" type="line"/>
      <point x="1233" y="-431"/>
      <point x="1394" y="-583"/>
      <point x="1702" y="-583" type="curve" smooth="yes"/>
      <point x="2018" y="-583"/>
      <point x="2145" y="-408"/>
      <point x="2145" y="-127" type="curve" smooth="yes"/>
      <point x="2145" y="-40"/>
      <point x="2133" y="44"/>
      <point x="2099" y="118" type="curve"/>
      <point x="2059" y="127" type="line"/>
      <point x="2092" y="44"/>
      <point x="2106" y="-46"/>
      <point x="2106" y="-127" type="curve" smooth="yes"/>
      <point x="2106" y="-385"/>
      <point x="1997" y="-549"/>
      <point x="1700" y="-549" type="curve" smooth="yes"/>
      <point x="1429" y="-549"/>
      <point x="1248" y="-436"/>
      <point x="1248" y="-95" type="curve" smooth="yes"/>
      <point x="1248" y="26" type="line"/>
      <point x="1211" y="26" type="line"/>
      <point x="1211" y="-97" type="line" smooth="yes"/>
      <point x="1211" y="-436"/>
      <point x="1019" y="-549"/>
      <point x="737" y="-549" type="curve" smooth="yes"/>
      <point x="391" y="-549"/>
      <point x="245" y="-403"/>
      <point x="245" y="-176" type="curve" smooth="yes"/>
      <point x="245" y="-171" type="line" smooth="yes"/>
      <point x="245" y="39"/>
      <point x="379" y="179"/>
      <point x="790" y="192" type="curve" smooth="yes"/>
      <point x="1568" y="216" type="line" smooth="yes"/>
      <point x="2040" y="231"/>
      <point x="2179" y="394"/>
      <point x="2179" y="704" type="curve" smooth="yes"/>
      <point x="2179" y="709" type="line" smooth="yes"/>
      <point x="2179" y="972"/>
      <point x="2061" y="1135"/>
      <point x="1768" y="1135" type="curve" smooth="yes"/>
      <point x="1510" y="1135"/>
      <point x="1378" y="994"/>
      <point x="1367" y="757" type="curve"/>
      <point x="1365" y="757" type="line"/>
      <point x="1333" y="1012"/>
      <point x="1159" y="1151"/>
    </contour>
  </outline>
</glyph>
<glyph name="VowelO.tm" format="2">
  <advance width="2280"/>
  <unicode hex="0B92"/>
  <note>
vowelO.tm
</note>
  <outline>
    <contour>
      <point x="1150" y="1197" type="curve" smooth="yes"/>
      <point x="509" y="1197"/>
      <point x="168" y="974"/>
      <point x="168" y="545" type="curve" smooth="yes"/>
      <point x="168" y="542" type="line" smooth="yes"/>
      <point x="168" y="259"/>
      <point x="314" y="83"/>
      <point x="611" y="83" type="curve" smooth="yes"/>
      <point x="873" y="83"/>
      <point x="998" y="220"/>
      <point x="998" y="424" type="curve" smooth="yes"/>
      <point x="998" y="429" type="line" smooth="yes"/>
      <point x="998" y="635"/>
      <point x="873" y="751"/>
      <point x="625" y="751" type="curve" smooth="yes"/>
      <point x="412" y="751"/>
      <point x="258" y="651"/>
      <point x="205" y="537" type="curve"/>
      <point x="194" y="537" type="line"/>
      <point x="194" y="447" type="line"/>
      <point x="229" y="593"/>
      <point x="397" y="716"/>
      <point x="622" y="716" type="curve" smooth="yes"/>
      <point x="851" y="716"/>
      <point x="960" y="614"/>
      <point x="960" y="429" type="curve" smooth="yes"/>
      <point x="960" y="424" type="line" smooth="yes"/>
      <point x="960" y="240"/>
      <point x="847" y="117"/>
      <point x="611" y="117" type="curve" smooth="yes"/>
      <point x="340" y="117"/>
      <point x="207" y="281"/>
      <point x="207" y="517" type="curve"/>
      <point x="207" y="537" type="line"/>
      <point x="205" y="537" type="line"/>
      <point x="203" y="950"/>
      <point x="526" y="1162"/>
      <point x="1150" y="1162" type="curve" smooth="yes"/>
      <point x="1813" y="1162"/>
      <point x="2056" y="918"/>
      <point x="2056" y="560" type="curve" smooth="yes"/>
      <point x="2056" y="547" type="line" smooth="yes"/>
      <point x="2056" y="294"/>
      <point x="1956" y="153"/>
      <point x="1708" y="153" type="curve" smooth="yes"/>
      <point x="1445" y="153"/>
      <point x="1339" y="278"/>
      <point x="1339" y="503" type="curve" smooth="yes"/>
      <point x="1339" y="581"/>
      <point x="1345" y="651"/>
      <point x="1358" y="715" type="curve"/>
      <point x="1321" y="715" type="line"/>
      <point x="1308" y="655"/>
      <point x="1300" y="584"/>
      <point x="1300" y="502" type="curve" smooth="yes"/>
      <point x="1300" y="257"/>
      <point x="1423" y="120"/>
      <point x="1710" y="120" type="curve"/>
      <point x="1738" y="120"/>
      <point x="1768" y="123"/>
      <point x="1796" y="130" type="curve"/>
      <point x="2007" y="155"/>
      <point x="2095" y="308"/>
      <point x="2095" y="547" type="curve" smooth="yes"/>
      <point x="2095" y="560" type="line" smooth="yes"/>
      <point x="2095" y="936"/>
      <point x="1836" y="1197"/>
    </contour>
    <contour>
      <point x="2116" y="132" type="line"/>
      <point x="1761" y="132" type="line"/>
      <point x="1745" y="123" type="line"/>
      <point x="1745" y="120" type="line"/>
      <point x="1664" y="95"/>
      <point x="1625" y="39"/>
      <point x="1613" y="-86" type="curve" smooth="yes"/>
      <point x="1606" y="-160" type="line" smooth="yes"/>
      <point x="1578" y="-451"/>
      <point x="1461" y="-576"/>
      <point x="1192" y="-576" type="curve" smooth="yes"/>
      <point x="915" y="-576"/>
      <point x="758" y="-444"/>
      <point x="758" y="-151" type="curve" smooth="yes"/>
      <point x="758" y="-127"/>
      <point x="761" y="-92"/>
      <point x="763" y="-79" type="curve"/>
      <point x="724" y="-92" type="line"/>
      <point x="722" y="-104"/>
      <point x="721" y="-130"/>
      <point x="721" y="-151" type="curve" smooth="yes"/>
      <point x="721" y="-468"/>
      <point x="893" y="-611"/>
      <point x="1192" y="-611" type="curve" smooth="yes"/>
      <point x="1484" y="-611"/>
      <point x="1616" y="-477"/>
      <point x="1643" y="-167" type="curve" smooth="yes"/>
      <point x="1650" y="-86" type="line" smooth="yes"/>
      <point x="1659" y="16"/>
      <point x="1696" y="99"/>
      <point x="1826" y="99" type="curve" smooth="yes"/>
      <point x="2102" y="99" type="line"/>
    </contour>
  </outline>
</glyph>
<glyph name="Ka.tm" format="2">
  <advance width="2030"/>
  <unicode hex="0B95"/>
  <note>
Ka.tm
</note>
  <anchor x="1175" y="1253" name="top"/>
  <outline>
    <contour>
      <point x="1184" y="593" type="line"/>
      <point x="1515" y="593" type="line" smooth="yes"/>
      <point x="1749" y="593"/>
      <point x="1853" y="510"/>
      <point x="1853" y="326" type="curve" smooth="yes"/>
      <point x="1853" y="320" type="line" smooth="yes"/>
      <point x="1853" y="147"/>
      <point x="1772" y="12"/>
      <point x="1496" y="12" type="curve" smooth="yes"/>
      <point x="1314" y="12"/>
      <point x="1198" y="43"/>
      <point x="1077" y="103" type="curve"/>
      <point x="1073" y="102" type="line"/>
      <point x="1091" y="58" type="line"/>
      <point x="1172" y="19"/>
      <point x="1304" y="-23"/>
      <point x="1494" y="-23" type="curve" smooth="yes"/>
      <point x="1797" y="-23"/>
      <point x="1892" y="125"/>
      <point x="1892" y="320" type="curve" smooth="yes"/>
      <point x="1892" y="326" type="line" smooth="yes"/>
      <point x="1892" y="532"/>
      <point x="1772" y="625"/>
      <point x="1517" y="625" type="curve" smooth="yes"/>
      <point x="1184" y="625" type="line"/>
    </contour>
    <component base="KaComponent_Nonexporting" xOffset="63"/>
    <component base="KaBeak_Nonexporting" xOffset="1279"/>
  </outline>
</glyph>
<glyph name="Ja.tm" format="2">
  <advance width="2359"/>
  <unicode hex="0B9C"/>
  <note>
Ja.tm
</note>
  <anchor x="1345" y="1253" name="top"/>
  <outline>
    <contour>
      <point x="787" y="1151" type="curve" smooth="yes"/>
      <point x="387" y="1151"/>
      <point x="174" y="974"/>
      <point x="174" y="690" type="curve" smooth="yes"/>
      <point x="174" y="687" type="line" smooth="yes"/>
      <point x="174" y="472"/>
      <point x="309" y="341"/>
      <point x="579" y="341" type="curve" smooth="yes"/>
      <point x="824" y="341"/>
      <point x="948" y="453"/>
      <point x="948" y="627" type="curve" smooth="yes"/>
      <point x="948" y="632" type="line" smooth="yes"/>
      <point x="948" y="796"/>
      <point x="830" y="899"/>
      <point x="600" y="899" type="curve" smooth="yes"/>
      <point x="404" y="899"/>
      <point x="261" y="806"/>
      <point x="211" y="700" type="curve"/>
      <point x="200" y="700" type="line"/>
      <point x="200" y="611" type="line"/>
      <point x="234" y="749"/>
      <point x="389" y="865"/>
      <point x="596" y="865" type="curve" smooth="yes"/>
      <point x="811" y="865"/>
      <point x="910" y="775"/>
      <point x="910" y="632" type="curve" smooth="yes"/>
      <point x="910" y="627" type="line" smooth="yes"/>
      <point x="910" y="477"/>
      <point x="802" y="375"/>
      <point x="579" y="375" type="curve" smooth="yes"/>
      <point x="334" y="375"/>
      <point x="213" y="494"/>
      <point x="213" y="676" type="curve"/>
      <point x="213" y="700" type="line"/>
      <point x="211" y="700" type="line"/>
      <point x="213" y="961"/>
      <point x="423" y="1117"/>
      <point x="787" y="1117" type="curve" smooth="yes"/>
      <point x="1199" y="1117"/>
      <point x="1350" y="949"/>
      <point x="1350" y="632" type="curve" smooth="yes"/>
      <point x="1350" y="440" type="line"/>
      <point x="1387" y="440" type="line"/>
      <point x="1387" y="676" type="line" smooth="yes"/>
      <point x="1387" y="995"/>
      <point x="1553" y="1101"/>
      <point x="1777" y="1101" type="curve" smooth="yes"/>
      <point x="2035" y="1101"/>
      <point x="2141" y="955"/>
      <point x="2141" y="724" type="curve" smooth="yes"/>
      <point x="2141" y="718" type="line" smooth="yes"/>
      <point x="2141" y="451"/>
      <point x="1989" y="311"/>
      <point x="1544" y="282" type="curve" smooth="yes"/>
      <point x="797" y="234" type="line" smooth="yes"/>
      <point x="361" y="206"/>
      <point x="207" y="64"/>
      <point x="207" y="-180" type="curve" smooth="yes"/>
      <point x="207" y="-185" type="line" smooth="yes"/>
      <point x="207" y="-399"/>
      <point x="338" y="-539"/>
      <point x="589" y="-539" type="curve" smooth="yes"/>
      <point x="825" y="-539"/>
      <point x="939" y="-426"/>
      <point x="1087" y="-300" type="curve" smooth="yes"/>
      <point x="1328" y="-94" type="line" smooth="yes"/>
      <point x="1478" y="35"/>
      <point x="1615" y="126"/>
      <point x="1812" y="126" type="curve" smooth="yes"/>
      <point x="2032" y="126"/>
      <point x="2139" y="0"/>
      <point x="2139" y="-179" type="curve" smooth="yes"/>
      <point x="2139" y="-185" type="line" smooth="yes"/>
      <point x="2139" y="-394"/>
      <point x="2018" y="-504"/>
      <point x="1756" y="-504" type="curve" smooth="yes"/>
      <point x="1628" y="-504"/>
      <point x="1503" y="-478"/>
      <point x="1381" y="-430" type="curve"/>
      <point x="1394" y="-470" type="line"/>
      <point x="1510" y="-514"/>
      <point x="1633" y="-539"/>
      <point x="1758" y="-539" type="curve" smooth="yes"/>
      <point x="2038" y="-539"/>
      <point x="2177" y="-416"/>
      <point x="2177" y="-185" type="curve" smooth="yes"/>
      <point x="2177" y="-179" type="line" smooth="yes"/>
      <point x="2177" y="29"/>
      <point x="2058" y="160"/>
      <point x="1812" y="160" type="curve" smooth="yes"/>
      <point x="1605" y="160"/>
      <point x="1460" y="65"/>
      <point x="1304" y="-68" type="curve" smooth="yes"/>
      <point x="1063" y="-274" type="line" smooth="yes"/>
      <point x="920" y="-396"/>
      <point x="802" y="-505"/>
      <point x="591" y="-505" type="curve" smooth="yes"/>
      <point x="356" y="-505"/>
      <point x="245" y="-380"/>
      <point x="245" y="-185" type="curve" smooth="yes"/>
      <point x="245" y="-180" type="line" smooth="yes"/>
      <point x="245" y="41"/>
      <point x="381" y="176"/>
      <point x="800" y="202" type="curve" smooth="yes"/>
      <point x="1548" y="249" type="line" smooth="yes"/>
      <point x="2021" y="279"/>
      <point x="2179" y="437"/>
      <point x="2179" y="720" type="curve" smooth="yes"/>
      <point x="2179" y="725" type="line" smooth="yes"/>
      <point x="2179" y="978"/>
      <point x="2054" y="1135"/>
      <point x="1778" y="1135" type="curve" smooth="yes"/>
      <point x="1518" y="1135"/>
      <point x="1378" y="994"/>
      <point x="1367" y="757" type="curve"/>
      <point x="1365" y="757" type="line"/>
      <point x="1333" y="1012"/>
      <point x="1159" y="1151"/>
    </contour>
  </outline>
</glyph>
<glyph name="Tta.tm" format="2">
  <advance width="1980"/>
  <unicode hex="0B9F"/>
  <note>
Tta.tm
</note>
  <anchor x="1077" y="1253" name="top"/>
  <outline>
    <contour>
      <point x="289" y="1105" type="line"/>
      <point x="252" y="1105" type="line"/>
      <point x="252" y="0" type="line"/>
      <point x="1936" y="0" type="line"/>
      <point x="1948" y="34" type="line"/>
      <point x="289" y="34" type="line"/>
    </contour>
  </outline>
</glyph>
<glyph name="Ta.tm" format="2">
  <advance width="1994"/>
  <unicode hex="0BA4"/>
  <note>
Ta.tm
</note>
  <anchor x="1175" y="1253" name="top"/>
  <outline>
    <contour>
      <point x="1182" y="593" type="line"/>
      <point x="1253" y="593" type="line" smooth="yes"/>
      <point x="1650" y="593"/>
      <point x="1817" y="479"/>
      <point x="1817" y="180" type="curve" smooth="yes"/>
      <point x="1817" y="176" type="line" smooth="yes"/>
      <point x="1817" y="-224"/>
      <point x="1620" y="-352"/>
      <point x="1050" y="-352" type="curve" smooth="yes"/>
      <point x="565" y="-352" type="line"/>
      <point x="577" y="-385" type="line"/>
      <point x="1052" y="-385" type="line" smooth="yes"/>
      <point x="1642" y="-385"/>
      <point x="1856" y="-243"/>
      <point x="1856" y="176" type="curve" smooth="yes"/>
      <point x="1856" y="180" type="line" smooth="yes"/>
      <point x="1856" y="495"/>
      <point x="1677" y="625"/>
      <point x="1260" y="625" type="curve" smooth="yes"/>
      <point x="1182" y="625" type="line"/>
    </contour>
    <component base="Tail_NonExporting" xOffset="23"/>
    <component base="KaComponent_Nonexporting" xOffset="63"/>
    <component base="KaBeak_Nonexporting" xOffset="1279"/>
  </outline>
</glyph>
<glyph name="Na.tm" format="2">
  <advance width="1992"/>
  <unicode hex="0BA8"/>
  <note>
Na.tm
</note>
  <anchor x="1020" y="1253" name="top"/>
  <outline>
    <contour>
      <point x="1001" y="1084" type="line"/>
      <point x="1001" y="0" type="line"/>
      <point x="1038" y="0" type="line"/>
      <point x="1038" y="1084" type="line"/>
    </contour>
    <contour>
      <point x="1441" y="695" type="curve" smooth="yes"/>
      <point x="1223" y="695"/>
      <point x="1082" y="575"/>
      <point x="1038" y="417" type="curve"/>
      <point x="1024" y="417" type="line"/>
      <point x="1024" y="334" type="line"/>
      <point x="1031" y="334" type="line"/>
      <point x="1086" y="549"/>
      <point x="1234" y="660"/>
      <point x="1440" y="660" type="curve" smooth="yes"/>
      <point x="1703" y="660"/>
      <point x="1805" y="516"/>
      <point x="1805" y="245" type="curve" smooth="yes"/>
      <point x="1805" y="236" type="line" smooth="yes"/>
      <point x="1805" y="-204"/>
      <point x="1592" y="-352"/>
      <point x="952" y="-352" type="curve" smooth="yes"/>
      <point x="517" y="-352" type="line"/>
      <point x="532" y="-385" type="line"/>
      <point x="956" y="-385" type="line" smooth="yes"/>
      <point x="1619" y="-385"/>
      <point x="1844" y="-216"/>
      <point x="1844" y="236" type="curve" smooth="yes"/>
      <point x="1844" y="245" type="line" smooth="yes"/>
      <point x="1844" y="538"/>
      <point x="1727" y="695"/>
    </contour>
    <contour>
      <point x="1270" y="1105" type="line"/>
      <point x="252" y="1105" type="line"/>
      <point x="252" y="0" type="line"/>
      <point x="289" y="0" type="line"/>
      <point x="289" y="1072" type="line"/>
      <point x="1270" y="1072" type="line"/>
    </contour>
    <component base="Tail_NonExporting"/>
    <component base="RaBeak_Nonexporting" xOffset="990"/>
  </outline>
</glyph>
<glyph name="Ma.tm" format="2">
  <advance width="2090"/>
  <unicode hex="0BAE"/>
  <note>
Ma.tm
</note>
  <anchor x="1043" y="1253" name="top"/>
  <outline>
    <contour>
      <point x="252" y="1105" type="line"/>
      <point x="252" y="0" type="line"/>
      <point x="1252" y="0" type="line" smooth="yes"/>
      <point x="1733" y="0"/>
      <point x="1904" y="157"/>
      <point x="1904" y="570" type="curve" smooth="yes"/>
      <point x="1904" y="583" type="line" smooth="yes"/>
      <point x="1904" y="931"/>
      <point x="1735" y="1105"/>
      <point x="1303" y="1105" type="curve" smooth="yes"/>
      <point x="1024" y="1105" type="line"/>
      <point x="1024" y="21" type="line"/>
      <point x="1061" y="21" type="line"/>
      <point x="1061" y="1072" type="line"/>
      <point x="1301" y="1072" type="line" smooth="yes"/>
      <point x="1718" y="1072"/>
      <point x="1865" y="906"/>
      <point x="1865" y="583" type="curve" smooth="yes"/>
      <point x="1865" y="570" type="line" smooth="yes"/>
      <point x="1865" y="181"/>
      <point x="1719" y="33"/>
      <point x="1250" y="33" type="curve" smooth="yes"/>
      <point x="289" y="33" type="line"/>
      <point x="289" y="1105" type="line"/>
    </contour>
  </outline>
</glyph>
<glyph name="Ya.tm" format="2">
  <advance width="2509"/>
  <unicode hex="0BAF"/>
  <note>
Ya.tm
</note>
  <anchor x="989" y="1253" name="top"/>
  <outline>
    <contour>
      <point x="2220" y="1105" type="line"/>
      <point x="2220" y="34" type="line"/>
      <point x="1810" y="34" type="line"/>
      <point x="1810" y="0" type="line"/>
      <point x="2257" y="0" type="line"/>
      <point x="2257" y="1105" type="line"/>
    </contour>
    <contour>
      <point x="1870" y="0" type="line"/>
      <point x="1870" y="34" type="line"/>
      <point x="1008" y="34" type="line"/>
      <point x="1008" y="1105" type="line"/>
      <point x="971" y="1105" type="line"/>
      <point x="971" y="484" type="line" smooth="yes"/>
      <point x="971" y="150"/>
      <point x="862" y="15"/>
      <point x="613" y="15" type="curve" smooth="yes"/>
      <point x="408" y="15"/>
      <point x="289" y="136"/>
      <point x="289" y="409" type="curve" smooth="yes"/>
      <point x="289" y="1105" type="line"/>
      <point x="252" y="1105" type="line"/>
      <point x="252" y="409" type="line" smooth="yes"/>
      <point x="252" y="116"/>
      <point x="387" y="-20"/>
      <point x="613" y="-20" type="curve" smooth="yes"/>
      <point x="840" y="-20"/>
      <point x="953" y="97"/>
      <point x="978" y="317" type="curve"/>
      <point x="980" y="317" type="line"/>
      <point x="973" y="0" type="line"/>
    </contour>
  </outline>
</glyph>
<glyph name="Ra.tm" format="2">
  <advance width="1427"/>
  <unicode hex="0BB0"/>
  <note>
Ra.tm
</note>
  <anchor x="660" y="1253" name="top"/>
  <outline>
    <contour>
      <point x="1067" y="1084" type="line"/>
      <point x="1030" y="1084" type="line"/>
      <point x="1030" y="-215" type="line"/>
      <point x="172" y="-313" type="line"/>
      <point x="172" y="-345" type="line"/>
      <point x="1067" y="-246" type="line"/>
    </contour>
    <contour>
      <point x="1061" y="1105" type="line"/>
      <point x="252" y="1105" type="line"/>
      <point x="252" y="0" type="line"/>
      <point x="289" y="0" type="line"/>
      <point x="289" y="1072" type="line"/>
      <point x="1061" y="1072" type="line"/>
    </contour>
    <component base="RaBeak_Nonexporting" xOffset="797"/>
  </outline>
</glyph>
<glyph name="La.tm" format="2">
  <advance width="2446"/>
  <unicode hex="0BB2"/>
  <note>
La.tm
</note>
  <anchor x="1370" y="1253" name="top"/>
  <outline>
    <contour>
      <point x="836" y="1125" type="curve" smooth="yes"/>
      <point x="405" y="1125"/>
      <point x="185" y="905"/>
      <point x="185" y="475" type="curve" smooth="yes"/>
      <point x="185" y="459" type="line" smooth="yes"/>
      <point x="185" y="162"/>
      <point x="330" y="-21"/>
      <point x="640" y="-21" type="curve" smooth="yes"/>
      <point x="913" y="-21"/>
      <point x="1044" y="120"/>
      <point x="1044" y="329" type="curve" smooth="yes"/>
      <point x="1044" y="334" type="line" smooth="yes"/>
      <point x="1044" y="547"/>
      <point x="915" y="667"/>
      <point x="657" y="667" type="curve" smooth="yes"/>
      <point x="435" y="667"/>
      <point x="277" y="560"/>
      <point x="223" y="438" type="curve"/>
      <point x="212" y="438" type="line"/>
      <point x="212" y="347" type="line"/>
      <point x="249" y="502"/>
      <point x="414" y="632"/>
      <point x="654" y="632" type="curve" smooth="yes"/>
      <point x="893" y="632"/>
      <point x="1006" y="526"/>
      <point x="1006" y="334" type="curve" smooth="yes"/>
      <point x="1006" y="329" type="line" smooth="yes"/>
      <point x="1006" y="140"/>
      <point x="888" y="13"/>
      <point x="640" y="13" type="curve" smooth="yes"/>
      <point x="356" y="13"/>
      <point x="224" y="184"/>
      <point x="224" y="435" type="curve"/>
      <point x="224" y="438" type="line"/>
      <point x="222" y="438" type="line"/>
      <point x="222" y="451"/>
      <point x="222" y="460"/>
      <point x="222" y="473" type="curve" smooth="yes"/>
      <point x="222" y="883"/>
      <point x="428" y="1090"/>
      <point x="836" y="1090" type="curve" smooth="yes"/>
      <point x="1256" y="1090"/>
      <point x="1390" y="871"/>
      <point x="1390" y="484" type="curve" smooth="yes"/>
      <point x="1390" y="482" type="line" smooth="yes"/>
      <point x="1390" y="151"/>
      <point x="1532" y="-20"/>
      <point x="1828" y="-20" type="curve" smooth="yes"/>
      <point x="2122" y="-20"/>
      <point x="2256" y="170"/>
      <point x="2256" y="524" type="curve" smooth="yes"/>
      <point x="2256" y="540" type="line" smooth="yes"/>
      <point x="2256" y="899"/>
      <point x="2133" y="1125"/>
      <point x="1735" y="1125" type="curve" smooth="yes"/>
      <point x="1684" y="1125"/>
      <point x="1634" y="1120"/>
      <point x="1596" y="1113" type="curve"/>
      <point x="1581" y="1077" type="line"/>
      <point x="1628" y="1085"/>
      <point x="1678" y="1090"/>
      <point x="1737" y="1090" type="curve" smooth="yes"/>
      <point x="2112" y="1090"/>
      <point x="2217" y="875"/>
      <point x="2217" y="540" type="curve" smooth="yes"/>
      <point x="2217" y="524" type="line" smooth="yes"/>
      <point x="2217" y="197"/>
      <point x="2106" y="15"/>
      <point x="1828" y="15" type="curve" smooth="yes"/>
      <point x="1551" y="15"/>
      <point x="1428" y="171"/>
      <point x="1428" y="488" type="curve" smooth="yes"/>
      <point x="1428" y="489" type="line" smooth="yes"/>
      <point x="1428" y="891"/>
      <point x="1274" y="1125"/>
    </contour>
  </outline>
</glyph>
<glyph name="Va.tm" format="2">
  <advance width="2420"/>
  <unicode hex="0BB5"/>
  <note>
Va.tm
</note>
  <anchor x="1378" y="1253" name="top"/>
  <outline>
    <contour>
      <point x="2131" y="1105" type="line"/>
      <point x="2131" y="33" type="line"/>
      <point x="1562" y="33" type="line"/>
      <point x="1562" y="0" type="line"/>
      <point x="2168" y="0" type="line"/>
      <point x="2168" y="1105" type="line"/>
    </contour>
    <component base="Va_NonExporting" xOffset="10"/>
  </outline>
</glyph>
<glyph name="Sha.tm" format="2">
  <advance width="2503"/>
  <unicode hex="0BB6"/>
  <note>
Sha.tm
</note>
  <anchor x="1260" y="1253" name="top"/>
  <outline>
    <contour>
      <point x="199" y="1105" type="line"/>
      <point x="199" y="400" type="line" smooth="yes"/>
      <point x="199" y="111"/>
      <point x="336" y="-21"/>
      <point x="600" y="-21" type="curve" smooth="yes"/>
      <point x="864" y="-21"/>
      <point x="1001" y="111"/>
      <point x="1001" y="400" type="curve" smooth="yes"/>
      <point x="1001" y="1105" type="line"/>
      <point x="964" y="1105" type="line"/>
      <point x="964" y="401" type="line" smooth="yes"/>
      <point x="964" y="121"/>
      <point x="825" y="14"/>
      <point x="600" y="14" type="curve" smooth="yes"/>
      <point x="375" y="14"/>
      <point x="236" y="121"/>
      <point x="236" y="401" type="curve" smooth="yes"/>
      <point x="236" y="1105" type="line"/>
    </contour>
    <contour>
      <point x="1519" y="1105" type="line"/>
      <point x="1519" y="400" type="line" smooth="yes"/>
      <point x="1519" y="111"/>
      <point x="1653" y="-21"/>
      <point x="1911" y="-21" type="curve" smooth="yes"/>
      <point x="2170" y="-21"/>
      <point x="2304" y="111"/>
      <point x="2304" y="400" type="curve" smooth="yes"/>
      <point x="2304" y="1105" type="line"/>
      <point x="2267" y="1105" type="line"/>
      <point x="2267" y="401" type="line" smooth="yes"/>
      <point x="2267" y="121"/>
      <point x="2131" y="14"/>
      <point x="1911" y="14" type="curve" smooth="yes"/>
      <point x="1691" y="14"/>
      <point x="1556" y="121"/>
      <point x="1556" y="401" type="curve" smooth="yes"/>
      <point x="1556" y="1105" type="line"/>
    </contour>
    <contour>
      <point x="986" y="1105" type="line"/>
      <point x="986" y="1072" type="line"/>
      <point x="2286" y="1072" type="line"/>
      <point x="2286" y="1105" type="line"/>
    </contour>
  </outline>
</glyph>
<glyph name="Sa.tm" format="2">
  <advance width="3224"/>
  <unicode hex="0BB8"/>
  <note>
Sa.tm
</note>
  <guideline x="4090" y="1938" angle="90"/>
  <guideline x="4466" y="1938" angle="90"/>
  <guideline x="4004" y="1938" angle="90"/>
  <guideline x="4380" y="1938" angle="90"/>
  <anchor x="1829" y="1253" name="top"/>
  <outline>
    <contour>
      <point x="856" y="1125" type="curve" smooth="yes"/>
      <point x="415" y="1125"/>
      <point x="185" y="903"/>
      <point x="185" y="475" type="curve" smooth="yes"/>
      <point x="185" y="459" type="line" smooth="yes"/>
      <point x="185" y="162"/>
      <point x="330" y="-21"/>
      <point x="640" y="-21" type="curve" smooth="yes"/>
      <point x="913" y="-21"/>
      <point x="1044" y="120"/>
      <point x="1044" y="329" type="curve" smooth="yes"/>
      <point x="1044" y="334" type="line" smooth="yes"/>
      <point x="1044" y="547"/>
      <point x="915" y="667"/>
      <point x="657" y="667" type="curve" smooth="yes"/>
      <point x="435" y="667"/>
      <point x="277" y="560"/>
      <point x="223" y="438" type="curve"/>
      <point x="212" y="438" type="line"/>
      <point x="212" y="347" type="line"/>
      <point x="249" y="502"/>
      <point x="414" y="632"/>
      <point x="654" y="632" type="curve" smooth="yes"/>
      <point x="893" y="632"/>
      <point x="1006" y="526"/>
      <point x="1006" y="334" type="curve" smooth="yes"/>
      <point x="1006" y="329" type="line" smooth="yes"/>
      <point x="1006" y="140"/>
      <point x="888" y="13"/>
      <point x="640" y="13" type="curve" smooth="yes"/>
      <point x="356" y="13"/>
      <point x="224" y="184"/>
      <point x="224" y="435" type="curve"/>
      <point x="224" y="438" type="line"/>
      <point x="222" y="438" type="line"/>
      <point x="222" y="451"/>
      <point x="222" y="460"/>
      <point x="222" y="473" type="curve" smooth="yes"/>
      <point x="222" y="881"/>
      <point x="438" y="1090"/>
      <point x="856" y="1090" type="curve" smooth="yes"/>
      <point x="1305" y="1090"/>
      <point x="1443" y="856"/>
      <point x="1443" y="468" type="curve" smooth="yes"/>
      <point x="1443" y="0" type="line"/>
      <point x="1480" y="0" type="line"/>
      <point x="1480" y="699" type="line" smooth="yes"/>
      <point x="1480" y="983"/>
      <point x="1621" y="1090"/>
      <point x="1829" y="1090" type="curve" smooth="yes"/>
      <point x="2056" y="1090"/>
      <point x="2154" y="978"/>
      <point x="2154" y="678" type="curve" smooth="yes"/>
      <point x="2154" y="510" type="line" smooth="yes"/>
      <point x="2154" y="145"/>
      <point x="2286" y="-20"/>
      <point x="2600" y="-20" type="curve" smooth="yes"/>
      <point x="2899" y="-20"/>
      <point x="3034" y="172"/>
      <point x="3034" y="532" type="curve" smooth="yes"/>
      <point x="3034" y="547" type="line" smooth="yes"/>
      <point x="3034" y="903"/>
      <point x="2925" y="1125"/>
      <point x="2503" y="1125" type="curve" smooth="yes"/>
      <point x="2454" y="1125"/>
      <point x="2412" y="1121"/>
      <point x="2376" y="1115" type="curve"/>
      <point x="2363" y="1080" type="line"/>
      <point x="2405" y="1086"/>
      <point x="2450" y="1090"/>
      <point x="2505" y="1090" type="curve" smooth="yes"/>
      <point x="2905" y="1090"/>
      <point x="2995" y="879"/>
      <point x="2995" y="547" type="curve" smooth="yes"/>
      <point x="2995" y="532" type="line" smooth="yes"/>
      <point x="2995" y="199"/>
      <point x="2882" y="15"/>
      <point x="2600" y="15" type="curve" smooth="yes"/>
      <point x="2309" y="15"/>
      <point x="2191" y="169"/>
      <point x="2191" y="519" type="curve" smooth="yes"/>
      <point x="2191" y="683" type="line" smooth="yes"/>
      <point x="2191" y="996"/>
      <point x="2075" y="1125"/>
      <point x="1829" y="1125" type="curve" smooth="yes"/>
      <point x="1596" y="1125"/>
      <point x="1452" y="1003"/>
      <point x="1452" y="704" type="curve" smooth="yes"/>
      <point x="1452" y="662" type="line"/>
      <point x="1450" y="662" type="line"/>
      <point x="1426" y="926"/>
      <point x="1255" y="1125"/>
    </contour>
  </outline>
</glyph>
<glyph name="Ha.tm" format="2">
  <advance width="3875"/>
  <unicode hex="0BB9"/>
  <note>
Ha.tm
</note>
  <anchor x="1736" y="1253" name="top"/>
  <outline>
    <contour>
      <point x="1682" y="33" type="line"/>
      <point x="1682" y="0" type="line"/>
      <point x="2108" y="0" type="line"/>
      <point x="2108" y="33" type="line"/>
    </contour>
    <contour>
      <point x="2159" y="-352" type="line"/>
      <point x="556" y="-352" type="line"/>
      <point x="570" y="-385" type="line"/>
      <point x="2159" y="-385" type="line"/>
    </contour>
    <component base="Va_NonExporting" xOffset="10"/>
    <component base="Rra_Simple.tm" xOffset="1834"/>
    <component base="Tail_NonExporting" xOffset="35"/>
  </outline>
</glyph>
<glyph name="MatraAa.tm" format="2">
  <advance width="1418"/>
  <unicode hex="0BBE"/>
  <note>
RaAltMatraAa.tm
</note>
  <outline>
    <contour>
      <point x="1021" y="1084" type="line"/>
      <point x="1021" y="0" type="line"/>
      <point x="1058" y="0" type="line"/>
      <point x="1058" y="1084" type="line"/>
    </contour>
    <contour>
      <point x="1052" y="1105" type="line"/>
      <point x="252" y="1105" type="line"/>
      <point x="252" y="0" type="line"/>
      <point x="289" y="0" type="line"/>
      <point x="289" y="1072" type="line"/>
      <point x="1052" y="1072" type="line"/>
    </contour>
    <component base="RaBeak_Nonexporting" xOffset="788"/>
  </outline>
</glyph>
<glyph name="MatraIDflt.tm" format="2">
  <advance width="1114"/>
  <unicode hex="0BBF"/>
  <note>
MatraIDflt.tm
</note>
  <outline>
    <contour>
      <point x="430" y="1776" type="curve" smooth="yes"/>
      <point x="153" y="1776"/>
      <point x="0" y="1623"/>
      <point x="0" y="1383" type="curve" smooth="yes"/>
      <point x="0" y="1383" type="line" smooth="yes"/>
      <point x="0" y="1247"/>
      <point x="47" y="1153"/>
      <point x="83" y="1104" type="curve"/>
      <point x="122" y="1104" type="line"/>
      <point x="77" y="1169"/>
      <point x="38" y="1249"/>
      <point x="38" y="1383" type="curve" smooth="yes"/>
      <point x="38" y="1383" type="line" smooth="yes"/>
      <point x="38" y="1607"/>
      <point x="179" y="1741"/>
      <point x="430" y="1741" type="curve" smooth="yes"/>
      <point x="708" y="1741"/>
      <point x="825" y="1600"/>
      <point x="825" y="1302" type="curve" smooth="yes"/>
      <point x="825" y="0" type="line"/>
      <point x="862" y="0" type="line"/>
      <point x="862" y="1307" type="line" smooth="yes"/>
      <point x="862" y="1620"/>
      <point x="727" y="1776"/>
    </contour>
  </outline>
</glyph>
<glyph name="MatraIiDflt.tm" format="2">
  <unicode hex="0BC0"/>
  <note>
MatraIiDflt.tm
</note>
  <outline>
    <contour>
      <point x="477" y="1843" type="curve" smooth="yes"/>
      <point x="169" y="1843"/>
      <point x="0" y="1711"/>
      <point x="0" y="1457" type="curve" smooth="yes"/>
      <point x="0" y="1457" type="line" smooth="yes"/>
      <point x="0" y="1299"/>
      <point x="67" y="1168"/>
      <point x="122" y="1104" type="curve"/>
      <point x="164" y="1104" type="line"/>
      <point x="97" y="1183"/>
      <point x="37" y="1309"/>
      <point x="37" y="1456" type="curve" smooth="yes"/>
      <point x="37" y="1456" type="line" smooth="yes"/>
      <point x="37" y="1648"/>
      <point x="139" y="1760"/>
      <point x="328" y="1797" type="curve"/>
      <point x="328" y="1797" type="line"/>
      <point x="373" y="1805"/>
      <point x="425" y="1809"/>
      <point x="479" y="1809" type="curve" smooth="yes"/>
      <point x="716" y="1809"/>
      <point x="831" y="1732"/>
      <point x="831" y="1588" type="curve" smooth="yes"/>
      <point x="831" y="1584" type="line" smooth="yes"/>
      <point x="831" y="1443"/>
      <point x="748" y="1373"/>
      <point x="576" y="1373" type="curve" smooth="yes"/>
      <point x="387" y="1373"/>
      <point x="308" y="1466"/>
      <point x="308" y="1609" type="curve" smooth="yes"/>
      <point x="308" y="1612" type="line" smooth="yes"/>
      <point x="308" y="1693"/>
      <point x="327" y="1755"/>
      <point x="357" y="1809" type="curve"/>
      <point x="328" y="1809" type="line"/>
      <point x="328" y="1797" type="line"/>
      <point x="295" y="1755"/>
      <point x="271" y="1689"/>
      <point x="271" y="1605" type="curve" smooth="yes"/>
      <point x="271" y="1602" type="line" smooth="yes"/>
      <point x="271" y="1448"/>
      <point x="366" y="1339"/>
      <point x="579" y="1339" type="curve" smooth="yes"/>
      <point x="773" y="1339"/>
      <point x="868" y="1427"/>
      <point x="868" y="1584" type="curve" smooth="yes"/>
      <point x="868" y="1588" type="line" smooth="yes"/>
      <point x="868" y="1748"/>
      <point x="737" y="1843"/>
    </contour>
  </outline>
</glyph>
<glyph name="MatraUDflt.tm" format="2">
  <advance width="1404"/>
  <unicode hex="0BC1"/>
  <note>
MatraUDflt.tm
</note>
  <outline>
    <contour>
      <point x="0" y="1072" type="line"/>
      <point x="835" y="1072" type="line" smooth="yes"/>
      <point x="1106" y="1072"/>
      <point x="1236" y="965"/>
      <point x="1236" y="761" type="curve" smooth="yes"/>
      <point x="1236" y="757" type="line" smooth="yes"/>
      <point x="1236" y="549"/>
      <point x="1121" y="440"/>
      <point x="905" y="440" type="curve" smooth="yes"/>
      <point x="665" y="440"/>
      <point x="555" y="585"/>
      <point x="555" y="796" type="curve" smooth="yes"/>
      <point x="555" y="800" type="line" smooth="yes"/>
      <point x="555" y="906"/>
      <point x="575" y="1000"/>
      <point x="605" y="1074" type="curve"/>
      <point x="602" y="1074" type="line"/>
      <point x="563" y="1063" type="line"/>
      <point x="539" y="1010"/>
      <point x="517" y="909"/>
      <point x="517" y="800" type="curve" smooth="yes"/>
      <point x="517" y="796" type="line" smooth="yes"/>
      <point x="517" y="568"/>
      <point x="640" y="406"/>
      <point x="905" y="406" type="curve" smooth="yes"/>
      <point x="1147" y="406"/>
      <point x="1274" y="535"/>
      <point x="1274" y="756" type="curve" smooth="yes"/>
      <point x="1274" y="764" type="line" smooth="yes"/>
      <point x="1274" y="990"/>
      <point x="1123" y="1105"/>
      <point x="837" y="1105" type="curve" smooth="yes"/>
      <point x="0" y="1105" type="line"/>
    </contour>
  </outline>
</glyph>
<glyph name="MatraE.tm" format="2">
  <advance width="1994"/>
  <unicode hex="0BC6"/>
  <note>
MatraE.tm
</note>
  <guideline x="2187" y="1476" angle="0"/>
  <guideline x="3635" y="3317" angle="0"/>
  <outline>
    <contour>
      <point x="992" y="1373" type="curve" smooth="yes"/>
      <point x="480" y="1373"/>
      <point x="186" y="1112"/>
      <point x="186" y="665" type="curve" smooth="yes"/>
      <point x="186" y="656" type="line" smooth="yes"/>
      <point x="186" y="238"/>
      <point x="404" y="-21"/>
      <point x="881" y="-21" type="curve" smooth="yes"/>
      <point x="1210" y="-21"/>
      <point x="1366" y="121"/>
      <point x="1366" y="348" type="curve" smooth="yes"/>
      <point x="1366" y="357" type="line" smooth="yes"/>
      <point x="1366" y="580"/>
      <point x="1243" y="701"/>
      <point x="985" y="701" type="curve" smooth="yes"/>
      <point x="734" y="701"/>
      <point x="576" y="580"/>
      <point x="576" y="350" type="curve" smooth="yes"/>
      <point x="576" y="347" type="line" smooth="yes"/>
      <point x="576" y="222"/>
      <point x="633" y="99"/>
      <point x="698" y="26" type="curve"/>
      <point x="698" y="9" type="line"/>
      <point x="751" y="5" type="line"/>
      <point x="674" y="90"/>
      <point x="614" y="216"/>
      <point x="614" y="347" type="curve" smooth="yes"/>
      <point x="614" y="350" type="line" smooth="yes"/>
      <point x="614" y="563"/>
      <point x="760" y="667"/>
      <point x="985" y="667" type="curve" smooth="yes"/>
      <point x="1223" y="667"/>
      <point x="1328" y="560"/>
      <point x="1328" y="357" type="curve" smooth="yes"/>
      <point x="1328" y="348" type="line" smooth="yes"/>
      <point x="1328" y="141"/>
      <point x="1184" y="12"/>
      <point x="881" y="12" type="curve" smooth="yes"/>
      <point x="828" y="12"/>
      <point x="774" y="16"/>
      <point x="732" y="21" type="curve"/>
      <point x="698" y="21" type="line"/>
      <point x="698" y="26" type="line"/>
      <point x="381" y="88"/>
      <point x="225" y="304"/>
      <point x="225" y="658" type="curve"/>
      <point x="225" y="665" type="line" smooth="yes"/>
      <point x="225" y="1088"/>
      <point x="506" y="1338"/>
      <point x="992" y="1338" type="curve" smooth="yes"/>
      <point x="1536" y="1338"/>
      <point x="1722" y="1069"/>
      <point x="1722" y="600" type="curve" smooth="yes"/>
      <point x="1722" y="0" type="line"/>
      <point x="1759" y="0" type="line"/>
      <point x="1759" y="602" type="line" smooth="yes"/>
      <point x="1759" y="1091"/>
      <point x="1559" y="1373"/>
    </contour>
  </outline>
</glyph>
<glyph name="MatraAi.tm" format="2">
  <advance width="2991"/>
  <unicode hex="0BC8"/>
  <note>
MatraAi.tm
</note>
  <outline>
    <contour>
      <point x="2247" y="-15" type="line"/>
      <point x="2270" y="-20"/>
      <point x="2314" y="-23"/>
      <point x="2347" y="-23" type="curve" smooth="yes"/>
      <point x="2699" y="-23"/>
      <point x="2811" y="215"/>
      <point x="2811" y="528" type="curve" smooth="yes"/>
      <point x="2811" y="542" type="line" smooth="yes"/>
      <point x="2811" y="943"/>
      <point x="2598" y="1133"/>
      <point x="2143" y="1133" type="curve" smooth="yes"/>
      <point x="1958" y="1133"/>
      <point x="1789" y="1096"/>
      <point x="1682" y="1060" type="curve"/>
      <point x="1715" y="1038" type="line"/>
      <point x="1819" y="1070"/>
      <point x="1971" y="1100"/>
      <point x="2141" y="1100" type="curve" smooth="yes"/>
      <point x="2573" y="1100"/>
      <point x="2773" y="919"/>
      <point x="2773" y="542" type="curve" smooth="yes"/>
      <point x="2773" y="528" type="line" smooth="yes"/>
      <point x="2773" y="236"/>
      <point x="2676" y="11"/>
      <point x="2349" y="11" type="curve" smooth="yes"/>
      <point x="2304" y="11"/>
      <point x="2264" y="14"/>
      <point x="2228" y="20" type="curve"/>
    </contour>
    <contour>
      <point x="1150" y="1133" type="curve" smooth="yes"/>
      <point x="526" y="1133"/>
      <point x="175" y="901"/>
      <point x="175" y="468" type="curve" smooth="yes"/>
      <point x="175" y="459" type="line" smooth="yes"/>
      <point x="175" y="162"/>
      <point x="320" y="-21"/>
      <point x="630" y="-21" type="curve" smooth="yes"/>
      <point x="903" y="-21"/>
      <point x="1034" y="120"/>
      <point x="1034" y="329" type="curve" smooth="yes"/>
      <point x="1034" y="334" type="line" smooth="yes"/>
      <point x="1034" y="547"/>
      <point x="905" y="667"/>
      <point x="647" y="667" type="curve" smooth="yes"/>
      <point x="425" y="667"/>
      <point x="267" y="560"/>
      <point x="213" y="438" type="curve"/>
      <point x="202" y="438" type="line"/>
      <point x="202" y="347" type="line"/>
      <point x="239" y="502"/>
      <point x="404" y="632"/>
      <point x="644" y="632" type="curve" smooth="yes"/>
      <point x="883" y="632"/>
      <point x="996" y="526"/>
      <point x="996" y="334" type="curve" smooth="yes"/>
      <point x="996" y="329" type="line" smooth="yes"/>
      <point x="996" y="140"/>
      <point x="878" y="13"/>
      <point x="630" y="13" type="curve" smooth="yes"/>
      <point x="346" y="13"/>
      <point x="214" y="184"/>
      <point x="214" y="435" type="curve"/>
      <point x="214" y="438" type="line"/>
      <point x="212" y="438" type="line"/>
      <point x="212" y="448"/>
      <point x="212" y="456"/>
      <point x="212" y="466" type="curve" smooth="yes"/>
      <point x="212" y="880"/>
      <point x="549" y="1100"/>
      <point x="1150" y="1100" type="curve" smooth="yes"/>
      <point x="1388" y="1100"/>
      <point x="1561" y="1077"/>
      <point x="1675" y="1047" type="curve"/>
      <point x="1687" y="1042" type="line"/>
      <point x="1997" y="947"/>
      <point x="2087" y="722"/>
      <point x="2087" y="486" type="curve" smooth="yes"/>
      <point x="2087" y="475" type="line" smooth="yes"/>
      <point x="2087" y="197"/>
      <point x="1985" y="12"/>
      <point x="1715" y="12" type="curve" smooth="yes"/>
      <point x="1439" y="12"/>
      <point x="1334" y="197"/>
      <point x="1334" y="475" type="curve" smooth="yes"/>
      <point x="1334" y="486" type="line" smooth="yes"/>
      <point x="1334" y="722"/>
      <point x="1427" y="947"/>
      <point x="1737" y="1042" type="curve"/>
      <point x="1693" y="1060" type="line"/>
      <point x="1397" y="961"/>
      <point x="1295" y="732"/>
      <point x="1295" y="486" type="curve" smooth="yes"/>
      <point x="1295" y="475" type="line" smooth="yes"/>
      <point x="1295" y="176"/>
      <point x="1416" y="-21"/>
      <point x="1715" y="-21" type="curve" smooth="yes"/>
      <point x="2008" y="-21"/>
      <point x="2126" y="176"/>
      <point x="2126" y="475" type="curve" smooth="yes"/>
      <point x="2126" y="486" type="line" smooth="yes"/>
      <point x="2126" y="730"/>
      <point x="2023" y="961"/>
      <point x="1744" y="1056" type="curve"/>
      <point x="1744" y="1056" type="line"/>
      <point x="1608" y="1105"/>
      <point x="1416" y="1133"/>
    </contour>
  </outline>
</glyph>
<glyph name="PulliDflt.tm" format="2">
  <unicode hex="0BCD"/>
  <note>
PulliDflt.tm
</note>
  <anchor x="77" y="1253" name="_top"/>
  <outline>
    <contour>
      <point x="77" y="1374" type="curve" smooth="yes"/>
      <point x="126" y="1374"/>
      <point x="153" y="1399"/>
      <point x="153" y="1439" type="curve" smooth="yes"/>
      <point x="153" y="1439" type="line" smooth="yes"/>
      <point x="153" y="1479"/>
      <point x="122" y="1502"/>
      <point x="77" y="1502" type="curve" smooth="yes"/>
      <point x="31" y="1502"/>
      <point x="0" y="1479"/>
      <point x="0" y="1439" type="curve" smooth="yes"/>
      <point x="0" y="1439" type="line" smooth="yes"/>
      <point x="0" y="1399"/>
      <point x="28" y="1374"/>
    </contour>
  </outline>
</glyph>
<glyph name="Om.tm" format="2">
  <advance width="2632"/>
  <unicode hex="0BD0"/>
  <note>
Om.tm
</note>
  <outline>
    <contour>
      <point x="1326" y="1232" type="curve" smooth="yes"/>
      <point x="571" y="1232"/>
      <point x="168" y="994"/>
      <point x="168" y="540" type="curve" smooth="yes"/>
      <point x="168" y="537" type="line" smooth="yes"/>
      <point x="168" y="252"/>
      <point x="314" y="74"/>
      <point x="611" y="74" type="curve" smooth="yes"/>
      <point x="873" y="74"/>
      <point x="998" y="213"/>
      <point x="998" y="419" type="curve" smooth="yes"/>
      <point x="998" y="424" type="line" smooth="yes"/>
      <point x="998" y="633"/>
      <point x="873" y="751"/>
      <point x="625" y="751" type="curve" smooth="yes"/>
      <point x="411" y="751"/>
      <point x="258" y="648"/>
      <point x="205" y="532" type="curve"/>
      <point x="194" y="532" type="line"/>
      <point x="194" y="442" type="line"/>
      <point x="229" y="591"/>
      <point x="397" y="716"/>
      <point x="622" y="716" type="curve" smooth="yes"/>
      <point x="851" y="716"/>
      <point x="960" y="612"/>
      <point x="960" y="424" type="curve" smooth="yes"/>
      <point x="960" y="419" type="line" smooth="yes"/>
      <point x="960" y="232"/>
      <point x="847" y="107"/>
      <point x="611" y="107" type="curve" smooth="yes"/>
      <point x="340" y="107"/>
      <point x="207" y="273"/>
      <point x="207" y="512" type="curve"/>
      <point x="207" y="532" type="line"/>
      <point x="205" y="532" type="line"/>
      <point x="205" y="973"/>
      <point x="586" y="1197"/>
      <point x="1326" y="1197" type="curve" smooth="yes"/>
      <point x="2118" y="1197"/>
      <point x="2408" y="939"/>
      <point x="2408" y="560" type="curve" smooth="yes"/>
      <point x="2408" y="547" type="line" smooth="yes"/>
      <point x="2408" y="292"/>
      <point x="2308" y="150"/>
      <point x="2060" y="150" type="curve" smooth="yes"/>
      <point x="1797" y="150"/>
      <point x="1691" y="276"/>
      <point x="1691" y="503" type="curve" smooth="yes"/>
      <point x="1691" y="581"/>
      <point x="1696" y="653"/>
      <point x="1710" y="715" type="curve"/>
      <point x="1673" y="715" type="line"/>
      <point x="1660" y="655"/>
      <point x="1652" y="584"/>
      <point x="1652" y="502" type="curve" smooth="yes"/>
      <point x="1652" y="255"/>
      <point x="1773" y="116"/>
      <point x="2058" y="116" type="curve" smooth="yes"/>
      <point x="2088" y="116"/>
      <point x="2127" y="121"/>
      <point x="2148" y="127" type="curve"/>
      <point x="2359" y="151"/>
      <point x="2447" y="306"/>
      <point x="2447" y="547" type="curve" smooth="yes"/>
      <point x="2447" y="560" type="line" smooth="yes"/>
      <point x="2447" y="957"/>
      <point x="2141" y="1232"/>
    </contour>
    <contour>
      <point x="2468" y="132" type="line"/>
      <point x="2123" y="128" type="line"/>
      <point x="2128" y="123" type="line"/>
      <point x="2128" y="120" type="line"/>
      <point x="2051" y="93"/>
      <point x="2012" y="48"/>
      <point x="2002" y="-76" type="curve" smooth="yes"/>
      <point x="1995" y="-160" type="line" smooth="yes"/>
      <point x="1965" y="-522"/>
      <point x="1765" y="-672"/>
      <point x="1329" y="-672" type="curve" smooth="yes"/>
      <point x="876" y="-672"/>
      <point x="624" y="-501"/>
      <point x="624" y="-116" type="curve" smooth="yes"/>
      <point x="624" y="-53"/>
      <point x="631" y="37"/>
      <point x="644" y="92" type="curve"/>
      <point x="607" y="92" type="line"/>
      <point x="594" y="37"/>
      <point x="587" y="-48"/>
      <point x="587" y="-116" type="curve" smooth="yes"/>
      <point x="587" y="-523"/>
      <point x="858" y="-706"/>
      <point x="1329" y="-706" type="curve" smooth="yes"/>
      <point x="1786" y="-706"/>
      <point x="2003" y="-544"/>
      <point x="2032" y="-167" type="curve" smooth="yes"/>
      <point x="2039" y="-76" type="line" smooth="yes"/>
      <point x="2047" y="27"/>
      <point x="2082" y="99"/>
      <point x="2205" y="99" type="curve" smooth="yes"/>
      <point x="2454" y="99" type="line"/>
    </contour>
    <contour>
      <point x="1004" y="90" type="line"/>
      <point x="1004" y="-348" type="line"/>
      <point x="1428" y="-348" type="line" smooth="yes"/>
      <point x="1664" y="-348"/>
      <point x="1743" y="-278"/>
      <point x="1743" y="-84" type="curve" smooth="yes"/>
      <point x="1743" y="-79" type="line" smooth="yes"/>
      <point x="1743" y="84"/>
      <point x="1664" y="162"/>
      <point x="1451" y="162" type="curve" smooth="yes"/>
      <point x="1337" y="162" type="line"/>
      <point x="1337" y="-340" type="line"/>
      <point x="1368" y="-340" type="line"/>
      <point x="1368" y="134" type="line"/>
      <point x="1451" y="134" type="line" smooth="yes"/>
      <point x="1648" y="134"/>
      <point x="1711" y="63"/>
      <point x="1711" y="-79" type="curve" smooth="yes"/>
      <point x="1711" y="-84" type="line" smooth="yes"/>
      <point x="1711" y="-257"/>
      <point x="1648" y="-320"/>
      <point x="1426" y="-320" type="curve" smooth="yes"/>
      <point x="1036" y="-320" type="line"/>
      <point x="1036" y="90" type="line"/>
    </contour>
    <contour>
      <point x="1335" y="312" type="curve" smooth="yes"/>
      <point x="1372" y="312"/>
      <point x="1393" y="331"/>
      <point x="1393" y="364" type="curve" smooth="yes"/>
      <point x="1393" y="364" type="line" smooth="yes"/>
      <point x="1393" y="398"/>
      <point x="1370" y="415"/>
      <point x="1335" y="415" type="curve" smooth="yes"/>
      <point x="1300" y="415"/>
      <point x="1277" y="398"/>
      <point x="1277" y="364" type="curve" smooth="yes"/>
      <point x="1277" y="364" type="line" smooth="yes"/>
      <point x="1277" y="331"/>
      <point x="1298" y="312"/>
    </contour>
    <contour>
      <point x="1036" y="89" type="line"/>
      <point x="1036" y="92" type="line" smooth="yes"/>
      <point x="1036" y="199"/>
      <point x="1006" y="239"/>
      <point x="944" y="257" type="curve"/>
      <point x="934" y="227" type="line"/>
      <point x="985" y="213"/>
      <point x="1004" y="185"/>
      <point x="1004" y="89" type="curve"/>
    </contour>
  </outline>
</glyph>
<glyph name="Zero.tm" format="2">
  <advance width="1580"/>
  <unicode hex="0BE6"/>
  <note>
Zero.tm
</note>
  <outline>
    <contour>
      <point x="794" y="1098" type="curve" smooth="yes"/>
      <point x="1193" y="1098"/>
      <point x="1378" y="900"/>
      <point x="1378" y="557" type="curve"/>
      <point x="1378" y="547" type="line" smooth="yes"/>
      <point x="1378" y="205"/>
      <point x="1193" y="7"/>
      <point x="794" y="7" type="curve" smooth="yes"/>
      <point x="391" y="7"/>
      <point x="202" y="205"/>
      <point x="202" y="547" type="curve" smooth="yes"/>
      <point x="202" y="557" type="line" smooth="yes"/>
      <point x="202" y="900"/>
      <point x="391" y="1098"/>
    </contour>
    <contour>
      <point x="794" y="1133" type="curve" smooth="yes"/>
      <point x="370" y="1133"/>
      <point x="164" y="924"/>
      <point x="164" y="555" type="curve"/>
      <point x="164" y="548" type="line" smooth="yes"/>
      <point x="164" y="182"/>
      <point x="370" y="-28"/>
      <point x="794" y="-28" type="curve" smooth="yes"/>
      <point x="1214" y="-28"/>
      <point x="1417" y="182"/>
      <point x="1417" y="548" type="curve" smooth="yes"/>
      <point x="1417" y="555" type="line"/>
      <point x="1417" y="924"/>
      <point x="1214" y="1133"/>
    </contour>
  </outline>
</glyph>
<glyph name="Three.tm" format="2">
  <advance width="2399"/>
  <unicode hex="0BE9"/>
  <note>
Three.tm
</note>
  <outline>
    <contour>
      <point x="1019" y="1084" type="line"/>
      <point x="1019" y="0" type="line"/>
      <point x="1056" y="0" type="line"/>
      <point x="1056" y="1084" type="line"/>
    </contour>
    <contour>
      <point x="1473" y="737" type="curve" smooth="yes"/>
      <point x="1257" y="737"/>
      <point x="1112" y="626"/>
      <point x="1056" y="496" type="curve"/>
      <point x="1051" y="496" type="line"/>
      <point x="1051" y="438" type="line"/>
      <point x="1054" y="438" type="line"/>
      <point x="1123" y="602"/>
      <point x="1267" y="702"/>
      <point x="1471" y="702" type="curve" smooth="yes"/>
      <point x="1700" y="702"/>
      <point x="1804" y="588"/>
      <point x="1804" y="392" type="curve" smooth="yes"/>
      <point x="1804" y="389" type="line" smooth="yes"/>
      <point x="1804" y="204"/>
      <point x="1728" y="99"/>
      <point x="1612" y="9" type="curve"/>
      <point x="1612" y="0" type="line"/>
      <point x="2351" y="0" type="line"/>
      <point x="2367" y="33" type="line"/>
      <point x="1663" y="33" type="line"/>
      <point x="1665" y="16" type="line"/>
      <point x="1751" y="79"/>
      <point x="1843" y="195"/>
      <point x="1843" y="389" type="curve" smooth="yes"/>
      <point x="1843" y="392" type="line" smooth="yes"/>
      <point x="1843" y="612"/>
      <point x="1721" y="737"/>
    </contour>
    <contour>
      <point x="1507" y="1105" type="line"/>
      <point x="252" y="1105" type="line"/>
      <point x="252" y="0" type="line"/>
      <point x="289" y="0" type="line"/>
      <point x="289" y="1072" type="line"/>
      <point x="1507" y="1072" type="line"/>
    </contour>
    <component base="RaBeak_Nonexporting" xOffset="1121"/>
  </outline>
</glyph>
<glyph name="Four.tm" format="2">
  <advance width="2006"/>
  <unicode hex="0BEA"/>
  <note>
Four.tm
</note>
  <outline>
    <contour>
      <point x="1184" y="593" type="line"/>
      <point x="1819" y="593" type="line"/>
      <point x="1819" y="625" type="line"/>
      <point x="1184" y="625" type="line"/>
    </contour>
    <contour>
      <point x="1811" y="1105" type="line"/>
      <point x="1811" y="593" type="line"/>
      <point x="1848" y="593" type="line"/>
      <point x="1848" y="1105" type="line"/>
    </contour>
    <component base="KaComponent_Nonexporting" xOffset="63"/>
    <component base="KaBeak_Nonexporting" xOffset="1244"/>
  </outline>
</glyph>
<glyph name="Five.tm" format="2">
  <advance width="2729"/>
  <unicode hex="0BEB"/>
  <note>
Five.tm
</note>
  <outline>
    <contour>
      <point x="1743" y="1084" type="line"/>
      <point x="1743" y="0" type="line"/>
      <point x="1780" y="0" type="line"/>
      <point x="1780" y="1084" type="line"/>
    </contour>
    <contour>
      <point x="2188" y="695" type="curve" smooth="yes"/>
      <point x="1966" y="695"/>
      <point x="1824" y="575"/>
      <point x="1780" y="417" type="curve"/>
      <point x="1766" y="417" type="line"/>
      <point x="1766" y="334" type="line"/>
      <point x="1773" y="334" type="line"/>
      <point x="1827" y="549"/>
      <point x="1977" y="660"/>
      <point x="2186" y="660" type="curve" smooth="yes"/>
      <point x="2443" y="660"/>
      <point x="2542" y="514"/>
      <point x="2542" y="250" type="curve" smooth="yes"/>
      <point x="2542" y="241" type="line" smooth="yes"/>
      <point x="2542" y="-281"/>
      <point x="2199" y="-528"/>
      <point x="1475" y="-528" type="curve" smooth="yes"/>
      <point x="1458" y="-528" type="line" smooth="yes"/>
      <point x="647" y="-528"/>
      <point x="237" y="-184"/>
      <point x="237" y="524" type="curve" smooth="yes"/>
      <point x="237" y="532" type="line" smooth="yes"/>
      <point x="237" y="1284"/>
      <point x="678" y="1649"/>
      <point x="1567" y="1649" type="curve" smooth="yes"/>
      <point x="1943" y="1649"/>
      <point x="2215" y="1577"/>
      <point x="2422" y="1493" type="curve"/>
      <point x="2408" y="1534" type="line"/>
      <point x="2211" y="1615"/>
      <point x="1947" y="1684"/>
      <point x="1565" y="1684" type="curve" smooth="yes"/>
      <point x="652" y="1684"/>
      <point x="198" y="1301"/>
      <point x="198" y="532" type="curve" smooth="yes"/>
      <point x="198" y="524" type="line" smooth="yes"/>
      <point x="198" y="-202"/>
      <point x="622" y="-563"/>
      <point x="1458" y="-563" type="curve" smooth="yes"/>
      <point x="1475" y="-563" type="line" smooth="yes"/>
      <point x="2232" y="-563"/>
      <point x="2581" y="-294"/>
      <point x="2581" y="241" type="curve" smooth="yes"/>
      <point x="2581" y="250" type="line" smooth="yes"/>
      <point x="2581" y="536"/>
      <point x="2466" y="695"/>
    </contour>
    <contour>
      <point x="1990" y="1105" type="line"/>
      <point x="994" y="1105" type="line"/>
      <point x="994" y="0" type="line"/>
      <point x="1031" y="0" type="line"/>
      <point x="1031" y="1072" type="line"/>
      <point x="1990" y="1072" type="line"/>
    </contour>
    <component base="RaBeak_Nonexporting" xOffset="1707"/>
  </outline>
</glyph>
<glyph name="Six.tm" format="2">
  <advance width="2701"/>
  <unicode hex="0BEC"/>
  <note>
Six.tm
</note>
  <outline>
    <contour>
      <point x="1190" y="593" type="line"/>
      <point x="1376" y="593" type="line" smooth="yes"/>
      <point x="1624" y="593"/>
      <point x="1712" y="516"/>
      <point x="1712" y="282" type="curve"/>
      <point x="1712" y="0" type="line"/>
      <point x="1749" y="0" type="line"/>
      <point x="1749" y="282" type="line"/>
      <point x="1749" y="516"/>
      <point x="1837" y="593"/>
      <point x="2085" y="593" type="curve" smooth="yes"/>
      <point x="2645" y="593" type="line"/>
      <point x="2631" y="625" type="line"/>
      <point x="2082" y="625" type="line"/>
      <point x="1821" y="625"/>
      <point x="1735" y="532"/>
      <point x="1731" y="340" type="curve"/>
      <point x="1730" y="340" type="line"/>
      <point x="1726" y="532"/>
      <point x="1640" y="625"/>
      <point x="1379" y="625" type="curve" smooth="yes"/>
      <point x="1190" y="625" type="line"/>
    </contour>
    <contour>
      <point x="2298" y="602" type="line"/>
      <point x="2298" y="0" type="line"/>
      <point x="2335" y="0" type="line"/>
      <point x="2335" y="602" type="line"/>
    </contour>
    <component base="KaComponent_Nonexporting" xOffset="63"/>
    <component base="KaBeak_Nonexporting" xOffset="1279"/>
  </outline>
</glyph>
<glyph name="Eight.tm" format="2">
  <advance width="2536"/>
  <unicode hex="0BEE"/>
  <note>
Eight.tm
</note>
  <outline>
    <contour>
      <point x="2247" y="1105" type="line"/>
      <point x="2247" y="-64" type="line"/>
      <point x="2284" y="-64" type="line"/>
      <point x="2284" y="1105" type="line"/>
    </contour>
    <contour>
      <point x="1184" y="1151" type="curve"/>
      <point x="796" y="1151"/>
      <point x="572" y="959"/>
      <point x="572" y="616" type="curve" smooth="yes"/>
      <point x="572" y="607"/>
      <point x="572" y="595"/>
      <point x="574" y="576" type="curve"/>
      <point x="609" y="576" type="line"/>
      <point x="607" y="593"/>
      <point x="607" y="600"/>
      <point x="607" y="614" type="curve"/>
      <point x="607" y="932"/>
      <point x="813" y="1116"/>
      <point x="1184" y="1116" type="curve" smooth="yes"/>
      <point x="1617" y="1116"/>
      <point x="1781" y="930"/>
      <point x="1781" y="609" type="curve" smooth="yes"/>
      <point x="1781" y="586" type="line" smooth="yes"/>
      <point x="1781" y="172"/>
      <point x="1556" y="-39"/>
      <point x="1001" y="-39" type="curve" smooth="yes"/>
      <point x="998" y="-39" type="line" smooth="yes"/>
      <point x="459" y="-39"/>
      <point x="139" y="151"/>
      <point x="139" y="532" type="curve" smooth="yes"/>
      <point x="139" y="535" type="line" smooth="yes"/>
      <point x="139" y="544"/>
      <point x="139" y="550"/>
      <point x="141" y="562" type="curve"/>
      <point x="2256" y="562" type="line"/>
      <point x="2256" y="595" type="line"/>
      <point x="106" y="595" type="line"/>
      <point x="104" y="581"/>
      <point x="102" y="558"/>
      <point x="102" y="540" type="curve" smooth="yes"/>
      <point x="102" y="535" type="line" smooth="yes"/>
      <point x="102" y="127"/>
      <point x="438" y="-74"/>
      <point x="998" y="-74" type="curve" smooth="yes"/>
      <point x="1001" y="-74" type="line" smooth="yes"/>
      <point x="1588" y="-74"/>
      <point x="1820" y="153"/>
      <point x="1820" y="586" type="curve" smooth="yes"/>
      <point x="1820" y="609" type="line" smooth="yes"/>
      <point x="1820" y="954"/>
      <point x="1639" y="1151"/>
    </contour>
  </outline>
</glyph>
<glyph name="Nine.tm" format="2">
  <advance width="2645"/>
  <unicode hex="0BEF"/>
  <note>
Nine.tm
</note>
  <outline>
    <contour>
      <point x="1185" y="593" type="line"/>
      <point x="1376" y="593" type="line" smooth="yes"/>
      <point x="1624" y="593"/>
      <point x="1712" y="516"/>
      <point x="1712" y="282" type="curve"/>
      <point x="1712" y="0" type="line"/>
      <point x="1749" y="0" type="line"/>
      <point x="1749" y="282" type="line"/>
      <point x="1749" y="568"/>
      <point x="1908" y="702"/>
      <point x="2160" y="702" type="curve" smooth="yes"/>
      <point x="2400" y="702"/>
      <point x="2501" y="579"/>
      <point x="2501" y="378" type="curve" smooth="yes"/>
      <point x="2501" y="375" type="line" smooth="yes"/>
      <point x="2501" y="196"/>
      <point x="2442" y="81"/>
      <point x="2381" y="0" type="curve"/>
      <point x="2426" y="0" type="line"/>
      <point x="2477" y="69"/>
      <point x="2539" y="187"/>
      <point x="2539" y="375" type="curve" smooth="yes"/>
      <point x="2539" y="378" type="line" smooth="yes"/>
      <point x="2539" y="601"/>
      <point x="2421" y="736"/>
      <point x="2161" y="736" type="curve" smooth="yes"/>
      <point x="1889" y="736"/>
      <point x="1737" y="576"/>
      <point x="1731" y="340" type="curve"/>
      <point x="1731" y="340" type="line"/>
      <point x="1730" y="340" type="line"/>
      <point x="1726" y="532"/>
      <point x="1640" y="625"/>
      <point x="1379" y="625" type="curve" smooth="yes"/>
      <point x="1185" y="625" type="line"/>
    </contour>
    <component base="KaComponent_Nonexporting" xOffset="63"/>
    <component base="KaBeak_Nonexporting" xOffset="1279"/>
  </outline>
</glyph>
<glyph name="Ten.tm" format="2">
  <advance width="2084"/>
  <unicode hex="0BF0"/>
  <note>
Ten.tm
</note>
  <outline>
    <contour>
      <point x="1007" y="1603" type="curve" smooth="yes"/>
      <point x="708" y="1603"/>
      <point x="404" y="1522"/>
      <point x="205" y="1412" type="curve"/>
      <point x="191" y="1370" type="line"/>
      <point x="400" y="1485"/>
      <point x="710" y="1568"/>
      <point x="1005" y="1568" type="curve" smooth="yes"/>
      <point x="1627" y="1568"/>
      <point x="1855" y="1338"/>
      <point x="1855" y="728" type="curve" smooth="yes"/>
      <point x="1855" y="677" type="line" smooth="yes"/>
      <point x="1855" y="292"/>
      <point x="1749" y="15"/>
      <point x="1430" y="15" type="curve" smooth="yes"/>
      <point x="1185" y="15"/>
      <point x="1016" y="121"/>
      <point x="1016" y="444" type="curve" smooth="yes"/>
      <point x="1016" y="1105" type="line"/>
      <point x="979" y="1105" type="line"/>
      <point x="979" y="415" type="line" smooth="yes"/>
      <point x="979" y="129"/>
      <point x="875" y="15"/>
      <point x="636" y="15" type="curve" smooth="yes"/>
      <point x="409" y="15"/>
      <point x="277" y="138"/>
      <point x="277" y="415" type="curve" smooth="yes"/>
      <point x="277" y="1105" type="line"/>
      <point x="240" y="1105" type="line"/>
      <point x="240" y="415" type="line" smooth="yes"/>
      <point x="240" y="117"/>
      <point x="388" y="-20"/>
      <point x="636" y="-20" type="curve" smooth="yes"/>
      <point x="874" y="-20"/>
      <point x="983" y="98"/>
      <point x="1000" y="320" type="curve"/>
      <point x="1002" y="320" type="line"/>
      <point x="1025" y="103"/>
      <point x="1180" y="-20"/>
      <point x="1432" y="-20" type="curve" smooth="yes"/>
      <point x="1770" y="-20"/>
      <point x="1894" y="269"/>
      <point x="1894" y="677" type="curve" smooth="yes"/>
      <point x="1894" y="728" type="line" smooth="yes"/>
      <point x="1894" y="1357"/>
      <point x="1654" y="1603"/>
    </contour>
  </outline>
</glyph>
<glyph name="Hundred.tm" format="2">
  <advance width="2140"/>
  <unicode hex="0BF1"/>
  <note>
Hundred.tm
</note>
  <outline>
    <contour>
      <point x="1742" y="1084" type="line"/>
      <point x="1742" y="0" type="line"/>
      <point x="1779" y="0" type="line"/>
      <point x="1779" y="1084" type="line"/>
    </contour>
    <contour>
      <point x="1772" y="1105" type="line"/>
      <point x="975" y="1105" type="line"/>
      <point x="982" y="818" type="line"/>
      <point x="980" y="818" type="line"/>
      <point x="956" y="1018"/>
      <point x="848" y="1125"/>
      <point x="630" y="1125" type="curve" smooth="yes"/>
      <point x="382" y="1125"/>
      <point x="234" y="986"/>
      <point x="234" y="686" type="curve" smooth="yes"/>
      <point x="234" y="0" type="line"/>
      <point x="271" y="0" type="line"/>
      <point x="271" y="686" type="line" smooth="yes"/>
      <point x="271" y="966"/>
      <point x="403" y="1090"/>
      <point x="630" y="1090" type="curve" smooth="yes"/>
      <point x="869" y="1090"/>
      <point x="973" y="964"/>
      <point x="973" y="651" type="curve" smooth="yes"/>
      <point x="973" y="0" type="line"/>
      <point x="1010" y="0" type="line"/>
      <point x="1010" y="1072" type="line"/>
      <point x="1772" y="1072" type="line"/>
    </contour>
    <component base="RaBeak_Nonexporting" xOffset="1510"/>
  </outline>
</glyph>
<glyph name="DaySign.tm" format="2">
  <advance width="2369"/>
  <unicode hex="0BF3"/>
  <note>
DaySign.tm
</note>
  <outline>
    <contour>
      <point x="1344" y="0" type="line"/>
      <point x="2337" y="0" type="line"/>
      <point x="2337" y="33" type="line"/>
      <point x="1344" y="33" type="line"/>
    </contour>
    <component base="Va_NonExporting" xOffset="10"/>
  </outline>
</glyph>
<glyph name="DebitSign.tm" format="2">
  <advance width="2434"/>
  <unicode hex="0BF6"/>
  <note>
DebitSign.tm
</note>
  <anchor x="929" y="1253" name="top"/>
  <outline>
    <contour>
      <point x="2145" y="1105" type="line"/>
      <point x="2145" y="-385" type="line"/>
      <point x="2182" y="-385" type="line"/>
      <point x="2182" y="1105" type="line"/>
    </contour>
    <contour>
      <point x="827" y="-833" type="curve" smooth="yes"/>
      <point x="1322" y="-833"/>
      <point x="1539" y="-669"/>
      <point x="1588" y="-379" type="curve"/>
      <point x="1589" y="-371" type="line"/>
      <point x="1597" y="-306"/>
      <point x="1607" y="-145"/>
      <point x="1607" y="-9" type="curve"/>
      <point x="1607" y="21" type="line"/>
      <point x="1568" y="21" type="line"/>
      <point x="1568" y="-9" type="line" smooth="yes"/>
      <point x="1568" y="-142"/>
      <point x="1557" y="-307"/>
      <point x="1547" y="-371" type="curve"/>
      <point x="1546" y="-379" type="line"/>
      <point x="1506" y="-640"/>
      <point x="1296" y="-798"/>
      <point x="827" y="-798" type="curve" smooth="yes"/>
      <point x="292" y="-798"/>
      <point x="106" y="-575"/>
      <point x="90" y="-385" type="curve"/>
      <point x="1556" y="-385" type="line"/>
      <point x="1565" y="-385" type="line"/>
      <point x="2182" y="-385" type="line"/>
      <point x="2182" y="-352" type="line"/>
      <point x="42" y="-352" type="line"/>
      <point x="63" y="-607"/>
      <point x="269" y="-833"/>
    </contour>
    <component base="Pa.tm"/>
  </outline>
</glyph>
<glyph name="RupeeSign.tm" format="2">
  <advance width="4251"/>
  <unicode hex="0BF9"/>
  <note>
RupeeSign.tm
</note>
  <outline>
    <contour>
      <point x="1743" y="1084" type="line"/>
      <point x="1743" y="0" type="line"/>
      <point x="1780" y="0" type="line"/>
      <point x="1780" y="1084" type="line"/>
    </contour>
    <contour>
      <point x="2188" y="695" type="curve" smooth="yes"/>
      <point x="1966" y="695"/>
      <point x="1824" y="575"/>
      <point x="1780" y="417" type="curve"/>
      <point x="1766" y="417" type="line"/>
      <point x="1766" y="334" type="line"/>
      <point x="1773" y="334" type="line"/>
      <point x="1827" y="549"/>
      <point x="1977" y="660"/>
      <point x="2186" y="660" type="curve" smooth="yes"/>
      <point x="2443" y="660"/>
      <point x="2542" y="514"/>
      <point x="2542" y="250" type="curve" smooth="yes"/>
      <point x="2542" y="241" type="line" smooth="yes"/>
      <point x="2542" y="-281"/>
      <point x="2202" y="-528"/>
      <point x="1486" y="-528" type="curve" smooth="yes"/>
      <point x="1468" y="-528" type="line" smooth="yes"/>
      <point x="650" y="-528"/>
      <point x="237" y="-161"/>
      <point x="237" y="542" type="curve" smooth="yes"/>
      <point x="237" y="554" type="line" smooth="yes"/>
      <point x="237" y="1303"/>
      <point x="685" y="1695"/>
      <point x="1606" y="1695" type="curve" smooth="yes"/>
      <point x="1623" y="1695" type="line" smooth="yes"/>
      <point x="2489" y="1695"/>
      <point x="2894" y="1356"/>
      <point x="2894" y="653" type="curve" smooth="yes"/>
      <point x="2894" y="634" type="line"/>
      <point x="2931" y="634" type="line"/>
      <point x="2931" y="764" type="line" smooth="yes"/>
      <point x="2931" y="1038"/>
      <point x="3100" y="1167"/>
      <point x="3359" y="1167" type="curve" smooth="yes"/>
      <point x="3596" y="1167"/>
      <point x="3705" y="1063"/>
      <point x="3705" y="885" type="curve" smooth="yes"/>
      <point x="3705" y="880" type="line" smooth="yes"/>
      <point x="3705" y="706"/>
      <point x="3621" y="605"/>
      <point x="3492" y="521" type="curve"/>
      <point x="3492" y="510" type="line"/>
      <point x="4237" y="510" type="line"/>
      <point x="4251" y="542" type="line"/>
      <point x="3552" y="542" type="line"/>
      <point x="3554" y="530" type="line"/>
      <point x="3646" y="588"/>
      <point x="3743" y="699"/>
      <point x="3743" y="880" type="curve" smooth="yes"/>
      <point x="3743" y="885" type="line" smooth="yes"/>
      <point x="3743" y="1085"/>
      <point x="3617" y="1201"/>
      <point x="3360" y="1201" type="curve" smooth="yes"/>
      <point x="3086" y="1201"/>
      <point x="2912" y="1066"/>
      <point x="2912" y="797" type="curve" smooth="yes"/>
      <point x="2912" y="792" type="line"/>
      <point x="2910" y="792" type="line"/>
      <point x="2871" y="1366"/>
      <point x="2515" y="1730"/>
      <point x="1623" y="1730" type="curve" smooth="yes"/>
      <point x="1606" y="1730" type="line" smooth="yes"/>
      <point x="661" y="1730"/>
      <point x="198" y="1322"/>
      <point x="198" y="554" type="curve" smooth="yes"/>
      <point x="198" y="542" type="line" smooth="yes"/>
      <point x="198" y="-178"/>
      <point x="626" y="-563"/>
      <point x="1468" y="-563" type="curve" smooth="yes"/>
      <point x="1486" y="-563" type="line" smooth="yes"/>
      <point x="2235" y="-563"/>
      <point x="2581" y="-294"/>
      <point x="2581" y="241" type="curve" smooth="yes"/>
      <point x="2581" y="250" type="line" smooth="yes"/>
      <point x="2581" y="536"/>
      <point x="2466" y="695"/>
    </contour>
    <contour>
      <point x="1990" y="1105" type="line"/>
      <point x="994" y="1105" type="line"/>
      <point x="994" y="0" type="line"/>
      <point x="1031" y="0" type="line"/>
      <point x="1031" y="1072" type="line"/>
      <point x="1990" y="1072" type="line"/>
    </contour>
    <component base="RaBeak_Nonexporting" xOffset="1707"/>
  </outline>
</glyph>
<glyph name="NumberSign.tm" format="2">
  <advance width="1992"/>
  <unicode hex="0BFA"/>
  <note>
NumberSign.tm
</note>
  <anchor x="1020" y="1253" name="top"/>
  <outline>
    <contour>
      <point x="1846" y="1884" type="curve" smooth="yes"/>
      <point x="1620" y="1884"/>
      <point x="1479" y="1763"/>
      <point x="1479" y="1507" type="curve" smooth="yes"/>
      <point x="1479" y="1499" type="line"/>
      <point x="1477" y="1499" type="line"/>
      <point x="1467" y="1665"/>
      <point x="1374" y="1769"/>
      <point x="1180" y="1769" type="curve" smooth="yes"/>
      <point x="979" y="1769"/>
      <point x="862" y="1633"/>
      <point x="862" y="1427" type="curve" smooth="yes"/>
      <point x="862" y="1427" type="line"/>
      <point x="862" y="1277"/>
      <point x="930" y="1162"/>
      <point x="994" y="1104" type="curve"/>
      <point x="1036" y="1104" type="line"/>
      <point x="960" y="1176"/>
      <point x="899" y="1288"/>
      <point x="899" y="1427" type="curve" smooth="yes"/>
      <point x="899" y="1427" type="line"/>
      <point x="899" y="1613"/>
      <point x="998" y="1734"/>
      <point x="1180" y="1734" type="curve" smooth="yes"/>
      <point x="1366" y="1734"/>
      <point x="1462" y="1638"/>
      <point x="1462" y="1396" type="curve" smooth="yes"/>
      <point x="1462" y="1349" type="line"/>
      <point x="1498" y="1349" type="line"/>
      <point x="1498" y="1469" type="line" smooth="yes"/>
      <point x="1498" y="1736"/>
      <point x="1634" y="1850"/>
      <point x="1846" y="1850" type="curve" smooth="yes"/>
      <point x="2040" y="1850"/>
      <point x="2133" y="1740"/>
      <point x="2133" y="1578" type="curve" smooth="yes"/>
      <point x="2133" y="1572" type="line" smooth="yes"/>
      <point x="2133" y="1412"/>
      <point x="2064" y="1319"/>
      <point x="1967" y="1240" type="curve"/>
      <point x="1967" y="1229" type="line"/>
      <point x="2659" y="1229" type="line"/>
      <point x="2664" y="1263" type="line"/>
      <point x="2022" y="1263" type="line"/>
      <point x="2023" y="1247" type="line"/>
      <point x="2094" y="1303"/>
      <point x="2171" y="1407"/>
      <point x="2171" y="1572" type="curve" smooth="yes"/>
      <point x="2171" y="1578" type="line" smooth="yes"/>
      <point x="2171" y="1762"/>
      <point x="2061" y="1884"/>
    </contour>
    <component base="Na.tm"/>
  </outline>
</glyph>
<glyph name="CaMatraI.tm" format="2">
  <advance width="2179"/>
  <note>
CaMatraI.tm
</note>
  <outline>
    <contour>
      <point x="1177" y="593" type="line"/>
      <point x="1716" y="593" type="line"/>
      <point x="1702" y="625" type="line"/>
      <point x="1177" y="625" type="line"/>
    </contour>
    <contour>
      <point x="1497" y="1776" type="curve" smooth="yes"/>
      <point x="1221" y="1776"/>
      <point x="1069" y="1623"/>
      <point x="1069" y="1383" type="curve" smooth="yes"/>
      <point x="1069" y="1383" type="line" smooth="yes"/>
      <point x="1069" y="1247"/>
      <point x="1116" y="1153"/>
      <point x="1152" y="1104" type="curve"/>
      <point x="1191" y="1104" type="line"/>
      <point x="1146" y="1169"/>
      <point x="1107" y="1249"/>
      <point x="1107" y="1383" type="curve" smooth="yes"/>
      <point x="1107" y="1383" type="line" smooth="yes"/>
      <point x="1107" y="1607"/>
      <point x="1247" y="1741"/>
      <point x="1497" y="1741" type="curve" smooth="yes"/>
      <point x="1774" y="1741"/>
      <point x="1890" y="1600"/>
      <point x="1890" y="1302" type="curve" smooth="yes"/>
      <point x="1890" y="0" type="line"/>
      <point x="1927" y="0" type="line"/>
      <point x="1927" y="1307" type="line" smooth="yes"/>
      <point x="1927" y="1620"/>
      <point x="1793" y="1776"/>
    </contour>
    <component base="KaComponent_Nonexporting" xOffset="63"/>
    <component base="KaBeak_Nonexporting" xOffset="1191"/>
  </outline>
</glyph>
<glyph name="CaMatraU.tm" format="2">
  <advance width="2106"/>
  <note>
CaMatraU.tm
</note>
  <outline>
    <contour>
      <point x="1177" y="593" type="line"/>
      <point x="2050" y="593" type="line"/>
      <point x="2036" y="625" type="line"/>
      <point x="1177" y="625" type="line"/>
    </contour>
    <contour>
      <point x="1678" y="602" type="line"/>
      <point x="1678" y="0" type="line"/>
      <point x="1715" y="0" type="line"/>
      <point x="1715" y="602" type="line"/>
    </contour>
    <component base="KaComponent_Nonexporting" xOffset="63"/>
    <component base="KaBeak_Nonexporting" xOffset="1209"/>
  </outline>
</glyph>
<glyph name="CaMatraUu.tm" format="2">
  <advance width="3031"/>
  <note>
CaMatraUu.tm
</note>
  <outline>
    <contour>
      <point x="1808" y="593" type="line"/>
      <point x="2274" y="593" type="line"/>
      <point x="2289" y="593" type="line"/>
      <point x="2771" y="593" type="line"/>
      <point x="2757" y="625" type="line"/>
      <point x="1808" y="625" type="line"/>
    </contour>
    <contour>
      <point x="2261" y="609" type="line"/>
      <point x="2261" y="0" type="line"/>
      <point x="2298" y="0" type="line"/>
      <point x="2298" y="609" type="line"/>
    </contour>
    <contour>
      <point x="440" y="1105" type="line"/>
      <point x="343" y="999"/>
      <point x="196" y="750"/>
      <point x="196" y="371" type="curve" smooth="yes"/>
      <point x="196" y="-324"/>
      <point x="700" y="-655"/>
      <point x="1675" y="-655" type="curve" smooth="yes"/>
      <point x="1681" y="-655" type="line" smooth="yes"/>
      <point x="2523" y="-655"/>
      <point x="2957" y="-387"/>
      <point x="2957" y="40" type="curve" smooth="yes"/>
      <point x="2957" y="44" type="line" smooth="yes"/>
      <point x="2957" y="259"/>
      <point x="2850" y="384"/>
      <point x="2637" y="384" type="curve" smooth="yes"/>
      <point x="2460" y="384"/>
      <point x="2340" y="283"/>
      <point x="2298" y="176" type="curve"/>
      <point x="2284" y="176" type="line"/>
      <point x="2284" y="113" type="line"/>
      <point x="2291" y="113" type="line"/>
      <point x="2342" y="262"/>
      <point x="2466" y="350"/>
      <point x="2633" y="350" type="curve" smooth="yes"/>
      <point x="2827" y="350"/>
      <point x="2919" y="239"/>
      <point x="2919" y="44" type="curve" smooth="yes"/>
      <point x="2919" y="40" type="line" smooth="yes"/>
      <point x="2919" y="-369"/>
      <point x="2507" y="-620"/>
      <point x="1681" y="-620" type="curve" smooth="yes"/>
      <point x="1675" y="-620" type="line" smooth="yes"/>
      <point x="724" y="-620"/>
      <point x="235" y="-300"/>
      <point x="235" y="371" type="curve" smooth="yes"/>
      <point x="235" y="732"/>
      <point x="367" y="970"/>
      <point x="486" y="1105" type="curve"/>
    </contour>
    <component base="KaComponent_Nonexporting" xOffset="689"/>
    <component base="KaBeak_Nonexporting" xOffset="1905"/>
  </outline>
</glyph>
<glyph name="CaMatraUu_Simple.tm" format="2">
  <advance width="3083"/>
  <note>
CaMatraUu.tm
</note>
  <outline>
    <contour>
      <point x="1860" y="593" type="line"/>
      <point x="2326" y="593" type="line"/>
      <point x="2341" y="593" type="line"/>
      <point x="2823" y="593" type="line"/>
      <point x="2809" y="625" type="line"/>
      <point x="1860" y="625" type="line"/>
    </contour>
    <contour>
      <point x="2313" y="609" type="line"/>
      <point x="2313" y="0" type="line"/>
      <point x="2350" y="0" type="line"/>
      <point x="2350" y="609" type="line"/>
    </contour>
    <contour>
      <point x="248" y="1105" type="line"/>
      <point x="248" y="361" type="line"/>
      <point x="248" y="-317"/>
      <point x="752" y="-655"/>
      <point x="1727" y="-655" type="curve" smooth="yes"/>
      <point x="1733" y="-655" type="line" smooth="yes"/>
      <point x="2575" y="-655"/>
      <point x="3009" y="-387"/>
      <point x="3009" y="40" type="curve" smooth="yes"/>
      <point x="3009" y="44" type="line" smooth="yes"/>
      <point x="3009" y="259"/>
      <point x="2902" y="384"/>
      <point x="2689" y="384" type="curve" smooth="yes"/>
      <point x="2513" y="384"/>
      <point x="2393" y="283"/>
      <point x="2351" y="176" type="curve"/>
      <point x="2337" y="176" type="line"/>
      <point x="2337" y="113" type="line"/>
      <point x="2344" y="113" type="line"/>
      <point x="2395" y="262"/>
      <point x="2518" y="350"/>
      <point x="2685" y="350" type="curve" smooth="yes"/>
      <point x="2879" y="350"/>
      <point x="2971" y="239"/>
      <point x="2971" y="44" type="curve" smooth="yes"/>
      <point x="2971" y="40" type="line" smooth="yes"/>
      <point x="2971" y="-369"/>
      <point x="2559" y="-620"/>
      <point x="1733" y="-620" type="curve" smooth="yes"/>
      <point x="1727" y="-620" type="line" smooth="yes"/>
      <point x="776" y="-620"/>
      <point x="287" y="-293"/>
      <point x="287" y="361" type="curve"/>
      <point x="287" y="1105" type="line"/>
    </contour>
    <component base="KaComponent_Nonexporting" xOffset="741"/>
    <component base="KaBeak_Nonexporting" xOffset="1957"/>
  </outline>
</glyph>
<glyph name="DebitSign_Simple.tm" format="2">
  <advance width="2434"/>
  <note>
DebitSign.tm
</note>
  <anchor x="929" y="1253" name="top"/>
  <outline>
    <contour>
      <point x="2182" y="-398" type="line"/>
      <point x="148" y="-398" type="line"/>
      <point x="160" y="-431" type="line"/>
      <point x="2182" y="-431" type="line"/>
    </contour>
    <contour>
      <point x="2145" y="1105" type="line"/>
      <point x="2145" y="-422" type="line"/>
      <point x="2182" y="-422" type="line"/>
      <point x="2182" y="1105" type="line"/>
    </contour>
    <contour>
      <point x="1570" y="225" type="line"/>
      <point x="1570" y="-422" type="line"/>
      <point x="1607" y="-422" type="line"/>
      <point x="1607" y="225" type="line"/>
    </contour>
    <component base="Pa.tm"/>
  </outline>
</glyph>
<glyph name="HaMatraI.tm" format="2">
  <advance width="4440"/>
  <note>
HaMatraI.tm
</note>
  <anchor x="1736" y="1253" name="top"/>
  <outline>
    <contour>
      <point x="3705" y="1776" type="curve" smooth="yes"/>
      <point x="3423" y="1776"/>
      <point x="3239" y="1617"/>
      <point x="3239" y="1353" type="curve" smooth="yes"/>
      <point x="3239" y="1353" type="line" smooth="yes"/>
      <point x="3239" y="1253"/>
      <point x="3270" y="1165"/>
      <point x="3305" y="1115" type="curve"/>
      <point x="3343" y="1115" type="line"/>
      <point x="3307" y="1165"/>
      <point x="3274" y="1253"/>
      <point x="3274" y="1351" type="curve" smooth="yes"/>
      <point x="3274" y="1351" type="line" smooth="yes"/>
      <point x="3274" y="1603"/>
      <point x="3447" y="1741"/>
      <point x="3705" y="1741" type="curve" smooth="yes"/>
      <point x="4010" y="1741"/>
      <point x="4151" y="1594"/>
      <point x="4151" y="1238" type="curve" smooth="yes"/>
      <point x="4151" y="0" type="line"/>
      <point x="4188" y="0" type="line"/>
      <point x="4188" y="1243" type="line" smooth="yes"/>
      <point x="4188" y="1613"/>
      <point x="4032" y="1776"/>
    </contour>
    <component base="Ha.tm"/>
  </outline>
</glyph>
<glyph name="HaMatraI_Fly.tm" format="2">
  <advance width="3875"/>
  <note>
HaMatraI.tm
</note>
  <anchor x="1736" y="1253" name="top"/>
  <outline>
    <contour>
      <point x="3807" y="1573" type="line"/>
      <point x="3442" y="1573" type="line" smooth="yes"/>
      <point x="3235" y="1573"/>
      <point x="3145" y="1507"/>
      <point x="3145" y="1366" type="curve" smooth="yes"/>
      <point x="3145" y="1288"/>
      <point x="3182" y="1205"/>
      <point x="3254" y="1119" type="curve"/>
      <point x="3298" y="1119" type="line"/>
      <point x="3221" y="1212"/>
      <point x="3184" y="1285"/>
      <point x="3184" y="1364" type="curve" smooth="yes"/>
      <point x="3184" y="1490"/>
      <point x="3266" y="1538"/>
      <point x="3453" y="1538" type="curve" smooth="yes"/>
      <point x="3821" y="1538" type="line"/>
    </contour>
    <component base="Ha.tm"/>
  </outline>
</glyph>
<glyph name="HaMatraIi.tm" format="2">
  <advance width="3875"/>
  <note>
HaMatraIi.tm
</note>
  <anchor x="1736" y="1253" name="top"/>
  <outline>
    <contour>
      <point x="3668" y="1843" type="curve" smooth="yes"/>
      <point x="3360" y="1843"/>
      <point x="3191" y="1711"/>
      <point x="3191" y="1457" type="curve" smooth="yes"/>
      <point x="3191" y="1457" type="line" smooth="yes"/>
      <point x="3191" y="1309"/>
      <point x="3251" y="1184"/>
      <point x="3302" y="1115" type="curve"/>
      <point x="3344" y="1115" type="line"/>
      <point x="3283" y="1194"/>
      <point x="3228" y="1322"/>
      <point x="3228" y="1456" type="curve" smooth="yes"/>
      <point x="3228" y="1456" type="line" smooth="yes"/>
      <point x="3228" y="1648"/>
      <point x="3330" y="1760"/>
      <point x="3519" y="1797" type="curve"/>
      <point x="3519" y="1797" type="line"/>
      <point x="3564" y="1805"/>
      <point x="3616" y="1809"/>
      <point x="3670" y="1809" type="curve" smooth="yes"/>
      <point x="3907" y="1809"/>
      <point x="4022" y="1732"/>
      <point x="4022" y="1588" type="curve" smooth="yes"/>
      <point x="4022" y="1584" type="line" smooth="yes"/>
      <point x="4022" y="1443"/>
      <point x="3939" y="1373"/>
      <point x="3767" y="1373" type="curve" smooth="yes"/>
      <point x="3578" y="1373"/>
      <point x="3499" y="1466"/>
      <point x="3499" y="1609" type="curve" smooth="yes"/>
      <point x="3499" y="1612" type="line" smooth="yes"/>
      <point x="3499" y="1693"/>
      <point x="3518" y="1755"/>
      <point x="3548" y="1809" type="curve"/>
      <point x="3519" y="1809" type="line"/>
      <point x="3519" y="1797" type="line"/>
      <point x="3486" y="1755"/>
      <point x="3462" y="1689"/>
      <point x="3462" y="1605" type="curve" smooth="yes"/>
      <point x="3462" y="1602" type="line" smooth="yes"/>
      <point x="3462" y="1448"/>
      <point x="3557" y="1339"/>
      <point x="3770" y="1339" type="curve" smooth="yes"/>
      <point x="3964" y="1339"/>
      <point x="4059" y="1427"/>
      <point x="4059" y="1584" type="curve" smooth="yes"/>
      <point x="4059" y="1588" type="line" smooth="yes"/>
      <point x="4059" y="1748"/>
      <point x="3928" y="1843"/>
    </contour>
    <component base="Ha.tm"/>
  </outline>
</glyph>
<glyph name="HaMatraIi_Simple_SimpleIi.tm" format="2">
  <advance width="3875"/>
  <note>
HaMatraIi.tm
</note>
  <anchor x="2871" y="1253" name="top"/>
  <outline>
    <contour>
      <point x="1682" y="32" type="line"/>
      <point x="1682" y="0" type="line"/>
      <point x="2108" y="0" type="line"/>
      <point x="2108" y="32" type="line"/>
    </contour>
    <contour>
      <point x="2159" y="-352" type="line"/>
      <point x="133" y="-352" type="line"/>
      <point x="147" y="-385" type="line"/>
      <point x="2159" y="-385" type="line"/>
    </contour>
    <component base="Va_NonExporting" xOffset="10"/>
    <component base="RraMatraIi_Simple_SimpleIi.tm" xOffset="1834"/>
  </outline>
</glyph>
<glyph name="JaMatraI.tm" format="2">
  <advance width="2924"/>
  <note>
JaMatraI.tm
</note>
  <anchor x="1345" y="1253" name="top"/>
  <outline>
    <contour>
      <point x="2222" y="1776" type="curve" smooth="yes"/>
      <point x="1934" y="1776"/>
      <point x="1775" y="1623"/>
      <point x="1775" y="1383" type="curve" smooth="yes"/>
      <point x="1775" y="1383" type="line" smooth="yes"/>
      <point x="1775" y="1261"/>
      <point x="1813" y="1173"/>
      <point x="1846" y="1120" type="curve"/>
      <point x="1886" y="1120" type="line"/>
      <point x="1846" y="1182"/>
      <point x="1813" y="1260"/>
      <point x="1813" y="1383" type="curve" smooth="yes"/>
      <point x="1813" y="1383" type="line" smooth="yes"/>
      <point x="1813" y="1607"/>
      <point x="1960" y="1741"/>
      <point x="2222" y="1741" type="curve" smooth="yes"/>
      <point x="2514" y="1741"/>
      <point x="2635" y="1598"/>
      <point x="2635" y="1297" type="curve" smooth="yes"/>
      <point x="2635" y="0" type="line"/>
      <point x="2672" y="0" type="line"/>
      <point x="2672" y="1302" type="line" smooth="yes"/>
      <point x="2672" y="1618"/>
      <point x="2531" y="1776"/>
    </contour>
    <component base="Ja.tm"/>
  </outline>
</glyph>
<glyph name="JaMatraI_Fly.tm" format="2">
  <advance width="2359"/>
  <note>
JaMatraI.tm
</note>
  <anchor x="1345" y="1253" name="top"/>
  <outline>
    <contour>
      <point x="2328" y="1573" type="line"/>
      <point x="1963" y="1573" type="line" smooth="yes"/>
      <point x="1756" y="1573"/>
      <point x="1666" y="1507"/>
      <point x="1666" y="1366" type="curve" smooth="yes"/>
      <point x="1666" y="1289"/>
      <point x="1702" y="1208"/>
      <point x="1772" y="1124" type="curve"/>
      <point x="1816" y="1124" type="line"/>
      <point x="1742" y="1212"/>
      <point x="1705" y="1286"/>
      <point x="1705" y="1364" type="curve" smooth="yes"/>
      <point x="1705" y="1490"/>
      <point x="1787" y="1538"/>
      <point x="1974" y="1538" type="curve" smooth="yes"/>
      <point x="2342" y="1538" type="line"/>
    </contour>
    <component base="Ja.tm"/>
  </outline>
</glyph>
<glyph name="JaMatraIi.tm" format="2">
  <advance width="2359"/>
  <note>
JaMatraIi.tm
</note>
  <anchor x="1345" y="1253" name="top"/>
  <outline>
    <contour>
      <point x="2189" y="1843" type="curve" smooth="yes"/>
      <point x="1881" y="1843"/>
      <point x="1712" y="1711"/>
      <point x="1712" y="1457" type="curve" smooth="yes"/>
      <point x="1712" y="1457" type="line" smooth="yes"/>
      <point x="1712" y="1315"/>
      <point x="1770" y="1191"/>
      <point x="1812" y="1130" type="curve"/>
      <point x="1855" y="1130" type="line"/>
      <point x="1801" y="1203"/>
      <point x="1749" y="1324"/>
      <point x="1749" y="1456" type="curve" smooth="yes"/>
      <point x="1749" y="1456" type="line" smooth="yes"/>
      <point x="1749" y="1648"/>
      <point x="1851" y="1760"/>
      <point x="2040" y="1797" type="curve"/>
      <point x="2040" y="1797" type="line"/>
      <point x="2085" y="1805"/>
      <point x="2137" y="1809"/>
      <point x="2191" y="1809" type="curve" smooth="yes"/>
      <point x="2428" y="1809"/>
      <point x="2543" y="1732"/>
      <point x="2543" y="1588" type="curve" smooth="yes"/>
      <point x="2543" y="1584" type="line" smooth="yes"/>
      <point x="2543" y="1443"/>
      <point x="2460" y="1373"/>
      <point x="2288" y="1373" type="curve" smooth="yes"/>
      <point x="2099" y="1373"/>
      <point x="2020" y="1466"/>
      <point x="2020" y="1609" type="curve" smooth="yes"/>
      <point x="2020" y="1612" type="line" smooth="yes"/>
      <point x="2020" y="1693"/>
      <point x="2039" y="1755"/>
      <point x="2069" y="1809" type="curve"/>
      <point x="2040" y="1809" type="line"/>
      <point x="2040" y="1797" type="line"/>
      <point x="2007" y="1755"/>
      <point x="1983" y="1689"/>
      <point x="1983" y="1605" type="curve" smooth="yes"/>
      <point x="1983" y="1602" type="line" smooth="yes"/>
      <point x="1983" y="1448"/>
      <point x="2078" y="1339"/>
      <point x="2291" y="1339" type="curve" smooth="yes"/>
      <point x="2485" y="1339"/>
      <point x="2580" y="1427"/>
      <point x="2580" y="1584" type="curve" smooth="yes"/>
      <point x="2580" y="1588" type="line" smooth="yes"/>
      <point x="2580" y="1748"/>
      <point x="2449" y="1843"/>
    </contour>
    <component base="Ja.tm"/>
  </outline>
</glyph>
<glyph name="JaMatraUu_Fused_SimpleUu.tm" format="2">
  <advance width="3958"/>
  <note>
JaMatraUu.tm
</note>
  <outline>
    <contour>
      <point x="2197" y="1105" type="line"/>
      <point x="1914" y="1105" type="line"/>
      <point x="1982" y="1072" type="line"/>
      <point x="2197" y="1072" type="line"/>
    </contour>
    <contour>
      <point x="1774" y="1135" type="curve" smooth="yes"/>
      <point x="1516" y="1135"/>
      <point x="1384" y="994"/>
      <point x="1373" y="757" type="curve"/>
      <point x="1371" y="757" type="line"/>
      <point x="1338" y="1012"/>
      <point x="1169" y="1151"/>
      <point x="803" y="1151" type="curve" smooth="yes"/>
      <point x="396" y="1151"/>
      <point x="180" y="956"/>
      <point x="180" y="620" type="curve" smooth="yes"/>
      <point x="180" y="616" type="line" smooth="yes"/>
      <point x="180" y="354"/>
      <point x="321" y="192"/>
      <point x="611" y="192" type="curve"/>
      <point x="798" y="218" type="line"/>
      <point x="929" y="262"/>
      <point x="992" y="380"/>
      <point x="992" y="521" type="curve" smooth="yes"/>
      <point x="992" y="526" type="line" smooth="yes"/>
      <point x="992" y="728"/>
      <point x="871" y="844"/>
      <point x="629" y="844" type="curve" smooth="yes"/>
      <point x="419" y="844"/>
      <point x="269" y="742"/>
      <point x="217" y="627" type="curve"/>
      <point x="206" y="627" type="line"/>
      <point x="206" y="535" type="line"/>
      <point x="242" y="685"/>
      <point x="405" y="810"/>
      <point x="625" y="810" type="curve" smooth="yes"/>
      <point x="849" y="810"/>
      <point x="954" y="708"/>
      <point x="954" y="526" type="curve" smooth="yes"/>
      <point x="954" y="521" type="line" smooth="yes"/>
      <point x="954" y="340"/>
      <point x="845" y="222"/>
      <point x="615" y="222" type="curve" smooth="yes"/>
      <point x="347" y="222"/>
      <point x="219" y="373"/>
      <point x="219" y="605" type="curve"/>
      <point x="219" y="627" type="line"/>
      <point x="217" y="627" type="line"/>
      <point x="217" y="939"/>
      <point x="432" y="1117"/>
      <point x="803" y="1117" type="curve" smooth="yes"/>
      <point x="1208" y="1117"/>
      <point x="1356" y="949"/>
      <point x="1356" y="632" type="curve" smooth="yes"/>
      <point x="1356" y="440" type="line"/>
      <point x="1393" y="440" type="line"/>
      <point x="1393" y="676" type="line" smooth="yes"/>
      <point x="1393" y="995"/>
      <point x="1551" y="1101"/>
      <point x="1773" y="1101" type="curve" smooth="yes"/>
      <point x="2048" y="1101"/>
      <point x="2147" y="949"/>
      <point x="2147" y="708" type="curve" smooth="yes"/>
      <point x="2147" y="702" type="line" smooth="yes"/>
      <point x="2147" y="412"/>
      <point x="2011" y="265"/>
      <point x="1570" y="250" type="curve" smooth="yes"/>
      <point x="805" y="224" type="line"/>
      <point x="609" y="208" type="line"/>
      <point x="315" y="167"/>
      <point x="213" y="26"/>
      <point x="213" y="-176" type="curve" smooth="yes"/>
      <point x="213" y="-181" type="line" smooth="yes"/>
      <point x="213" y="-401"/>
      <point x="344" y="-539"/>
      <point x="595" y="-539" type="curve" smooth="yes"/>
      <point x="831" y="-539"/>
      <point x="954" y="-428"/>
      <point x="1093" y="-290" type="curve" smooth="yes"/>
      <point x="1337" y="-49" type="line" smooth="yes"/>
      <point x="1501" y="113"/>
      <point x="1634" y="236"/>
      <point x="1848" y="236" type="curve" smooth="yes"/>
      <point x="2048" y="236"/>
      <point x="2145" y="92"/>
      <point x="2145" y="-114" type="curve" smooth="yes"/>
      <point x="2145" y="-120" type="line" smooth="yes"/>
      <point x="2145" y="-372"/>
      <point x="2029" y="-504"/>
      <point x="1762" y="-504" type="curve" smooth="yes"/>
      <point x="1634" y="-504"/>
      <point x="1509" y="-478"/>
      <point x="1387" y="-430" type="curve"/>
      <point x="1400" y="-470" type="line"/>
      <point x="1516" y="-514"/>
      <point x="1639" y="-539"/>
      <point x="1764" y="-539" type="curve" smooth="yes"/>
      <point x="2049" y="-539"/>
      <point x="2183" y="-394"/>
      <point x="2183" y="-120" type="curve" smooth="yes"/>
      <point x="2183" y="-114" type="line" smooth="yes"/>
      <point x="2183" y="94"/>
      <point x="2086" y="255"/>
      <point x="1883" y="263" type="curve"/>
      <point x="1850" y="269" type="line"/>
      <point x="1639" y="269"/>
      <point x="1482" y="144"/>
      <point x="1313" y="-23" type="curve" smooth="yes"/>
      <point x="1069" y="-264" type="line" smooth="yes"/>
      <point x="933" y="-398"/>
      <point x="808" y="-505"/>
      <point x="597" y="-505" type="curve" smooth="yes"/>
      <point x="362" y="-505"/>
      <point x="251" y="-382"/>
      <point x="251" y="-181" type="curve" smooth="yes"/>
      <point x="251" y="-176" type="line" smooth="yes"/>
      <point x="251" y="48"/>
      <point x="371" y="177"/>
      <point x="814" y="192" type="curve" smooth="yes"/>
      <point x="1574" y="217" type="line" smooth="yes"/>
      <point x="2043" y="232"/>
      <point x="2185" y="399"/>
      <point x="2185" y="704" type="curve" smooth="yes"/>
      <point x="2185" y="709" type="line" smooth="yes"/>
      <point x="2185" y="882"/>
      <point x="2135" y="1016"/>
      <point x="2007" y="1081" type="curve"/>
      <point x="1996" y="1091" type="line"/>
      <point x="1938" y="1119"/>
      <point x="1866" y="1135"/>
    </contour>
    <component base="MatraUuDflt_Simple.tm" xOffset="2028"/>
  </outline>
</glyph>
<glyph name="KaBeak_Nonexporting" format="2">
  <advance width="354"/>
  <outline>
    <contour>
      <point x="-30" y="1073" type="line"/>
      <point x="354" y="1073" type="line"/>
      <point x="340" y="1105" type="line"/>
      <point x="-30" y="1105" type="line"/>
    </contour>
  </outline>
</glyph>
<glyph name="KaMatraU.tm" format="2">
  <advance width="2555"/>
  <note>
KaMatraU.tm
</note>
  <outline>
    <contour>
      <point x="1792" y="593" type="line"/>
      <point x="1826" y="593" type="line" smooth="yes"/>
      <point x="2219" y="593"/>
      <point x="2380" y="450"/>
      <point x="2380" y="143" type="curve" smooth="yes"/>
      <point x="2380" y="140" type="line" smooth="yes"/>
      <point x="2380" y="-258"/>
      <point x="2080" y="-514"/>
      <point x="1390" y="-514" type="curve" smooth="yes"/>
      <point x="1385" y="-514" type="line" smooth="yes"/>
      <point x="616" y="-514"/>
      <point x="235" y="-195"/>
      <point x="235" y="406" type="curve" smooth="yes"/>
      <point x="235" y="747"/>
      <point x="358" y="969"/>
      <point x="486" y="1105" type="curve"/>
      <point x="440" y="1105" type="line"/>
      <point x="334" y="997"/>
      <point x="196" y="764"/>
      <point x="196" y="406" type="curve" smooth="yes"/>
      <point x="196" y="-219"/>
      <point x="592" y="-549"/>
      <point x="1385" y="-549" type="curve" smooth="yes"/>
      <point x="1390" y="-549" type="line" smooth="yes"/>
      <point x="2098" y="-549"/>
      <point x="2419" y="-282"/>
      <point x="2419" y="140" type="curve" smooth="yes"/>
      <point x="2419" y="143" type="line" smooth="yes"/>
      <point x="2419" y="466"/>
      <point x="2245" y="625"/>
      <point x="1833" y="625" type="curve" smooth="yes"/>
      <point x="1792" y="625" type="line"/>
    </contour>
    <component base="KaComponent_Nonexporting" xOffset="678"/>
    <component base="KaBeak_Nonexporting" xOffset="1894"/>
  </outline>
</glyph>
<glyph name="KaMatraU_Simple.tm" format="2">
  <advance width="2603"/>
  <note>
KaMatraU.tm
</note>
  <outline>
    <contour>
      <point x="1840" y="593" type="line"/>
      <point x="1884" y="593" type="line" smooth="yes"/>
      <point x="2270" y="593"/>
      <point x="2428" y="463"/>
      <point x="2428" y="153" type="curve" smooth="yes"/>
      <point x="2428" y="150" type="line" smooth="yes"/>
      <point x="2428" y="-255"/>
      <point x="2137" y="-516"/>
      <point x="1468" y="-516" type="curve" smooth="yes"/>
      <point x="1463" y="-516" type="line" smooth="yes"/>
      <point x="684" y="-516"/>
      <point x="283" y="-209"/>
      <point x="283" y="396" type="curve"/>
      <point x="283" y="1105" type="line"/>
      <point x="244" y="1105" type="line"/>
      <point x="244" y="396" type="line"/>
      <point x="244" y="-232"/>
      <point x="660" y="-549"/>
      <point x="1463" y="-549" type="curve" smooth="yes"/>
      <point x="1468" y="-549" type="line" smooth="yes"/>
      <point x="2155" y="-549"/>
      <point x="2467" y="-278"/>
      <point x="2467" y="150" type="curve" smooth="yes"/>
      <point x="2467" y="153" type="line" smooth="yes"/>
      <point x="2467" y="479"/>
      <point x="2296" y="625"/>
      <point x="1891" y="625" type="curve" smooth="yes"/>
      <point x="1840" y="625" type="line"/>
    </contour>
    <component base="KaComponent_Nonexporting" xOffset="726"/>
    <component base="KaBeak_Nonexporting" xOffset="1942"/>
  </outline>
</glyph>
<glyph name="KaMatraUu.tm" format="2">
  <advance width="3161"/>
  <note>
KaMatraUu.tm
</note>
  <outline>
    <contour>
      <point x="1181" y="593" type="line"/>
      <point x="1376" y="593" type="line" smooth="yes"/>
      <point x="1625" y="593"/>
      <point x="1713" y="516"/>
      <point x="1713" y="282" type="curve" smooth="yes"/>
      <point x="1713" y="0" type="line"/>
      <point x="1750" y="0" type="line"/>
      <point x="1750" y="312" type="line" smooth="yes"/>
      <point x="1750" y="590"/>
      <point x="1926" y="702"/>
      <point x="2156" y="702" type="curve" smooth="yes"/>
      <point x="2397" y="702"/>
      <point x="2504" y="586"/>
      <point x="2504" y="389" type="curve" smooth="yes"/>
      <point x="2504" y="385" type="line" smooth="yes"/>
      <point x="2504" y="202"/>
      <point x="2428" y="99"/>
      <point x="2312" y="9" type="curve"/>
      <point x="2312" y="0" type="line"/>
      <point x="3117" y="0" type="line"/>
      <point x="3129" y="33" type="line"/>
      <point x="2363" y="33" type="line"/>
      <point x="2365" y="16" type="line"/>
      <point x="2451" y="79"/>
      <point x="2543" y="194"/>
      <point x="2543" y="385" type="curve" smooth="yes"/>
      <point x="2543" y="389" type="line" smooth="yes"/>
      <point x="2543" y="610"/>
      <point x="2423" y="737"/>
      <point x="2159" y="737" type="curve" smooth="yes"/>
      <point x="1907" y="737"/>
      <point x="1733" y="601"/>
      <point x="1733" y="355" type="curve" smooth="yes"/>
      <point x="1733" y="340" type="line"/>
      <point x="1730" y="340" type="line"/>
      <point x="1726" y="532"/>
      <point x="1640" y="625"/>
      <point x="1379" y="625" type="curve" smooth="yes"/>
      <point x="1181" y="625" type="line"/>
    </contour>
    <component base="KaComponent_Nonexporting" xOffset="63"/>
    <component base="KaBeak_Nonexporting" xOffset="1279"/>
  </outline>
</glyph>
<glyph name="Kssa.tm" format="2">
  <advance width="4193"/>
  <note>
Ksha.tm
</note>
  <anchor x="2369" y="1253" name="top"/>
  <outline>
    <contour>
      <point x="1174" y="593" type="line"/>
      <point x="1376" y="593" type="line" smooth="yes"/>
      <point x="1625" y="593"/>
      <point x="1713" y="516"/>
      <point x="1713" y="282" type="curve"/>
      <point x="1713" y="0" type="line"/>
      <point x="1750" y="0" type="line"/>
      <point x="1750" y="312" type="line" smooth="yes"/>
      <point x="1750" y="590"/>
      <point x="1926" y="702"/>
      <point x="2156" y="702" type="curve" smooth="yes"/>
      <point x="2397" y="702"/>
      <point x="2504" y="586"/>
      <point x="2504" y="389" type="curve" smooth="yes"/>
      <point x="2504" y="385" type="line" smooth="yes"/>
      <point x="2504" y="202"/>
      <point x="2428" y="99"/>
      <point x="2312" y="9" type="curve"/>
      <point x="2312" y="0" type="line"/>
      <point x="3025" y="0" type="line"/>
      <point x="3025" y="33" type="line"/>
      <point x="2363" y="33" type="line"/>
      <point x="2365" y="16" type="line"/>
      <point x="2451" y="79"/>
      <point x="2543" y="194"/>
      <point x="2543" y="385" type="curve" smooth="yes"/>
      <point x="2543" y="389" type="line" smooth="yes"/>
      <point x="2543" y="610"/>
      <point x="2423" y="737"/>
      <point x="2159" y="737" type="curve" smooth="yes"/>
      <point x="1907" y="737"/>
      <point x="1733" y="601"/>
      <point x="1733" y="355" type="curve" smooth="yes"/>
      <point x="1733" y="340" type="line"/>
      <point x="1730" y="340" type="line"/>
      <point x="1726" y="532"/>
      <point x="1640" y="625"/>
      <point x="1379" y="625" type="curve" smooth="yes"/>
      <point x="1174" y="625" type="line"/>
    </contour>
    <component base="KaComponent_Nonexporting" xOffset="63"/>
    <component base="Ssa_Above_NonExporting" xOffset="2495"/>
    <component base="Ssa_Below_NonExporting" xOffset="3068"/>
    <component base="KaBeak_Nonexporting" xOffset="1279"/>
  </outline>
</glyph>
<glyph name="KssaMatraI.tm" format="2">
  <advance width="4681"/>
  <note>
KshaMatraI.tm
</note>
  <anchor x="2369" y="1253" name="top"/>
  <outline>
    <contour>
      <point x="3904" y="1776" type="curve" smooth="yes"/>
      <point x="3594" y="1776"/>
      <point x="3392" y="1612"/>
      <point x="3392" y="1343" type="curve" smooth="yes"/>
      <point x="3392" y="1343" type="line" smooth="yes"/>
      <point x="3392" y="1247"/>
      <point x="3419" y="1166"/>
      <point x="3450" y="1115" type="curve"/>
      <point x="3486" y="1115" type="line"/>
      <point x="3455" y="1166"/>
      <point x="3427" y="1247"/>
      <point x="3427" y="1341" type="curve" smooth="yes"/>
      <point x="3427" y="1341" type="line" smooth="yes"/>
      <point x="3427" y="1600"/>
      <point x="3619" y="1741"/>
      <point x="3904" y="1741" type="curve" smooth="yes"/>
      <point x="4239" y="1741"/>
      <point x="4392" y="1589"/>
      <point x="4392" y="1223" type="curve" smooth="yes"/>
      <point x="4392" y="0" type="line"/>
      <point x="4429" y="0" type="line"/>
      <point x="4429" y="1228" type="line" smooth="yes"/>
      <point x="4429" y="1608"/>
      <point x="4260" y="1776"/>
    </contour>
    <component base="Kssa.tm"/>
  </outline>
</glyph>
<glyph name="KssaMatraI_Fly.tm" format="2">
  <advance width="4193"/>
  <note>
KshaMatraI.tm
</note>
  <anchor x="2369" y="1253" name="top"/>
  <outline>
    <contour>
      <point x="3904" y="1573" type="line"/>
      <point x="3539" y="1573" type="line" smooth="yes"/>
      <point x="3332" y="1573"/>
      <point x="3242" y="1507"/>
      <point x="3242" y="1366" type="curve" smooth="yes"/>
      <point x="3242" y="1288"/>
      <point x="3279" y="1205"/>
      <point x="3351" y="1119" type="curve"/>
      <point x="3395" y="1119" type="line"/>
      <point x="3318" y="1212"/>
      <point x="3281" y="1285"/>
      <point x="3281" y="1364" type="curve" smooth="yes"/>
      <point x="3281" y="1490"/>
      <point x="3363" y="1538"/>
      <point x="3550" y="1538" type="curve" smooth="yes"/>
      <point x="3918" y="1538" type="line"/>
    </contour>
    <component base="Kssa.tm"/>
  </outline>
</glyph>
<glyph name="KssaMatraI_Simple.tm" format="2">
  <advance width="4621"/>
  <note>
KshaMatraI.tm
</note>
  <anchor x="2369" y="1253" name="top"/>
  <outline>
    <contour>
      <point x="3844" y="1776" type="curve" smooth="yes"/>
      <point x="3534" y="1776"/>
      <point x="3332" y="1612"/>
      <point x="3332" y="1343" type="curve" smooth="yes"/>
      <point x="3332" y="1343" type="line" smooth="yes"/>
      <point x="3332" y="1247"/>
      <point x="3359" y="1166"/>
      <point x="3390" y="1115" type="curve"/>
      <point x="3426" y="1115" type="line"/>
      <point x="3395" y="1166"/>
      <point x="3367" y="1247"/>
      <point x="3367" y="1341" type="curve" smooth="yes"/>
      <point x="3367" y="1341" type="line" smooth="yes"/>
      <point x="3367" y="1600"/>
      <point x="3559" y="1741"/>
      <point x="3844" y="1741" type="curve" smooth="yes"/>
      <point x="4179" y="1741"/>
      <point x="4332" y="1589"/>
      <point x="4332" y="1223" type="curve" smooth="yes"/>
      <point x="4332" y="0" type="line"/>
      <point x="4369" y="0" type="line"/>
      <point x="4369" y="1228" type="line" smooth="yes"/>
      <point x="4369" y="1608"/>
      <point x="4200" y="1776"/>
    </contour>
    <component base="Kssa_Simple.tm"/>
  </outline>
</glyph>
<glyph name="KssaMatraI_Simple_Fly.tm" format="2">
  <advance width="4193"/>
  <note>
KshaMatraI.tm
</note>
  <anchor x="2369" y="1253" name="top"/>
  <outline>
    <contour>
      <point x="3964" y="1573" type="line"/>
      <point x="3599" y="1573" type="line" smooth="yes"/>
      <point x="3392" y="1573"/>
      <point x="3302" y="1507"/>
      <point x="3302" y="1366" type="curve" smooth="yes"/>
      <point x="3302" y="1288"/>
      <point x="3339" y="1205"/>
      <point x="3411" y="1119" type="curve"/>
      <point x="3455" y="1119" type="line"/>
      <point x="3378" y="1212"/>
      <point x="3341" y="1285"/>
      <point x="3341" y="1364" type="curve" smooth="yes"/>
      <point x="3341" y="1490"/>
      <point x="3423" y="1538"/>
      <point x="3610" y="1538" type="curve" smooth="yes"/>
      <point x="3978" y="1538" type="line"/>
    </contour>
    <component base="Kssa_Simple.tm"/>
  </outline>
</glyph>
<glyph name="KssaMatraIi.tm" format="2">
  <advance width="4193"/>
  <note>
KshaMatraIi.tm
</note>
  <anchor x="2369" y="1253" name="top"/>
  <outline>
    <contour>
      <point x="3811" y="1843" type="curve" smooth="yes"/>
      <point x="3503" y="1843"/>
      <point x="3334" y="1711"/>
      <point x="3334" y="1457" type="curve" smooth="yes"/>
      <point x="3334" y="1457" type="line" smooth="yes"/>
      <point x="3334" y="1309"/>
      <point x="3394" y="1184"/>
      <point x="3445" y="1115" type="curve"/>
      <point x="3487" y="1115" type="line"/>
      <point x="3426" y="1194"/>
      <point x="3371" y="1322"/>
      <point x="3371" y="1456" type="curve" smooth="yes"/>
      <point x="3371" y="1456" type="line" smooth="yes"/>
      <point x="3371" y="1648"/>
      <point x="3473" y="1760"/>
      <point x="3662" y="1797" type="curve"/>
      <point x="3662" y="1797" type="line"/>
      <point x="3707" y="1805"/>
      <point x="3759" y="1809"/>
      <point x="3813" y="1809" type="curve" smooth="yes"/>
      <point x="4050" y="1809"/>
      <point x="4165" y="1732"/>
      <point x="4165" y="1588" type="curve" smooth="yes"/>
      <point x="4165" y="1584" type="line" smooth="yes"/>
      <point x="4165" y="1443"/>
      <point x="4082" y="1373"/>
      <point x="3910" y="1373" type="curve" smooth="yes"/>
      <point x="3721" y="1373"/>
      <point x="3642" y="1466"/>
      <point x="3642" y="1609" type="curve" smooth="yes"/>
      <point x="3642" y="1612" type="line" smooth="yes"/>
      <point x="3642" y="1693"/>
      <point x="3661" y="1755"/>
      <point x="3691" y="1809" type="curve"/>
      <point x="3662" y="1809" type="line"/>
      <point x="3662" y="1797" type="line"/>
      <point x="3629" y="1755"/>
      <point x="3605" y="1689"/>
      <point x="3605" y="1605" type="curve" smooth="yes"/>
      <point x="3605" y="1602" type="line" smooth="yes"/>
      <point x="3605" y="1448"/>
      <point x="3700" y="1339"/>
      <point x="3913" y="1339" type="curve" smooth="yes"/>
      <point x="4107" y="1339"/>
      <point x="4202" y="1427"/>
      <point x="4202" y="1584" type="curve" smooth="yes"/>
      <point x="4202" y="1588" type="line" smooth="yes"/>
      <point x="4202" y="1748"/>
      <point x="4071" y="1843"/>
    </contour>
    <component base="Kssa.tm"/>
  </outline>
</glyph>
<glyph name="KssaMatraUu.tm" format="2">
  <advance width="5683"/>
  <note>
KshaMatraUu.tm
</note>
  <outline>
    <contour>
      <point x="1182" y="593" type="line"/>
      <point x="1376" y="593" type="line" smooth="yes"/>
      <point x="1625" y="593"/>
      <point x="1713" y="516"/>
      <point x="1713" y="282" type="curve" smooth="yes"/>
      <point x="1713" y="0" type="line"/>
      <point x="1750" y="0" type="line"/>
      <point x="1750" y="312" type="line" smooth="yes"/>
      <point x="1750" y="590"/>
      <point x="1926" y="702"/>
      <point x="2156" y="702" type="curve" smooth="yes"/>
      <point x="2397" y="702"/>
      <point x="2504" y="586"/>
      <point x="2504" y="389" type="curve" smooth="yes"/>
      <point x="2504" y="385" type="line" smooth="yes"/>
      <point x="2504" y="202"/>
      <point x="2428" y="99"/>
      <point x="2312" y="9" type="curve"/>
      <point x="2312" y="0" type="line"/>
      <point x="3025" y="0" type="line"/>
      <point x="3025" y="33" type="line"/>
      <point x="2363" y="33" type="line"/>
      <point x="2365" y="16" type="line"/>
      <point x="2451" y="79"/>
      <point x="2543" y="194"/>
      <point x="2543" y="385" type="curve" smooth="yes"/>
      <point x="2543" y="389" type="line" smooth="yes"/>
      <point x="2543" y="610"/>
      <point x="2423" y="737"/>
      <point x="2159" y="737" type="curve" smooth="yes"/>
      <point x="1907" y="737"/>
      <point x="1733" y="598"/>
      <point x="1733" y="345" type="curve" smooth="yes"/>
      <point x="1733" y="340" type="line"/>
      <point x="1730" y="340" type="line"/>
      <point x="1726" y="532"/>
      <point x="1640" y="625"/>
      <point x="1379" y="625" type="curve" smooth="yes"/>
      <point x="1182" y="625" type="line"/>
    </contour>
    <contour>
      <point x="2478" y="33" type="line"/>
      <point x="2478" y="0" type="line"/>
      <point x="4141" y="0" type="line"/>
      <point x="4153" y="33" type="line"/>
      <point x="3444" y="33" type="line"/>
      <point x="3419" y="28" type="line"/>
      <point x="3395" y="33" type="line"/>
    </contour>
    <contour>
      <point x="3418" y="1126" type="curve" smooth="yes"/>
      <point x="3083" y="1126"/>
      <point x="2916" y="928"/>
      <point x="2916" y="616" type="curve" smooth="yes"/>
      <point x="2916" y="602" type="line" smooth="yes"/>
      <point x="2916" y="313"/>
      <point x="3051" y="92"/>
      <point x="3396" y="11" type="curve"/>
      <point x="3433" y="28" type="line"/>
      <point x="3081" y="107"/>
      <point x="2955" y="320"/>
      <point x="2955" y="602" type="curve" smooth="yes"/>
      <point x="2955" y="616" type="line" smooth="yes"/>
      <point x="2955" y="909"/>
      <point x="3106" y="1091"/>
      <point x="3418" y="1091" type="curve" smooth="yes"/>
      <point x="3729" y="1091"/>
      <point x="3880" y="909"/>
      <point x="3880" y="616" type="curve" smooth="yes"/>
      <point x="3880" y="602" type="line" smooth="yes"/>
      <point x="3880" y="320"/>
      <point x="3754" y="107"/>
      <point x="3402" y="28" type="curve"/>
      <point x="3439" y="11" type="line"/>
      <point x="3784" y="92"/>
      <point x="3919" y="313"/>
      <point x="3919" y="602" type="curve" smooth="yes"/>
      <point x="3919" y="616" type="line" smooth="yes"/>
      <point x="3919" y="843"/>
      <point x="3831" y="1016"/>
      <point x="3646" y="1084" type="curve"/>
      <point x="3634" y="1092" type="line"/>
      <point x="3572" y="1115"/>
      <point x="3500" y="1126"/>
    </contour>
    <contour>
      <point x="3970" y="1105" type="line"/>
      <point x="3564" y="1105" type="line"/>
      <point x="3650" y="1072" type="line"/>
      <point x="3970" y="1072" type="line"/>
    </contour>
    <component base="MatraUuDflt.tm" xOffset="3753"/>
    <component base="KaComponent_Nonexporting" xOffset="63"/>
    <component base="KaBeak_Nonexporting" xOffset="1279"/>
    <component base="Ssa_Below_NonExporting" xOffset="3068"/>
  </outline>
</glyph>
<glyph name="LaMatraI.tm" format="2">
  <advance width="3011"/>
  <note>
LaMatraI.tm
</note>
  <outline>
    <contour>
      <point x="836" y="1125" type="curve" smooth="yes"/>
      <point x="405" y="1125"/>
      <point x="185" y="905"/>
      <point x="185" y="475" type="curve" smooth="yes"/>
      <point x="185" y="459" type="line" smooth="yes"/>
      <point x="185" y="162"/>
      <point x="330" y="-21"/>
      <point x="640" y="-21" type="curve" smooth="yes"/>
      <point x="913" y="-21"/>
      <point x="1044" y="120"/>
      <point x="1044" y="329" type="curve" smooth="yes"/>
      <point x="1044" y="334" type="line" smooth="yes"/>
      <point x="1044" y="547"/>
      <point x="915" y="667"/>
      <point x="657" y="667" type="curve" smooth="yes"/>
      <point x="435" y="667"/>
      <point x="277" y="560"/>
      <point x="223" y="438" type="curve"/>
      <point x="212" y="438" type="line"/>
      <point x="212" y="347" type="line"/>
      <point x="249" y="502"/>
      <point x="414" y="632"/>
      <point x="654" y="632" type="curve" smooth="yes"/>
      <point x="893" y="632"/>
      <point x="1006" y="526"/>
      <point x="1006" y="334" type="curve" smooth="yes"/>
      <point x="1006" y="329" type="line" smooth="yes"/>
      <point x="1006" y="140"/>
      <point x="888" y="13"/>
      <point x="640" y="13" type="curve" smooth="yes"/>
      <point x="356" y="13"/>
      <point x="224" y="184"/>
      <point x="224" y="435" type="curve"/>
      <point x="224" y="438" type="line"/>
      <point x="222" y="438" type="line"/>
      <point x="222" y="451"/>
      <point x="222" y="460"/>
      <point x="222" y="473" type="curve" smooth="yes"/>
      <point x="222" y="883"/>
      <point x="428" y="1090"/>
      <point x="836" y="1090" type="curve" smooth="yes"/>
      <point x="1256" y="1090"/>
      <point x="1390" y="871"/>
      <point x="1390" y="484" type="curve" smooth="yes"/>
      <point x="1390" y="482" type="line" smooth="yes"/>
      <point x="1390" y="151"/>
      <point x="1532" y="-20"/>
      <point x="1828" y="-20" type="curve" smooth="yes"/>
      <point x="2122" y="-20"/>
      <point x="2256" y="172"/>
      <point x="2256" y="542" type="curve" smooth="yes"/>
      <point x="2256" y="558" type="line" smooth="yes"/>
      <point x="2256" y="905"/>
      <point x="2133" y="1125"/>
      <point x="1738" y="1125" type="curve" smooth="yes"/>
      <point x="1706" y="1125"/>
      <point x="1663" y="1121"/>
      <point x="1637" y="1116" type="curve"/>
      <point x="1656" y="1106" type="line"/>
      <point x="1651" y="1141"/>
      <point x="1647" y="1186"/>
      <point x="1647" y="1239" type="curve" smooth="yes"/>
      <point x="1647" y="1547"/>
      <point x="1832" y="1741"/>
      <point x="2186" y="1741" type="curve" smooth="yes"/>
      <point x="2564" y="1741"/>
      <point x="2722" y="1543"/>
      <point x="2722" y="1160" type="curve" smooth="yes"/>
      <point x="2722" y="0" type="line"/>
      <point x="2759" y="0" type="line"/>
      <point x="2759" y="1165" type="line" smooth="yes"/>
      <point x="2759" y="1564"/>
      <point x="2580" y="1776"/>
      <point x="2186" y="1776" type="curve" smooth="yes"/>
      <point x="1804" y="1776"/>
      <point x="1610" y="1562"/>
      <point x="1610" y="1239" type="curve" smooth="yes"/>
      <point x="1610" y="1182"/>
      <point x="1615" y="1128"/>
      <point x="1624" y="1082" type="curve"/>
      <point x="1655" y="1087"/>
      <point x="1702" y="1091"/>
      <point x="1737" y="1091" type="curve" smooth="yes"/>
      <point x="2112" y="1091"/>
      <point x="2217" y="883"/>
      <point x="2217" y="558" type="curve" smooth="yes"/>
      <point x="2217" y="542" type="line" smooth="yes"/>
      <point x="2217" y="199"/>
      <point x="2106" y="15"/>
      <point x="1828" y="15" type="curve" smooth="yes"/>
      <point x="1551" y="15"/>
      <point x="1428" y="171"/>
      <point x="1428" y="488" type="curve" smooth="yes"/>
      <point x="1428" y="489" type="line" smooth="yes"/>
      <point x="1428" y="891"/>
      <point x="1275" y="1125"/>
    </contour>
  </outline>
</glyph>
<glyph name="LaMatraI_Fly.tm" format="2">
  <advance width="2446"/>
  <note>
LaMatraI.tm
</note>
  <outline>
    <contour>
      <point x="836" y="1125" type="curve" smooth="yes"/>
      <point x="405" y="1125"/>
      <point x="185" y="905"/>
      <point x="185" y="475" type="curve" smooth="yes"/>
      <point x="185" y="459" type="line" smooth="yes"/>
      <point x="185" y="162"/>
      <point x="330" y="-21"/>
      <point x="640" y="-21" type="curve" smooth="yes"/>
      <point x="913" y="-21"/>
      <point x="1044" y="120"/>
      <point x="1044" y="329" type="curve" smooth="yes"/>
      <point x="1044" y="334" type="line" smooth="yes"/>
      <point x="1044" y="547"/>
      <point x="915" y="667"/>
      <point x="657" y="667" type="curve" smooth="yes"/>
      <point x="435" y="667"/>
      <point x="277" y="560"/>
      <point x="223" y="438" type="curve"/>
      <point x="212" y="438" type="line"/>
      <point x="212" y="347" type="line"/>
      <point x="249" y="502"/>
      <point x="414" y="632"/>
      <point x="654" y="632" type="curve" smooth="yes"/>
      <point x="893" y="632"/>
      <point x="1006" y="526"/>
      <point x="1006" y="334" type="curve" smooth="yes"/>
      <point x="1006" y="329" type="line" smooth="yes"/>
      <point x="1006" y="140"/>
      <point x="888" y="13"/>
      <point x="640" y="13" type="curve" smooth="yes"/>
      <point x="356" y="13"/>
      <point x="224" y="184"/>
      <point x="224" y="435" type="curve"/>
      <point x="224" y="438" type="line"/>
      <point x="222" y="438" type="line"/>
      <point x="222" y="451"/>
      <point x="222" y="460"/>
      <point x="222" y="473" type="curve" smooth="yes"/>
      <point x="222" y="883"/>
      <point x="428" y="1090"/>
      <point x="836" y="1090" type="curve" smooth="yes"/>
      <point x="1256" y="1090"/>
      <point x="1390" y="871"/>
      <point x="1390" y="484" type="curve" smooth="yes"/>
      <point x="1390" y="482" type="line" smooth="yes"/>
      <point x="1390" y="151"/>
      <point x="1532" y="-20"/>
      <point x="1828" y="-20" type="curve" smooth="yes"/>
      <point x="2122" y="-20"/>
      <point x="2256" y="172"/>
      <point x="2256" y="540" type="curve" smooth="yes"/>
      <point x="2256" y="556" type="line" smooth="yes"/>
      <point x="2256" y="905"/>
      <point x="2128" y="1125"/>
      <point x="1722" y="1125" type="curve" smooth="yes"/>
      <point x="1680" y="1125"/>
      <point x="1625" y="1120"/>
      <point x="1592" y="1113" type="curve"/>
      <point x="1609" y="1104" type="line"/>
      <point x="1527" y="1201"/>
      <point x="1487" y="1281"/>
      <point x="1487" y="1364" type="curve" smooth="yes"/>
      <point x="1487" y="1490"/>
      <point x="1569" y="1538"/>
      <point x="1756" y="1538" type="curve" smooth="yes"/>
      <point x="2152" y="1538" type="line"/>
      <point x="2137" y="1573" type="line"/>
      <point x="1745" y="1573" type="line" smooth="yes"/>
      <point x="1538" y="1573"/>
      <point x="1448" y="1507"/>
      <point x="1448" y="1366" type="curve" smooth="yes"/>
      <point x="1448" y="1278"/>
      <point x="1484" y="1206"/>
      <point x="1581" y="1080" type="curve"/>
      <point x="1620" y="1086"/>
      <point x="1678" y="1091"/>
      <point x="1720" y="1091" type="curve" smooth="yes"/>
      <point x="2107" y="1091"/>
      <point x="2217" y="883"/>
      <point x="2217" y="556" type="curve" smooth="yes"/>
      <point x="2217" y="540" type="line" smooth="yes"/>
      <point x="2217" y="199"/>
      <point x="2106" y="15"/>
      <point x="1828" y="15" type="curve" smooth="yes"/>
      <point x="1550" y="15"/>
      <point x="1427" y="171"/>
      <point x="1427" y="488" type="curve" smooth="yes"/>
      <point x="1427" y="489" type="line" smooth="yes"/>
      <point x="1427" y="891"/>
      <point x="1273" y="1125"/>
    </contour>
  </outline>
</glyph>
<glyph name="LaMatraIi.tm" format="2">
  <advance width="2446"/>
  <note>
LaMatraIi.tm
</note>
  <outline>
    <contour>
      <point x="1515" y="1447" type="line" smooth="yes"/>
      <point x="1515" y="1644"/>
      <point x="1617" y="1759"/>
      <point x="1806" y="1797" type="curve"/>
      <point x="1806" y="1797" type="line"/>
      <point x="1851" y="1805"/>
      <point x="1903" y="1809"/>
      <point x="1957" y="1809" type="curve" smooth="yes"/>
      <point x="2194" y="1809"/>
      <point x="2309" y="1732"/>
      <point x="2309" y="1588" type="curve" smooth="yes"/>
      <point x="2309" y="1584" type="line" smooth="yes"/>
      <point x="2309" y="1443"/>
      <point x="2226" y="1373"/>
      <point x="2054" y="1373" type="curve" smooth="yes"/>
      <point x="1865" y="1373"/>
      <point x="1786" y="1466"/>
      <point x="1786" y="1609" type="curve" smooth="yes"/>
      <point x="1786" y="1612" type="line" smooth="yes"/>
      <point x="1786" y="1693"/>
      <point x="1805" y="1755"/>
      <point x="1835" y="1809" type="curve"/>
      <point x="1806" y="1809" type="line"/>
      <point x="1806" y="1797" type="line"/>
      <point x="1773" y="1755"/>
      <point x="1749" y="1689"/>
      <point x="1749" y="1605" type="curve" smooth="yes"/>
      <point x="1749" y="1602" type="line" smooth="yes"/>
      <point x="1749" y="1448"/>
      <point x="1844" y="1339"/>
      <point x="2057" y="1339" type="curve" smooth="yes"/>
      <point x="2251" y="1339"/>
      <point x="2346" y="1427"/>
      <point x="2346" y="1584" type="curve" smooth="yes"/>
      <point x="2346" y="1588" type="line" smooth="yes"/>
      <point x="2346" y="1748"/>
      <point x="2215" y="1843"/>
      <point x="1955" y="1843" type="curve" smooth="yes"/>
      <point x="1647" y="1843"/>
      <point x="1478" y="1708"/>
      <point x="1478" y="1448" type="curve" smooth="yes"/>
      <point x="1478" y="1448" type="line"/>
      <point x="1478" y="1318"/>
      <point x="1518" y="1190"/>
      <point x="1586" y="1080" type="curve"/>
      <point x="1624" y="1086"/>
      <point x="1682" y="1091"/>
      <point x="1725" y="1091" type="curve" smooth="yes"/>
      <point x="2109" y="1091"/>
      <point x="2217" y="883"/>
      <point x="2217" y="556" type="curve" smooth="yes"/>
      <point x="2217" y="540" type="line" smooth="yes"/>
      <point x="2217" y="199"/>
      <point x="2106" y="15"/>
      <point x="1828" y="15" type="curve" smooth="yes"/>
      <point x="1550" y="15"/>
      <point x="1427" y="171"/>
      <point x="1427" y="488" type="curve" smooth="yes"/>
      <point x="1427" y="489" type="line" smooth="yes"/>
      <point x="1427" y="891"/>
      <point x="1274" y="1125"/>
      <point x="836" y="1125" type="curve" smooth="yes"/>
      <point x="405" y="1125"/>
      <point x="185" y="905"/>
      <point x="185" y="475" type="curve" smooth="yes"/>
      <point x="185" y="459" type="line" smooth="yes"/>
      <point x="185" y="162"/>
      <point x="330" y="-21"/>
      <point x="640" y="-21" type="curve" smooth="yes"/>
      <point x="913" y="-21"/>
      <point x="1044" y="120"/>
      <point x="1044" y="329" type="curve" smooth="yes"/>
      <point x="1044" y="334" type="line" smooth="yes"/>
      <point x="1044" y="547"/>
      <point x="915" y="667"/>
      <point x="657" y="667" type="curve" smooth="yes"/>
      <point x="435" y="667"/>
      <point x="277" y="560"/>
      <point x="223" y="438" type="curve"/>
      <point x="212" y="438" type="line"/>
      <point x="212" y="347" type="line"/>
      <point x="249" y="502"/>
      <point x="414" y="632"/>
      <point x="654" y="632" type="curve" smooth="yes"/>
      <point x="893" y="632"/>
      <point x="1006" y="526"/>
      <point x="1006" y="334" type="curve" smooth="yes"/>
      <point x="1006" y="329" type="line" smooth="yes"/>
      <point x="1006" y="140"/>
      <point x="888" y="13"/>
      <point x="640" y="13" type="curve" smooth="yes"/>
      <point x="356" y="13"/>
      <point x="224" y="184"/>
      <point x="224" y="435" type="curve"/>
      <point x="224" y="438" type="line"/>
      <point x="222" y="438" type="line"/>
      <point x="222" y="451"/>
      <point x="222" y="460"/>
      <point x="222" y="473" type="curve" smooth="yes"/>
      <point x="222" y="883"/>
      <point x="428" y="1090"/>
      <point x="836" y="1090" type="curve" smooth="yes"/>
      <point x="1256" y="1090"/>
      <point x="1390" y="871"/>
      <point x="1390" y="484" type="curve" smooth="yes"/>
      <point x="1390" y="482" type="line" smooth="yes"/>
      <point x="1390" y="151"/>
      <point x="1532" y="-20"/>
      <point x="1828" y="-20" type="curve" smooth="yes"/>
      <point x="2122" y="-20"/>
      <point x="2256" y="172"/>
      <point x="2256" y="540" type="curve" smooth="yes"/>
      <point x="2256" y="556" type="line" smooth="yes"/>
      <point x="2256" y="905"/>
      <point x="2130" y="1125"/>
      <point x="1727" y="1125" type="curve" smooth="yes"/>
      <point x="1686" y="1125"/>
      <point x="1632" y="1120"/>
      <point x="1598" y="1113" type="curve"/>
      <point x="1612" y="1102" type="line"/>
      <point x="1559" y="1188"/>
      <point x="1515" y="1309"/>
      <point x="1515" y="1447" type="curve"/>
    </contour>
  </outline>
</glyph>
<glyph name="LaMatraIi_SimpleIi.tm" format="2">
  <advance width="2446"/>
  <note>
LaMatraIi.tm
</note>
  <outline>
    <contour>
      <point x="836" y="1125" type="curve" smooth="yes"/>
      <point x="405" y="1125"/>
      <point x="185" y="905"/>
      <point x="185" y="475" type="curve" smooth="yes"/>
      <point x="185" y="459" type="line" smooth="yes"/>
      <point x="185" y="162"/>
      <point x="330" y="-21"/>
      <point x="640" y="-21" type="curve" smooth="yes"/>
      <point x="913" y="-21"/>
      <point x="1044" y="120"/>
      <point x="1044" y="329" type="curve" smooth="yes"/>
      <point x="1044" y="334" type="line" smooth="yes"/>
      <point x="1044" y="547"/>
      <point x="915" y="667"/>
      <point x="657" y="667" type="curve" smooth="yes"/>
      <point x="435" y="667"/>
      <point x="277" y="560"/>
      <point x="223" y="438" type="curve"/>
      <point x="212" y="438" type="line"/>
      <point x="212" y="347" type="line"/>
      <point x="249" y="502"/>
      <point x="414" y="632"/>
      <point x="654" y="632" type="curve" smooth="yes"/>
      <point x="893" y="632"/>
      <point x="1006" y="526"/>
      <point x="1006" y="334" type="curve" smooth="yes"/>
      <point x="1006" y="329" type="line" smooth="yes"/>
      <point x="1006" y="140"/>
      <point x="888" y="13"/>
      <point x="640" y="13" type="curve" smooth="yes"/>
      <point x="356" y="13"/>
      <point x="224" y="184"/>
      <point x="224" y="435" type="curve"/>
      <point x="224" y="438" type="line"/>
      <point x="222" y="438" type="line"/>
      <point x="222" y="451"/>
      <point x="222" y="460"/>
      <point x="222" y="473" type="curve" smooth="yes"/>
      <point x="222" y="883"/>
      <point x="428" y="1090"/>
      <point x="836" y="1090" type="curve" smooth="yes"/>
      <point x="1256" y="1090"/>
      <point x="1390" y="871"/>
      <point x="1390" y="484" type="curve" smooth="yes"/>
      <point x="1390" y="482" type="line" smooth="yes"/>
      <point x="1390" y="151"/>
      <point x="1532" y="-20"/>
      <point x="1828" y="-20" type="curve" smooth="yes"/>
      <point x="2122" y="-20"/>
      <point x="2256" y="173"/>
      <point x="2256" y="540" type="curve" smooth="yes"/>
      <point x="2256" y="556" type="line" smooth="yes"/>
      <point x="2256" y="905"/>
      <point x="2130" y="1125"/>
      <point x="1727" y="1125" type="curve" smooth="yes"/>
      <point x="1686" y="1125"/>
      <point x="1632" y="1120"/>
      <point x="1598" y="1113" type="curve"/>
      <point x="1623" y="1108" type="line"/>
      <point x="1623" y="1469" type="line"/>
      <point x="1623" y="1472" type="line"/>
      <point x="1623" y="1491" type="line" smooth="yes"/>
      <point x="1623" y="1708"/>
      <point x="1750" y="1810"/>
      <point x="1978" y="1810" type="curve" smooth="yes"/>
      <point x="2186" y="1810"/>
      <point x="2299" y="1736"/>
      <point x="2299" y="1592" type="curve" smooth="yes"/>
      <point x="2299" y="1586" type="line" smooth="yes"/>
      <point x="2299" y="1435"/>
      <point x="2206" y="1363"/>
      <point x="1984" y="1363" type="curve" smooth="yes"/>
      <point x="1795" y="1363"/>
      <point x="1667" y="1423"/>
      <point x="1619" y="1498" type="curve"/>
      <point x="1614" y="1498" type="line"/>
      <point x="1614" y="1467" type="line"/>
      <point x="1623" y="1467" type="line"/>
      <point x="1660" y="1417" type="line"/>
      <point x="1704" y="1379"/>
      <point x="1820" y="1329"/>
      <point x="1987" y="1329" type="curve" smooth="yes"/>
      <point x="2239" y="1329"/>
      <point x="2336" y="1424"/>
      <point x="2336" y="1586" type="curve" smooth="yes"/>
      <point x="2336" y="1592" type="line" smooth="yes"/>
      <point x="2336" y="1757"/>
      <point x="2206" y="1843"/>
      <point x="1978" y="1843" type="curve" smooth="yes"/>
      <point x="1727" y="1843"/>
      <point x="1586" y="1728"/>
      <point x="1586" y="1481" type="curve" smooth="yes"/>
      <point x="1586" y="1080" type="line"/>
      <point x="1621" y="1086"/>
      <point x="1682" y="1091"/>
      <point x="1725" y="1091" type="curve" smooth="yes"/>
      <point x="2109" y="1091"/>
      <point x="2217" y="883"/>
      <point x="2217" y="556" type="curve" smooth="yes"/>
      <point x="2217" y="540" type="line" smooth="yes"/>
      <point x="2217" y="200"/>
      <point x="2106" y="15"/>
      <point x="1828" y="15" type="curve" smooth="yes"/>
      <point x="1550" y="15"/>
      <point x="1427" y="171"/>
      <point x="1427" y="488" type="curve" smooth="yes"/>
      <point x="1427" y="489" type="line" smooth="yes"/>
      <point x="1427" y="891"/>
      <point x="1274" y="1125"/>
    </contour>
  </outline>
</glyph>
<glyph name="LaMatraU.tm" format="2">
  <advance width="3007"/>
  <note>
LaMatraU.tm
</note>
  <anchor x="1380" y="1253" name="top"/>
  <outline>
    <contour>
      <point x="2718" y="1105" type="line"/>
      <point x="2718" y="-350" type="line"/>
      <point x="2755" y="-350" type="line"/>
      <point x="2755" y="1105" type="line"/>
    </contour>
    <contour>
      <point x="954" y="-833" type="curve" smooth="yes"/>
      <point x="1524" y="-833"/>
      <point x="1778" y="-617"/>
      <point x="1836" y="-338" type="curve"/>
      <point x="1837" y="-330" type="line"/>
      <point x="1847" y="-271"/>
      <point x="1862" y="-122"/>
      <point x="1862" y="-16" type="curve"/>
      <point x="1824" y="-16" type="line"/>
      <point x="1824" y="-121"/>
      <point x="1810" y="-272"/>
      <point x="1799" y="-328" type="curve"/>
      <point x="1798" y="-336" type="line"/>
      <point x="1739" y="-592"/>
      <point x="1505" y="-798"/>
      <point x="954" y="-798" type="curve" smooth="yes"/>
      <point x="347" y="-798"/>
      <point x="131" y="-566"/>
      <point x="99" y="-350" type="curve"/>
      <point x="2755" y="-350" type="line"/>
      <point x="2755" y="-317" type="line"/>
      <point x="52" y="-317" type="line"/>
      <point x="84" y="-594"/>
      <point x="322" y="-833"/>
    </contour>
    <component base="La.tm" xOffset="10"/>
  </outline>
</glyph>
<glyph name="LlaMatraU.tm" format="2">
  <advance width="3837"/>
  <note>
LlaMatraU.tm
</note>
  <outline>
    <contour>
      <point x="3302" y="695" type="curve" smooth="yes"/>
      <point x="3080" y="695"/>
      <point x="2937" y="575"/>
      <point x="2893" y="417" type="curve"/>
      <point x="2879" y="417" type="line"/>
      <point x="2879" y="334" type="line"/>
      <point x="2886" y="334" type="line"/>
      <point x="2941" y="549"/>
      <point x="3091" y="660"/>
      <point x="3300" y="660" type="curve" smooth="yes"/>
      <point x="3557" y="660"/>
      <point x="3656" y="516"/>
      <point x="3656" y="257" type="curve" smooth="yes"/>
      <point x="3656" y="248" type="line" smooth="yes"/>
      <point x="3656" y="-318"/>
      <point x="3161" y="-630"/>
      <point x="2067" y="-630" type="curve" smooth="yes"/>
      <point x="2009" y="-630" type="line" smooth="yes"/>
      <point x="809" y="-630"/>
      <point x="239" y="-256"/>
      <point x="239" y="519" type="curve" smooth="yes"/>
      <point x="239" y="736"/>
      <point x="290" y="952"/>
      <point x="378" y="1105" type="curve"/>
      <point x="338" y="1105" type="line"/>
      <point x="253" y="968"/>
      <point x="200" y="737"/>
      <point x="200" y="519" type="curve" smooth="yes"/>
      <point x="200" y="-276"/>
      <point x="787" y="-665"/>
      <point x="2009" y="-665" type="curve" smooth="yes"/>
      <point x="2067" y="-665" type="line" smooth="yes"/>
      <point x="3188" y="-665"/>
      <point x="3695" y="-334"/>
      <point x="3695" y="248" type="curve" smooth="yes"/>
      <point x="3695" y="257" type="line" smooth="yes"/>
      <point x="3695" y="538"/>
      <point x="3581" y="695"/>
    </contour>
    <contour>
      <point x="2857" y="1084" type="line"/>
      <point x="2857" y="0" type="line"/>
      <point x="2893" y="0" type="line"/>
      <point x="2893" y="1084" type="line"/>
    </contour>
    <contour>
      <point x="1512" y="1125" type="curve" smooth="yes"/>
      <point x="1067" y="1125"/>
      <point x="834" y="906"/>
      <point x="834" y="489" type="curve" smooth="yes"/>
      <point x="834" y="459" type="line" smooth="yes"/>
      <point x="834" y="162"/>
      <point x="979" y="-21"/>
      <point x="1289" y="-21" type="curve" smooth="yes"/>
      <point x="1562" y="-21"/>
      <point x="1693" y="120"/>
      <point x="1693" y="329" type="curve" smooth="yes"/>
      <point x="1693" y="334" type="line" smooth="yes"/>
      <point x="1693" y="547"/>
      <point x="1564" y="667"/>
      <point x="1306" y="667" type="curve" smooth="yes"/>
      <point x="1084" y="667"/>
      <point x="926" y="560"/>
      <point x="872" y="438" type="curve"/>
      <point x="861" y="438" type="line"/>
      <point x="861" y="347" type="line"/>
      <point x="898" y="502"/>
      <point x="1063" y="632"/>
      <point x="1303" y="632" type="curve" smooth="yes"/>
      <point x="1542" y="632"/>
      <point x="1655" y="526"/>
      <point x="1655" y="334" type="curve" smooth="yes"/>
      <point x="1655" y="329" type="line" smooth="yes"/>
      <point x="1655" y="140"/>
      <point x="1537" y="13"/>
      <point x="1289" y="13" type="curve" smooth="yes"/>
      <point x="1005" y="13"/>
      <point x="873" y="184"/>
      <point x="873" y="435" type="curve"/>
      <point x="873" y="438" type="line"/>
      <point x="871" y="438" type="line"/>
      <point x="871" y="456"/>
      <point x="871" y="470"/>
      <point x="871" y="488" type="curve" smooth="yes"/>
      <point x="871" y="884"/>
      <point x="1089" y="1090"/>
      <point x="1512" y="1090" type="curve" smooth="yes"/>
      <point x="1937" y="1090"/>
      <point x="2101" y="883"/>
      <point x="2101" y="486" type="curve" smooth="yes"/>
      <point x="2101" y="0" type="line"/>
      <point x="2136" y="0" type="line"/>
      <point x="2136" y="1072" type="line"/>
      <point x="3110" y="1072" type="line"/>
      <point x="3110" y="1105" type="line"/>
      <point x="2103" y="1105" type="line"/>
      <point x="2110" y="695" type="line"/>
      <point x="2108" y="695" type="line"/>
      <point x="2082" y="901"/>
      <point x="1946" y="1125"/>
    </contour>
    <component base="RaBeak_Nonexporting" xOffset="2830"/>
  </outline>
</glyph>
<glyph name="LlaMatraUu.tm" format="2">
  <advance width="4302"/>
  <note>
LlaMatraUu.tm
</note>
  <outline>
    <contour>
      <point x="1978" y="1125" type="curve" smooth="yes"/>
      <point x="1533" y="1125"/>
      <point x="1300" y="906"/>
      <point x="1300" y="489" type="curve" smooth="yes"/>
      <point x="1300" y="459" type="line" smooth="yes"/>
      <point x="1300" y="162"/>
      <point x="1445" y="-21"/>
      <point x="1755" y="-21" type="curve" smooth="yes"/>
      <point x="2028" y="-21"/>
      <point x="2159" y="120"/>
      <point x="2159" y="329" type="curve" smooth="yes"/>
      <point x="2159" y="334" type="line" smooth="yes"/>
      <point x="2159" y="547"/>
      <point x="2030" y="667"/>
      <point x="1772" y="667" type="curve" smooth="yes"/>
      <point x="1550" y="667"/>
      <point x="1392" y="560"/>
      <point x="1338" y="438" type="curve"/>
      <point x="1327" y="438" type="line"/>
      <point x="1327" y="347" type="line"/>
      <point x="1364" y="502"/>
      <point x="1529" y="632"/>
      <point x="1769" y="632" type="curve" smooth="yes"/>
      <point x="2008" y="632"/>
      <point x="2121" y="526"/>
      <point x="2121" y="334" type="curve" smooth="yes"/>
      <point x="2121" y="329" type="line" smooth="yes"/>
      <point x="2121" y="140"/>
      <point x="2003" y="13"/>
      <point x="1755" y="13" type="curve" smooth="yes"/>
      <point x="1471" y="13"/>
      <point x="1339" y="184"/>
      <point x="1339" y="435" type="curve"/>
      <point x="1339" y="438" type="line"/>
      <point x="1337" y="438" type="line"/>
      <point x="1337" y="456"/>
      <point x="1337" y="470"/>
      <point x="1337" y="488" type="curve" smooth="yes"/>
      <point x="1337" y="884"/>
      <point x="1555" y="1090"/>
      <point x="1978" y="1090" type="curve" smooth="yes"/>
      <point x="2403" y="1090"/>
      <point x="2567" y="883"/>
      <point x="2567" y="486" type="curve" smooth="yes"/>
      <point x="2567" y="0" type="line"/>
      <point x="2602" y="0" type="line"/>
      <point x="2602" y="1072" type="line"/>
      <point x="3576" y="1072" type="line"/>
      <point x="3576" y="1105" type="line"/>
      <point x="2569" y="1105" type="line"/>
      <point x="2576" y="695" type="line"/>
      <point x="2574" y="695" type="line"/>
      <point x="2548" y="901"/>
      <point x="2412" y="1125"/>
    </contour>
    <contour>
      <point x="3323" y="1084" type="line"/>
      <point x="3323" y="0" type="line"/>
      <point x="3359" y="0" type="line"/>
      <point x="3359" y="1084" type="line"/>
    </contour>
    <contour>
      <point x="3767" y="693" type="curve" smooth="yes"/>
      <point x="3545" y="693"/>
      <point x="3403" y="574"/>
      <point x="3359" y="417" type="curve"/>
      <point x="3345" y="417" type="line"/>
      <point x="3345" y="334" type="line"/>
      <point x="3352" y="334" type="line"/>
      <point x="3406" y="549"/>
      <point x="3556" y="660"/>
      <point x="3765" y="660" type="curve" smooth="yes"/>
      <point x="4022" y="660"/>
      <point x="4121" y="516"/>
      <point x="4121" y="257" type="curve" smooth="yes"/>
      <point x="4121" y="248" type="line" smooth="yes"/>
      <point x="4121" y="-361"/>
      <point x="3563" y="-702"/>
      <point x="2330" y="-702" type="curve" smooth="yes"/>
      <point x="2254" y="-702" type="line" smooth="yes"/>
      <point x="892" y="-702"/>
      <point x="243" y="-310"/>
      <point x="243" y="502" type="curve" smooth="yes"/>
      <point x="243" y="521" type="line"/>
      <point x="243" y="528" type="line"/>
      <point x="248" y="910"/>
      <point x="396" y="1092"/>
      <point x="649" y="1092" type="curve" smooth="yes"/>
      <point x="871" y="1092"/>
      <point x="980" y="965"/>
      <point x="980" y="750" type="curve" smooth="yes"/>
      <point x="980" y="744" type="line" smooth="yes"/>
      <point x="980" y="533"/>
      <point x="869" y="405"/>
      <point x="623" y="405" type="curve" smooth="yes"/>
      <point x="440" y="405"/>
      <point x="288" y="468"/>
      <point x="237" y="551" type="curve"/>
      <point x="234" y="551" type="line"/>
      <point x="234" y="521" type="line"/>
      <point x="243" y="521" type="line"/>
      <point x="271" y="475" type="line"/>
      <point x="320" y="431"/>
      <point x="438" y="371"/>
      <point x="626" y="371" type="curve" smooth="yes"/>
      <point x="897" y="371"/>
      <point x="1017" y="514"/>
      <point x="1017" y="744" type="curve" smooth="yes"/>
      <point x="1017" y="750" type="line" smooth="yes"/>
      <point x="1017" y="986"/>
      <point x="889" y="1125"/>
      <point x="649" y="1125" type="curve" smooth="yes"/>
      <point x="369" y="1125"/>
      <point x="204" y="930"/>
      <point x="204" y="510" type="curve" smooth="yes"/>
      <point x="204" y="502" type="line" smooth="yes"/>
      <point x="204" y="-329"/>
      <point x="867" y="-736"/>
      <point x="2254" y="-736" type="curve" smooth="yes"/>
      <point x="2330" y="-736" type="line" smooth="yes"/>
      <point x="3589" y="-736"/>
      <point x="4160" y="-377"/>
      <point x="4160" y="248" type="curve" smooth="yes"/>
      <point x="4160" y="257" type="line" smooth="yes"/>
      <point x="4160" y="537"/>
      <point x="4045" y="693"/>
    </contour>
    <component base="RaBeak_Nonexporting" xOffset="3296"/>
  </outline>
</glyph>
<glyph name="LllaMatraI_Fly.tm" format="2">
  <advance width="2090"/>
  <note>
LllaMatraI.tm
</note>
  <anchor x="1043" y="1253" name="top"/>
  <outline>
    <contour>
      <point x="916" y="-729" type="curve" smooth="yes"/>
      <point x="1166" y="-729"/>
      <point x="1263" y="-595"/>
      <point x="1347" y="-407" type="curve" smooth="yes"/>
      <point x="1359" y="-380" type="line" smooth="yes"/>
      <point x="1372" y="-350"/>
      <point x="1382" y="-333"/>
      <point x="1422" y="-333" type="curve" smooth="yes"/>
      <point x="1610" y="-333" type="line"/>
      <point x="1624" y="-300" type="line"/>
      <point x="1420" y="-300" type="line" smooth="yes"/>
      <point x="1134" y="-300"/>
      <point x="1061" y="-219"/>
      <point x="1061" y="-21" type="curve" smooth="yes"/>
      <point x="1061" y="9" type="line"/>
      <point x="1024" y="9" type="line"/>
      <point x="1024" y="-23" type="line" smooth="yes"/>
      <point x="1024" y="-241"/>
      <point x="1110" y="-320"/>
      <point x="1382" y="-324" type="curve"/>
      <point x="1382" y="-326" type="line"/>
      <point x="1352" y="-327"/>
      <point x="1336" y="-345"/>
      <point x="1322" y="-375" type="curve" smooth="yes"/>
      <point x="1313" y="-394" type="line" smooth="yes"/>
      <point x="1236" y="-555"/>
      <point x="1150" y="-696"/>
      <point x="916" y="-696" type="curve" smooth="yes"/>
      <point x="665" y="-696"/>
      <point x="535" y="-573"/>
      <point x="535" y="-312" type="curve" smooth="yes"/>
      <point x="535" y="-260"/>
      <point x="544" y="-202"/>
      <point x="553" y="-169" type="curve"/>
      <point x="515" y="-169" type="line"/>
      <point x="506" y="-201"/>
      <point x="497" y="-253"/>
      <point x="497" y="-312" type="curve" smooth="yes"/>
      <point x="497" y="-595"/>
      <point x="650" y="-729"/>
    </contour>
    <component base="MaMatraI_Fly.tm"/>
  </outline>
</glyph>
<glyph name="LllaMatraI_Simple_Fly.tm" format="2">
  <advance width="2090"/>
  <note>
LllaMatraI.tm
</note>
  <anchor x="1043" y="1253" name="top"/>
  <outline>
    <contour>
      <point x="1024" y="58" type="line"/>
      <point x="1024" y="-30" type="line" smooth="yes"/>
      <point x="1024" y="-271"/>
      <point x="987" y="-352"/>
      <point x="751" y="-352" type="curve" smooth="yes"/>
      <point x="188" y="-352" type="line"/>
      <point x="200" y="-385" type="line"/>
      <point x="758" y="-385" type="line" smooth="yes"/>
      <point x="955" y="-385"/>
      <point x="1031" y="-319"/>
      <point x="1043" y="-153" type="curve"/>
      <point x="1045" y="-153" type="line"/>
      <point x="1063" y="-319"/>
      <point x="1149" y="-385"/>
      <point x="1323" y="-385" type="curve" smooth="yes"/>
      <point x="1610" y="-385" type="line"/>
      <point x="1624" y="-352" type="line"/>
      <point x="1328" y="-352" type="line" smooth="yes"/>
      <point x="1121" y="-352"/>
      <point x="1061" y="-271"/>
      <point x="1061" y="-30" type="curve" smooth="yes"/>
      <point x="1061" y="58" type="line"/>
    </contour>
    <component base="MaMatraI_Fly.tm"/>
  </outline>
</glyph>
<glyph name="LllaMatraIi_Simple.tm" format="2">
  <advance width="2090"/>
  <note>
LllaMatraIi.tm
</note>
  <anchor x="1043" y="1253" name="top"/>
  <outline>
    <contour>
      <point x="1024" y="12" type="line"/>
      <point x="1024" y="-76" type="line" smooth="yes"/>
      <point x="1024" y="-317"/>
      <point x="987" y="-398"/>
      <point x="751" y="-398" type="curve" smooth="yes"/>
      <point x="188" y="-398" type="line"/>
      <point x="200" y="-431" type="line"/>
      <point x="758" y="-431" type="line" smooth="yes"/>
      <point x="955" y="-431"/>
      <point x="1031" y="-364"/>
      <point x="1043" y="-199" type="curve"/>
      <point x="1045" y="-199" type="line"/>
      <point x="1063" y="-364"/>
      <point x="1149" y="-431"/>
      <point x="1323" y="-431" type="curve" smooth="yes"/>
      <point x="1610" y="-431" type="line"/>
      <point x="1624" y="-398" type="line"/>
      <point x="1328" y="-398" type="line" smooth="yes"/>
      <point x="1121" y="-398"/>
      <point x="1061" y="-317"/>
      <point x="1061" y="-76" type="curve" smooth="yes"/>
      <point x="1061" y="12" type="line"/>
    </contour>
    <component base="MaMatraIi.tm"/>
  </outline>
</glyph>
<glyph name="LllaMatraU.tm" format="2">
  <advance width="2867"/>
  <note>
LllaMatraU.tm
</note>
  <anchor x="1820" y="1253" name="top"/>
  <outline>
    <contour>
      <point x="419" y="1105" type="line"/>
      <point x="301" y="928"/>
      <point x="200" y="679"/>
      <point x="200" y="334" type="curve" smooth="yes"/>
      <point x="200" y="-271"/>
      <point x="534" y="-635"/>
      <point x="1303" y="-635" type="curve" smooth="yes"/>
      <point x="1639" y="-635"/>
      <point x="1898" y="-520"/>
      <point x="2072" y="-392" type="curve" smooth="yes"/>
      <point x="2095" y="-375" type="line" smooth="yes"/>
      <point x="2131" y="-348"/>
      <point x="2160" y="-333"/>
      <point x="2215" y="-333" type="curve" smooth="yes"/>
      <point x="2387" y="-333" type="line"/>
      <point x="2401" y="-300" type="line"/>
      <point x="2181" y="-300" type="line" smooth="yes"/>
      <point x="1903" y="-300"/>
      <point x="1838" y="-219"/>
      <point x="1838" y="-21" type="curve" smooth="yes"/>
      <point x="1838" y="9" type="line"/>
      <point x="1801" y="9" type="line"/>
      <point x="1801" y="-23" type="line" smooth="yes"/>
      <point x="1801" y="-239"/>
      <point x="1873" y="-319"/>
      <point x="2121" y="-322" type="curve"/>
      <point x="2121" y="-324" type="line"/>
      <point x="2097" y="-331"/>
      <point x="2077" y="-343"/>
      <point x="2056" y="-359" type="curve" smooth="yes"/>
      <point x="2035" y="-375" type="line" smooth="yes"/>
      <point x="1879" y="-493"/>
      <point x="1633" y="-600"/>
      <point x="1303" y="-600" type="curve" smooth="yes"/>
      <point x="555" y="-600"/>
      <point x="239" y="-252"/>
      <point x="239" y="334" type="curve" smooth="yes"/>
      <point x="239" y="662"/>
      <point x="325" y="894"/>
      <point x="459" y="1105" type="curve"/>
    </contour>
    <component base="Ma.tm" xOffset="777"/>
  </outline>
</glyph>
<glyph name="LllaMatraU_Simple.tm" format="2">
  <advance width="2908"/>
  <note>
LllaMatraU.tm
</note>
  <anchor x="1861" y="1253" name="top"/>
  <outline>
    <contour>
      <point x="248" y="1105" type="line"/>
      <point x="248" y="334" type="line" smooth="yes"/>
      <point x="248" y="-271"/>
      <point x="581" y="-635"/>
      <point x="1347" y="-635" type="curve" smooth="yes"/>
      <point x="1681" y="-635"/>
      <point x="1940" y="-521"/>
      <point x="2113" y="-392" type="curve" smooth="yes"/>
      <point x="2136" y="-375" type="line" smooth="yes"/>
      <point x="2172" y="-348"/>
      <point x="2201" y="-333"/>
      <point x="2256" y="-333" type="curve" smooth="yes"/>
      <point x="2428" y="-333" type="line"/>
      <point x="2442" y="-300" type="line"/>
      <point x="2222" y="-300" type="line" smooth="yes"/>
      <point x="1944" y="-300"/>
      <point x="1879" y="-219"/>
      <point x="1879" y="-21" type="curve" smooth="yes"/>
      <point x="1879" y="9" type="line"/>
      <point x="1842" y="9" type="line"/>
      <point x="1842" y="-23" type="line" smooth="yes"/>
      <point x="1842" y="-239"/>
      <point x="1914" y="-319"/>
      <point x="2162" y="-322" type="curve"/>
      <point x="2162" y="-324" type="line"/>
      <point x="2138" y="-331"/>
      <point x="2118" y="-343"/>
      <point x="2097" y="-359" type="curve" smooth="yes"/>
      <point x="2076" y="-375" type="line" smooth="yes"/>
      <point x="1921" y="-494"/>
      <point x="1676" y="-600"/>
      <point x="1347" y="-600" type="curve" smooth="yes"/>
      <point x="602" y="-600"/>
      <point x="287" y="-252"/>
      <point x="287" y="334" type="curve" smooth="yes"/>
      <point x="287" y="1105" type="line"/>
    </contour>
    <component base="Ma.tm" xOffset="818"/>
  </outline>
</glyph>
<glyph name="LllaMatraUu.tm" format="2">
  <advance width="3203"/>
  <note>
LllaMatraUu.tm
</note>
  <anchor x="2156" y="1253" name="top"/>
  <outline>
    <contour>
      <point x="1463" y="-671" type="curve" smooth="yes"/>
      <point x="693" y="-671"/>
      <point x="242" y="-332"/>
      <point x="242" y="401" type="curve" smooth="yes"/>
      <point x="242" y="455"/>
      <point x="244" y="500"/>
      <point x="245" y="521" type="curve"/>
      <point x="246" y="526" type="line"/>
      <point x="270" y="911"/>
      <point x="418" y="1092"/>
      <point x="659" y="1092" type="curve" smooth="yes"/>
      <point x="882" y="1092"/>
      <point x="986" y="965"/>
      <point x="986" y="750" type="curve" smooth="yes"/>
      <point x="986" y="744" type="line" smooth="yes"/>
      <point x="986" y="533"/>
      <point x="875" y="405"/>
      <point x="629" y="405" type="curve" smooth="yes"/>
      <point x="444" y="405"/>
      <point x="291" y="468"/>
      <point x="240" y="551" type="curve"/>
      <point x="237" y="551" type="line"/>
      <point x="237" y="521" type="line"/>
      <point x="245" y="521" type="line"/>
      <point x="274" y="475" type="line"/>
      <point x="323" y="431"/>
      <point x="441" y="371"/>
      <point x="632" y="371" type="curve" smooth="yes"/>
      <point x="903" y="371"/>
      <point x="1023" y="514"/>
      <point x="1023" y="744" type="curve" smooth="yes"/>
      <point x="1023" y="750" type="line" smooth="yes"/>
      <point x="1023" y="986"/>
      <point x="900" y="1125"/>
      <point x="659" y="1125" type="curve" smooth="yes"/>
      <point x="372" y="1125"/>
      <point x="204" y="898"/>
      <point x="204" y="410" type="curve" smooth="yes"/>
      <point x="204" y="401" type="line" smooth="yes"/>
      <point x="204" y="-353"/>
      <point x="672" y="-706"/>
      <point x="1463" y="-706" type="curve"/>
      <point x="1851" y="-706"/>
      <point x="2167" y="-613"/>
      <point x="2399" y="-405" type="curve" smooth="yes"/>
      <point x="2429" y="-378" type="line" smooth="yes"/>
      <point x="2463" y="-347"/>
      <point x="2487" y="-333"/>
      <point x="2539" y="-333" type="curve" smooth="yes"/>
      <point x="2724" y="-333" type="line"/>
      <point x="2738" y="-300" type="line"/>
      <point x="2518" y="-300" type="line" smooth="yes"/>
      <point x="2240" y="-300"/>
      <point x="2174" y="-219"/>
      <point x="2174" y="-21" type="curve" smooth="yes"/>
      <point x="2174" y="9" type="line"/>
      <point x="2137" y="9" type="line"/>
      <point x="2137" y="-23" type="line" smooth="yes"/>
      <point x="2137" y="-239"/>
      <point x="2214" y="-319"/>
      <point x="2464" y="-322" type="curve"/>
      <point x="2464" y="-324" type="line"/>
      <point x="2429" y="-331"/>
      <point x="2408" y="-355"/>
      <point x="2383" y="-375" type="curve" smooth="yes"/>
      <point x="2360" y="-394" type="line" smooth="yes"/>
      <point x="2141" y="-575"/>
      <point x="1835" y="-671"/>
    </contour>
    <component base="Ma.tm" xOffset="1113"/>
  </outline>
</glyph>
<glyph name="Llla_Simple.tm" format="2">
  <advance width="2090"/>
  <note>
Llla.tm
</note>
  <anchor x="1043" y="1253" name="top"/>
  <outline>
    <contour>
      <point x="1024" y="18" type="line"/>
      <point x="1024" y="-30" type="line" smooth="yes"/>
      <point x="1024" y="-271"/>
      <point x="987" y="-352"/>
      <point x="751" y="-352" type="curve" smooth="yes"/>
      <point x="188" y="-352" type="line"/>
      <point x="200" y="-385" type="line"/>
      <point x="758" y="-385" type="line" smooth="yes"/>
      <point x="955" y="-385"/>
      <point x="1031" y="-319"/>
      <point x="1043" y="-153" type="curve"/>
      <point x="1045" y="-153" type="line"/>
      <point x="1063" y="-319"/>
      <point x="1149" y="-385"/>
      <point x="1323" y="-385" type="curve" smooth="yes"/>
      <point x="1610" y="-385" type="line"/>
      <point x="1624" y="-352" type="line"/>
      <point x="1328" y="-352" type="line" smooth="yes"/>
      <point x="1121" y="-352"/>
      <point x="1061" y="-271"/>
      <point x="1061" y="-30" type="curve" smooth="yes"/>
      <point x="1061" y="18" type="line"/>
    </contour>
    <component base="Ma.tm"/>
  </outline>
</glyph>
<glyph name="MaMatraI_Fly.tm" format="2">
  <advance width="2090"/>
  <note>
MaMatraI.tm
</note>
  <anchor x="1043" y="1253" name="top"/>
  <outline>
    <contour>
      <point x="1892" y="1573" type="line"/>
      <point x="1527" y="1573" type="line" smooth="yes"/>
      <point x="1320" y="1573"/>
      <point x="1230" y="1507"/>
      <point x="1230" y="1366" type="curve" smooth="yes"/>
      <point x="1230" y="1282"/>
      <point x="1270" y="1194"/>
      <point x="1353" y="1094" type="curve"/>
      <point x="1397" y="1094" type="line"/>
      <point x="1310" y="1198"/>
      <point x="1269" y="1279"/>
      <point x="1269" y="1364" type="curve" smooth="yes"/>
      <point x="1269" y="1490"/>
      <point x="1351" y="1538"/>
      <point x="1538" y="1538" type="curve" smooth="yes"/>
      <point x="1906" y="1538" type="line"/>
    </contour>
    <component base="Ma.tm"/>
  </outline>
</glyph>
<glyph name="MaMatraIi_SimpleIi.tm" format="2">
  <advance width="2090"/>
  <note>
MaMatraIi.tm
</note>
  <anchor x="1043" y="1253" name="top"/>
  <outline>
    <contour>
      <point x="1651" y="1843" type="curve" smooth="yes"/>
      <point x="1400" y="1843"/>
      <point x="1259" y="1728"/>
      <point x="1259" y="1481" type="curve" smooth="yes"/>
      <point x="1259" y="1481" type="line" smooth="yes"/>
      <point x="1259" y="1291"/>
      <point x="1333" y="1155"/>
      <point x="1451" y="1088" type="curve"/>
      <point x="1507" y="1088" type="line"/>
      <point x="1359" y="1169"/>
      <point x="1296" y="1307"/>
      <point x="1296" y="1467" type="curve" smooth="yes"/>
      <point x="1296" y="1472" type="line"/>
      <point x="1296" y="1491" type="line" smooth="yes"/>
      <point x="1296" y="1708"/>
      <point x="1423" y="1810"/>
      <point x="1651" y="1810" type="curve" smooth="yes"/>
      <point x="1859" y="1810"/>
      <point x="1972" y="1736"/>
      <point x="1972" y="1592" type="curve" smooth="yes"/>
      <point x="1972" y="1586" type="line" smooth="yes"/>
      <point x="1972" y="1435"/>
      <point x="1879" y="1363"/>
      <point x="1657" y="1363" type="curve" smooth="yes"/>
      <point x="1468" y="1363"/>
      <point x="1340" y="1423"/>
      <point x="1292" y="1498" type="curve"/>
      <point x="1287" y="1498" type="line"/>
      <point x="1287" y="1467" type="line"/>
      <point x="1296" y="1467" type="line"/>
      <point x="1333" y="1417" type="line"/>
      <point x="1377" y="1379"/>
      <point x="1493" y="1329"/>
      <point x="1660" y="1329" type="curve" smooth="yes"/>
      <point x="1912" y="1329"/>
      <point x="2009" y="1424"/>
      <point x="2009" y="1586" type="curve" smooth="yes"/>
      <point x="2009" y="1592" type="line" smooth="yes"/>
      <point x="2009" y="1757"/>
      <point x="1879" y="1843"/>
    </contour>
    <component base="Ma.tm"/>
  </outline>
</glyph>
<glyph name="MaMatraU.tm" format="2">
  <advance width="2867"/>
  <note>
MaMatraU.tm
</note>
  <anchor x="1820" y="1253" name="top"/>
  <outline>
    <contour>
      <point x="419" y="1105" type="line"/>
      <point x="309" y="942"/>
      <point x="200" y="678"/>
      <point x="200" y="287" type="curve" smooth="yes"/>
      <point x="200" y="-267"/>
      <point x="481" y="-625"/>
      <point x="1078" y="-625" type="curve" smooth="yes"/>
      <point x="1087" y="-625" type="line" smooth="yes"/>
      <point x="1578" y="-625"/>
      <point x="1817" y="-402"/>
      <point x="1837" y="-13" type="curve" smooth="yes"/>
      <point x="1839" y="26" type="line"/>
      <point x="1802" y="26" type="line"/>
      <point x="1800" y="-11" type="line" smooth="yes"/>
      <point x="1780" y="-388"/>
      <point x="1550" y="-590"/>
      <point x="1087" y="-590" type="curve" smooth="yes"/>
      <point x="1078" y="-590" type="line" smooth="yes"/>
      <point x="506" y="-590"/>
      <point x="239" y="-248"/>
      <point x="239" y="287" type="curve" smooth="yes"/>
      <point x="239" y="662"/>
      <point x="336" y="911"/>
      <point x="459" y="1105" type="curve"/>
    </contour>
    <component base="Ma.tm" xOffset="777"/>
  </outline>
</glyph>
<glyph name="MaMatraU_Simple.tm" format="2">
  <advance width="2915"/>
  <note>
MaMatraU.tm
</note>
  <anchor x="1868" y="1253" name="top"/>
  <outline>
    <contour>
      <point x="248" y="1105" type="line"/>
      <point x="248" y="287" type="line"/>
      <point x="248" y="-267"/>
      <point x="529" y="-625"/>
      <point x="1126" y="-625" type="curve" smooth="yes"/>
      <point x="1135" y="-625" type="line" smooth="yes"/>
      <point x="1626" y="-625"/>
      <point x="1865" y="-402"/>
      <point x="1885" y="-13" type="curve" smooth="yes"/>
      <point x="1887" y="26" type="line"/>
      <point x="1850" y="26" type="line"/>
      <point x="1848" y="-11" type="line" smooth="yes"/>
      <point x="1828" y="-388"/>
      <point x="1598" y="-590"/>
      <point x="1135" y="-590" type="curve" smooth="yes"/>
      <point x="1126" y="-590" type="line" smooth="yes"/>
      <point x="554" y="-590"/>
      <point x="287" y="-248"/>
      <point x="287" y="287" type="curve"/>
      <point x="287" y="1105" type="line"/>
    </contour>
    <component base="Ma.tm" xOffset="825"/>
  </outline>
</glyph>
<glyph name="MaMatraUu.tm" format="2">
  <advance width="3203"/>
  <note>
MaMatraUu.tm
</note>
  <anchor x="2156" y="1253" name="top"/>
  <outline>
    <contour>
      <point x="659" y="1125" type="curve" smooth="yes"/>
      <point x="372" y="1125"/>
      <point x="204" y="898"/>
      <point x="204" y="410" type="curve" smooth="yes"/>
      <point x="204" y="401" type="line" smooth="yes"/>
      <point x="204" y="-338"/>
      <point x="592" y="-671"/>
      <point x="1270" y="-671" type="curve"/>
      <point x="1279" y="-671" type="line" smooth="yes"/>
      <point x="1869" y="-671"/>
      <point x="2160" y="-424"/>
      <point x="2172" y="-9" type="curve" smooth="yes"/>
      <point x="2173" y="26" type="line"/>
      <point x="2136" y="26" type="line"/>
      <point x="2135" y="-7" type="line" smooth="yes"/>
      <point x="2123" y="-411"/>
      <point x="1837" y="-636"/>
      <point x="1279" y="-636" type="curve"/>
      <point x="1270" y="-636" type="line" smooth="yes"/>
      <point x="613" y="-636"/>
      <point x="242" y="-318"/>
      <point x="242" y="401" type="curve" smooth="yes"/>
      <point x="242" y="455"/>
      <point x="244" y="498"/>
      <point x="245" y="521" type="curve"/>
      <point x="246" y="526" type="line"/>
      <point x="270" y="911"/>
      <point x="418" y="1092"/>
      <point x="659" y="1092" type="curve" smooth="yes"/>
      <point x="882" y="1092"/>
      <point x="986" y="965"/>
      <point x="986" y="750" type="curve" smooth="yes"/>
      <point x="986" y="744" type="line" smooth="yes"/>
      <point x="986" y="533"/>
      <point x="875" y="405"/>
      <point x="629" y="405" type="curve" smooth="yes"/>
      <point x="444" y="405"/>
      <point x="291" y="468"/>
      <point x="240" y="551" type="curve"/>
      <point x="237" y="551" type="line"/>
      <point x="237" y="521" type="line"/>
      <point x="245" y="521" type="line"/>
      <point x="274" y="475" type="line"/>
      <point x="323" y="431"/>
      <point x="441" y="371"/>
      <point x="632" y="371" type="curve" smooth="yes"/>
      <point x="903" y="371"/>
      <point x="1023" y="514"/>
      <point x="1023" y="744" type="curve" smooth="yes"/>
      <point x="1023" y="750" type="line" smooth="yes"/>
      <point x="1023" y="986"/>
      <point x="900" y="1125"/>
    </contour>
    <component base="Ma.tm" xOffset="1113"/>
  </outline>
</glyph>
<glyph name="MatraAa_dummy.tm" format="2">
  <advance width="1418"/>
  <note>
RaAltMatraAa.tm
</note>
  <outline>
    <contour>
      <point x="1021" y="1084" type="line"/>
      <point x="1021" y="0" type="line"/>
      <point x="1058" y="0" type="line"/>
      <point x="1058" y="1084" type="line"/>
    </contour>
    <contour>
      <point x="1052" y="1105" type="line"/>
      <point x="252" y="1105" type="line"/>
      <point x="252" y="0" type="line"/>
      <point x="289" y="0" type="line"/>
      <point x="289" y="1072" type="line"/>
      <point x="1052" y="1072" type="line"/>
    </contour>
    <component base="RaBeak_Nonexporting" xOffset="788"/>
  </outline>
</glyph>
<glyph name="MatraAiComponent_Nonexporting" format="2">
  <advance width="1558"/>
  <outline>
    <contour>
      <point x="658" y="1570" type="curve" smooth="yes"/>
      <point x="333" y="1570"/>
      <point x="160" y="1448"/>
      <point x="160" y="1260" type="curve" smooth="yes"/>
      <point x="160" y="1257" type="line" smooth="yes"/>
      <point x="160" y="1091"/>
      <point x="275" y="982"/>
      <point x="495" y="982" type="curve" smooth="yes"/>
      <point x="736" y="982"/>
      <point x="841" y="1107"/>
      <point x="841" y="1287" type="curve" smooth="yes"/>
      <point x="841" y="1290" type="line" smooth="yes"/>
      <point x="841" y="1394"/>
      <point x="811" y="1482"/>
      <point x="771" y="1532" type="curve"/>
      <point x="771" y="1538" type="line"/>
      <point x="739" y="1538" type="line"/>
      <point x="780" y="1471"/>
      <point x="804" y="1392"/>
      <point x="804" y="1294" type="curve" smooth="yes"/>
      <point x="804" y="1290" type="line" smooth="yes"/>
      <point x="804" y="1123"/>
      <point x="715" y="1016"/>
      <point x="495" y="1016" type="curve" smooth="yes"/>
      <point x="297" y="1016"/>
      <point x="197" y="1104"/>
      <point x="197" y="1257" type="curve" smooth="yes"/>
      <point x="197" y="1260" type="line" smooth="yes"/>
      <point x="197" y="1434"/>
      <point x="363" y="1536"/>
      <point x="658" y="1536" type="curve" smooth="yes"/>
      <point x="698" y="1536"/>
      <point x="743" y="1535"/>
      <point x="771" y="1532" type="curve"/>
      <point x="771" y="1532" type="line"/>
      <point x="1053" y="1506"/>
      <point x="1220" y="1398"/>
      <point x="1220" y="1145" type="curve" smooth="yes"/>
      <point x="1220" y="1134" type="line" smooth="yes"/>
      <point x="1220" y="888"/>
      <point x="1081" y="759"/>
      <point x="748" y="702" type="curve" smooth="yes"/>
      <point x="561" y="670" type="line" smooth="yes"/>
      <point x="250" y="617"/>
      <point x="141" y="523"/>
      <point x="141" y="346" type="curve" smooth="yes"/>
      <point x="141" y="341" type="line" smooth="yes"/>
      <point x="141" y="110"/>
      <point x="338" y="-25"/>
      <point x="792" y="-25" type="curve" smooth="yes"/>
      <point x="1107" y="-25"/>
      <point x="1355" y="37"/>
      <point x="1558" y="125" type="curve"/>
      <point x="1558" y="164" type="line"/>
      <point x="1352" y="73"/>
      <point x="1102" y="10"/>
      <point x="794" y="10" type="curve" smooth="yes"/>
      <point x="363" y="10"/>
      <point x="180" y="131"/>
      <point x="180" y="341" type="curve" smooth="yes"/>
      <point x="180" y="346" type="line" smooth="yes"/>
      <point x="180" y="509"/>
      <point x="285" y="594"/>
      <point x="581" y="641" type="curve" smooth="yes"/>
      <point x="764" y="670" type="line" smooth="yes"/>
      <point x="1107" y="724"/>
      <point x="1258" y="873"/>
      <point x="1258" y="1134" type="curve" smooth="yes"/>
      <point x="1258" y="1145" type="line" smooth="yes"/>
      <point x="1258" y="1422"/>
      <point x="1072" y="1570"/>
    </contour>
  </outline>
</glyph>
<glyph name="MatraEe_Fused.tm" format="2">
  <advance width="1625"/>
  <note>
MatraEe.tm
</note>
  <outline>
    <contour>
      <point x="971" y="1443" type="curve" smooth="yes"/>
      <point x="455" y="1443"/>
      <point x="186" y="1190"/>
      <point x="186" y="720" type="curve" smooth="yes"/>
      <point x="186" y="702" type="line" smooth="yes"/>
      <point x="186" y="232"/>
      <point x="455" y="-21"/>
      <point x="971" y="-21" type="curve" smooth="yes"/>
      <point x="1312" y="-21"/>
      <point x="1481" y="125"/>
      <point x="1481" y="356" type="curve" smooth="yes"/>
      <point x="1481" y="364" type="line" smooth="yes"/>
      <point x="1481" y="590"/>
      <point x="1360" y="716"/>
      <point x="1115" y="716" type="curve"/>
      <point x="1105" y="716" type="line"/>
      <point x="867" y="716"/>
      <point x="718" y="591"/>
      <point x="718" y="352" type="curve" smooth="yes"/>
      <point x="718" y="348" type="line" smooth="yes"/>
      <point x="718" y="219"/>
      <point x="774" y="91"/>
      <point x="835" y="19" type="curve"/>
      <point x="835" y="5" type="line"/>
      <point x="881" y="5" type="line"/>
      <point x="811" y="92"/>
      <point x="754" y="216"/>
      <point x="754" y="348" type="curve" smooth="yes"/>
      <point x="754" y="352" type="line" smooth="yes"/>
      <point x="754" y="581"/>
      <point x="897" y="688"/>
      <point x="1110" y="688" type="curve" smooth="yes"/>
      <point x="1339" y="688"/>
      <point x="1444" y="572"/>
      <point x="1444" y="364" type="curve" smooth="yes"/>
      <point x="1444" y="356" type="line" smooth="yes"/>
      <point x="1444" y="146"/>
      <point x="1288" y="12"/>
      <point x="973" y="12" type="curve" smooth="yes"/>
      <point x="925" y="12"/>
      <point x="876" y="14"/>
      <point x="835" y="19" type="curve"/>
      <point x="835" y="19" type="line"/>
      <point x="482" y="58"/>
      <point x="225" y="251"/>
      <point x="225" y="704" type="curve" smooth="yes"/>
      <point x="225" y="718" type="line" smooth="yes"/>
      <point x="225" y="1173"/>
      <point x="484" y="1367"/>
      <point x="840" y="1404" type="curve"/>
      <point x="840" y="1404" type="line"/>
      <point x="880" y="1408"/>
      <point x="926" y="1410"/>
      <point x="973" y="1410" type="curve" smooth="yes"/>
      <point x="1286" y="1410"/>
      <point x="1441" y="1278"/>
      <point x="1441" y="1067" type="curve" smooth="yes"/>
      <point x="1441" y="1058" type="line" smooth="yes"/>
      <point x="1441" y="852"/>
      <point x="1337" y="737"/>
      <point x="1110" y="737" type="curve" smooth="yes"/>
      <point x="899" y="737"/>
      <point x="758" y="843"/>
      <point x="758" y="1070" type="curve" smooth="yes"/>
      <point x="758" y="1074" type="line" smooth="yes"/>
      <point x="758" y="1206"/>
      <point x="814" y="1331"/>
      <point x="885" y="1417" type="curve"/>
      <point x="840" y="1413" type="line"/>
      <point x="840" y="1404" type="line"/>
      <point x="778" y="1332"/>
      <point x="721" y="1203"/>
      <point x="721" y="1074" type="curve" smooth="yes"/>
      <point x="721" y="1070" type="line" smooth="yes"/>
      <point x="721" y="832"/>
      <point x="869" y="709"/>
      <point x="1105" y="709" type="curve"/>
      <point x="1115" y="709" type="line"/>
      <point x="1358" y="709"/>
      <point x="1478" y="834"/>
      <point x="1478" y="1058" type="curve" smooth="yes"/>
      <point x="1478" y="1067" type="line" smooth="yes"/>
      <point x="1478" y="1297"/>
      <point x="1311" y="1443"/>
    </contour>
  </outline>
</glyph>
<glyph name="MatraIDflt_Fly.tm" format="2">
  <note>
MatraIDflt.tm
</note>
  <outline>
    <contour>
      <point x="662" y="1573" type="line"/>
      <point x="297" y="1573" type="line" smooth="yes"/>
      <point x="90" y="1573"/>
      <point x="0" y="1507"/>
      <point x="0" y="1366" type="curve" smooth="yes"/>
      <point x="0" y="1283"/>
      <point x="39" y="1194"/>
      <point x="114" y="1104" type="curve"/>
      <point x="158" y="1104" type="line"/>
      <point x="79" y="1198"/>
      <point x="39" y="1280"/>
      <point x="39" y="1364" type="curve" smooth="yes"/>
      <point x="39" y="1490"/>
      <point x="121" y="1538"/>
      <point x="308" y="1538" type="curve" smooth="yes"/>
      <point x="676" y="1538" type="line"/>
    </contour>
  </outline>
</glyph>
<glyph name="MatraIiDflt_SimpleIi.tm" format="2">
  <note>
MatraIiDflt.tm
</note>
  <outline>
    <contour>
      <point x="392" y="1843" type="curve" smooth="yes"/>
      <point x="141" y="1843"/>
      <point x="0" y="1728"/>
      <point x="0" y="1481" type="curve" smooth="yes"/>
      <point x="0" y="1481" type="line" smooth="yes"/>
      <point x="0" y="1298"/>
      <point x="70" y="1167"/>
      <point x="182" y="1103" type="curve"/>
      <point x="238" y="1103" type="line"/>
      <point x="97" y="1181"/>
      <point x="37" y="1313"/>
      <point x="37" y="1467" type="curve" smooth="yes"/>
      <point x="37" y="1472" type="line"/>
      <point x="37" y="1491" type="line" smooth="yes"/>
      <point x="37" y="1708"/>
      <point x="164" y="1810"/>
      <point x="392" y="1810" type="curve" smooth="yes"/>
      <point x="600" y="1810"/>
      <point x="713" y="1736"/>
      <point x="713" y="1592" type="curve" smooth="yes"/>
      <point x="713" y="1586" type="line" smooth="yes"/>
      <point x="713" y="1435"/>
      <point x="620" y="1363"/>
      <point x="398" y="1363" type="curve" smooth="yes"/>
      <point x="209" y="1363"/>
      <point x="81" y="1423"/>
      <point x="33" y="1498" type="curve"/>
      <point x="28" y="1498" type="line"/>
      <point x="28" y="1467" type="line"/>
      <point x="37" y="1467" type="line"/>
      <point x="74" y="1417" type="line"/>
      <point x="118" y="1379"/>
      <point x="234" y="1329"/>
      <point x="401" y="1329" type="curve" smooth="yes"/>
      <point x="653" y="1329"/>
      <point x="750" y="1424"/>
      <point x="750" y="1586" type="curve" smooth="yes"/>
      <point x="750" y="1592" type="line" smooth="yes"/>
      <point x="750" y="1757"/>
      <point x="620" y="1843"/>
    </contour>
  </outline>
</glyph>
